<?xml version="1.0" encoding="UTF-8" standalone="no"?>
<!-- Created with Inkscape (http://www.inkscape.org/) -->

<svg
   width="4096"
   height="2304"
   viewBox="0 0 1083.7333 609.6"
   version="1.1"
   id="svg22528"
   inkscape:version="1.2-alpha1 (b6a15bb, 2022-02-23)"
   sodipodi:docname="teavelopment_poster.svg"
   inkscape:export-filename="teavelopment_poster2.png"
   inkscape:export-xdpi="96"
   inkscape:export-ydpi="96"
   xmlns:inkscape="http://www.inkscape.org/namespaces/inkscape"
   xmlns:sodipodi="http://sodipodi.sourceforge.net/DTD/sodipodi-0.dtd"
   xmlns="http://www.w3.org/2000/svg"
   xmlns:svg="http://www.w3.org/2000/svg">
  <sodipodi:namedview
     id="namedview22530"
     pagecolor="#505050"
     bordercolor="#eeeeee"
     borderopacity="1"
     inkscape:pageshadow="0"
     inkscape:pageopacity="0"
     inkscape:pagecheckerboard="0"
     inkscape:deskcolor="#505050"
     inkscape:document-units="mm"
     showgrid="false"
     inkscape:zoom="0.19487409"
     inkscape:cx="708.14955"
     inkscape:cy="1352.1551"
     inkscape:window-width="2488"
     inkscape:window-height="1016"
     inkscape:window-x="2632"
     inkscape:window-y="27"
     inkscape:window-maximized="1"
     inkscape:current-layer="layer1" />
  <defs
     id="defs22525">
    <rect
       x="347.28078"
       y="379.79204"
       width="2406.4685"
       height="599.75265"
       id="rect25334" />
  </defs>
  <g
     inkscape:label="Background"
     inkscape:groupmode="layer"
     id="layer1"
     style="display:none;fill:#1a1a1a">
    <rect
       style="opacity:1;fill:#1a1a1a;stroke-width:0.264583"
       id="rect22584"
       width="1083.7333"
       height="609.59998"
       x="0"
       y="0" />
  </g>
  <g
     inkscape:groupmode="layer"
     id="layer8"
     inkscape:label="Text"
     style="fill:#ffffff"
     transform="translate(-1.4155781e-5,2.5965674e-5)">
    <g
       id="g3526"
       transform="translate(-0.62176265,-40.735653)">
      <g
         id="g3012"
         inkscape:label="Logo"
         style="fill:#ffffff"
         transform="matrix(49.041018,0,0,49.041018,-694.65014,-2137.4423)">
        <g
           inkscape:groupmode="layer"
           id="layer2"
           inkscape:label="Walls"
           style="display:inline;fill:#ffffff">
          <g
             id="g23789"
             inkscape:label="cup"
             style="fill:#ffffff">
            <text
               xml:space="preserve"
               style="font-size:4.56401px;opacity:1;fill:#ffffff;stroke-width:0.380334"
               x="28.459366"
               y="50.458733"
               id="text1406"
               inkscape:label="["><tspan
                 sodipodi:role="line"
                 id="tspan1404"
                 style="font-style:normal;font-variant:normal;font-weight:normal;font-stretch:normal;font-family:FreeSans;-inkscape-font-specification:FreeSans;fill:#ffffff;stroke-width:0.380334"
                 x="28.459366"
                 y="50.458733">{</tspan></text>
            <text
               xml:space="preserve"
               style="font-size:4.56401px;fill:#ffffff;stroke-width:0.380334"
               x="31.81081"
               y="50.458733"
               id="text1406-5"
               inkscape:label="]"><tspan
                 sodipodi:role="line"
                 id="tspan1404-9"
                 style="font-style:normal;font-variant:normal;font-weight:normal;font-stretch:normal;font-family:FreeSans;-inkscape-font-specification:FreeSans;fill:#ffffff;stroke-width:0.380334"
                 x="31.81081"
                 y="50.458733">}</tspan></text>
          </g>
          <g
             inkscape:groupmode="layer"
             id="layer9"
             inkscape:label="Bottom"
             style="display:none;fill:#ffffff">
            <text
               xml:space="preserve"
               style="font-style:normal;font-variant:normal;font-weight:normal;font-stretch:normal;font-size:2.92833px;font-family:FreeSans;-inkscape-font-specification:FreeSans;display:inline;opacity:1;fill:#ffffff;stroke-width:0.244026"
               x="30.022728"
               y="51.436375"
               id="text15365"
               inkscape:label=".1"><tspan
                 sodipodi:role="line"
                 id="tspan15363"
                 style="fill:#ffffff;stroke-width:0.244026"
                 x="30.022728"
                 y="51.436375">.</tspan></text>
            <text
               xml:space="preserve"
               style="font-style:normal;font-variant:normal;font-weight:normal;font-stretch:normal;font-size:2.92833px;font-family:FreeSans;-inkscape-font-specification:FreeSans;display:inline;fill:#ffffff;stroke-width:0.244026"
               x="30.508455"
               y="51.436375"
               id="text15365-3"
               inkscape:label=".2"><tspan
                 sodipodi:role="line"
                 id="tspan15363-7"
                 style="fill:#ffffff;stroke-width:0.244026"
                 x="30.508455"
                 y="51.436375">.</tspan></text>
            <text
               xml:space="preserve"
               style="font-style:normal;font-variant:normal;font-weight:normal;font-stretch:normal;font-size:2.92833px;font-family:FreeSans;-inkscape-font-specification:FreeSans;display:inline;fill:#ffffff;stroke-width:0.244026"
               x="30.994183"
               y="51.436375"
               id="text15365-0"
               inkscape:label=".3"><tspan
                 sodipodi:role="line"
                 id="tspan15363-2"
                 style="fill:#ffffff;stroke-width:0.244026"
                 x="30.994183"
                 y="51.436375">.</tspan></text>
          </g>
        </g>
        <g
           inkscape:groupmode="layer"
           id="layer3"
           inkscape:label="handle"
           style="display:inline;opacity:1;fill:#ffffff">
          <path
             id="path44466"
             style="display:none;opacity:1;fill:#ffffff;stroke-width:0.176318"
             d="m 32.57756,48.099163 v 0.311092 c 0,0 0.531536,-0.135505 0.719978,0.04899 0.263803,0.258279 0.329783,1.376516 0.07119,1.687854 -0.168502,0.20287 -0.791166,0 -0.791166,0 v 0.311609 c 0,0 0.839838,0.177028 1.03549,-0.138434 0.321924,-0.519058 0.206244,-1.6606 -0.118893,-2.066849 -0.23195,-0.289819 -0.916602,-0.154263 -0.916602,-0.154263 z"
             sodipodi:nodetypes="ccssccsscc" />
          <path
             id="rect443"
             style="display:inline;opacity:1;fill:#ffffff;stroke-width:0.440879"
             d="m 32.967921,48.058597 v 0.356051 l 0.05426,-0.0016 c 0.323282,-0.0091 0.583426,0.243997 0.583427,0.567407 v 0.550871 c 0,0.323408 -0.260145,0.590863 -0.583427,0.599963 l -0.05426,0.0016 v 0.366386 H 33.1214 c 0.459385,0 0.829407,-0.37002 0.829407,-0.829407 v -0.781864 c 0,-0.459386 -0.370022,-0.829407 -0.829407,-0.829407 z"
             sodipodi:nodetypes="cccsscccssssc" />
        </g>
        <g
           inkscape:groupmode="layer"
           id="layer4"
           inkscape:label="opening"
           style="fill:#ffffff">
          <ellipse
             style="opacity:1;fill:#ffffff;stroke-width:0.271992"
             id="path31756"
             ry="0.17955004"
             rx="1.1940284"
             cy="47.791847"
             cx="30.87693" />
        </g>
        <g
           inkscape:groupmode="layer"
           id="layer6"
           inkscape:label="Teabag"
           style="fill:#ffffff">
          <path
             id="rect11918"
             style="opacity:1;fill:#ffffff;stroke-width:0.202383"
             d="m 31.296281,48.654911 c -0.0091,2.5e-5 -0.01795,4.2e-4 -0.02635,5.17e-4 -0.03734,4.3e-4 -0.06611,0.0017 -0.07183,0.0041 -0.01798,0.0078 -0.11622,0.08814 -0.132809,0.121957 -0.01659,0.03381 -0.02768,0.476678 0,0.504362 0.01375,0.01375 0.145951,0.01884 0.278019,0.01809 0.132069,7.5e-4 0.26427,-0.0043 0.27802,-0.01809 0.02768,-0.02768 0.01659,-0.470552 0,-0.504362 -0.01659,-0.03382 -0.114829,-0.114157 -0.132809,-0.121957 -0.0092,-0.0039 -0.07719,-0.0048 -0.145211,-0.0041 -0.01594,-1.64e-4 -0.03185,-5.58e-4 -0.04702,-5.17e-4 z m 0.04702,0.06821 a 0.05,0.05 0 0 1 0.05013,0.04961 0.05,0.05 0 0 1 -0.05013,0.05013 0.05,0.05 0 0 1 -0.04961,-0.05013 0.05,0.05 0 0 1 0.04961,-0.04961 z" />
        </g>
        <g
           inkscape:groupmode="layer"
           id="layer7"
           inkscape:label="Teabag Line"
           style="fill:#ffffff">
          <path
             id="rect26666"
             style="opacity:1;fill:#ffffff;stroke-width:0.374178"
             d="m 31.309367,47.953154 v 0.717269 h 0.02274 0.02274 0.02274 v -0.717269 h -0.02274 -0.02274 z" />
        </g>
      </g>
      <text
         xml:space="preserve"
         transform="matrix(0.74895769,0,0,0.74895769,-145.45413,63.7197)"
         id="text25332"
         style="font-size:192px;font-family:FreeSans;-inkscape-font-specification:FreeSans;white-space:pre;shape-inside:url(#rect25334);opacity:1;fill:#ffffff"><tspan
           x="347.28125"
           y="557.39297"
           id="tspan747"><tspan
             style="font-family:'Berkshire Swash';-inkscape-font-specification:'Berkshire Swash'"
             id="tspan745">Teavelopment</tspan></tspan></text>
    </g>
  </g>
</svg>
