<?xml version="1.0" encoding="UTF-8" standalone="no"?>
<!-- Created with Inkscape (http://www.inkscape.org/) -->

<svg
   sodipodi:docname="vaccination-bot_logo_rounded.svg"
   width="512"
   height="512"
   viewBox="0 0 135.46667 135.46667"
   version="1.1"
   id="svg5"
   inkscape:export-filename="count_doko_rounded.png"
   inkscape:export-xdpi="96"
   inkscape:export-ydpi="96"
   inkscape:version="1.2-alpha1 (b6a15bb, 2022-02-23)"
   xmlns:inkscape="http://www.inkscape.org/namespaces/inkscape"
   xmlns:sodipodi="http://sodipodi.sourceforge.net/DTD/sodipodi-0.dtd"
   xmlns="http://www.w3.org/2000/svg"
   xmlns:svg="http://www.w3.org/2000/svg">
  <sodipodi:namedview
     id="namedview7"
     pagecolor="#505050"
     bordercolor="#eeeeee"
     borderopacity="1"
     inkscape:pageshadow="0"
     inkscape:pageopacity="0"
     inkscape:pagecheckerboard="0"
     inkscape:deskcolor="#505050"
     inkscape:document-units="mm"
     showgrid="false"
     inkscape:zoom="0.19487409"
     inkscape:cx="856.9636"
     inkscape:cy="-269.40472"
     inkscape:window-width="2486"
     inkscape:window-height="1016"
     inkscape:window-x="0"
     inkscape:window-y="0"
     inkscape:window-maximized="1"
     inkscape:current-layer="layer2" />
  <defs
     id="defs2">
    <inkscape:path-effect
       effect="fillet_chamfer"
       id="path-effect452"
       is_visible="true"
       lpeversion="1"
       nodesatellites_param="F,1,0,1,0,0.22,0,1 @ F,1,0,1,0,0.22,0,1 @ F,1,0,1,0,0.22,0,1 @ F,1,0,1,0,0.22,0,1"
       unit="px"
       method="auto"
       mode="F"
       radius="22"
       chamfer_steps="1"
       flexible="true"
       use_knot_distance="true"
       apply_no_radius="true"
       apply_with_radius="true"
       only_selected="false"
       hide_knots="false" />
    <inkscape:path-effect
       effect="fillet_chamfer"
       id="path-effect452-3"
       is_visible="true"
       lpeversion="1"
       nodesatellites_param="F,1,0,1,0,0.22,0,1 @ F,1,0,1,0,0.22,0,1 @ F,1,0,1,0,0.22,0,1 @ F,1,0,1,0,0.22,0,1"
       unit="px"
       method="auto"
       mode="F"
       radius="22"
       chamfer_steps="1"
       flexible="true"
       use_knot_distance="true"
       apply_no_radius="true"
       apply_with_radius="true"
       only_selected="false"
       hide_knots="false" />
    <clipPath
       clipPathUnits="userSpaceOnUse"
       id="clipPath1611">
      <g
         inkscape:groupmode="layer"
         id="g1621"
         inkscape:label="Shadow"
         style="opacity:0.2"
         transform="translate(-34.095242,-34.264956)">
        <path
           id="path1613"
           style="fill:#ffffff;fill-opacity:1;stroke-width:0.254683"
           inkscape:label="spades"
           d="m 83.78635,36.945015 a 14.122539,14.122539 0 0 0 -14.122649,14.12266 14.122539,14.122539 0 0 0 4.83846,10.629318 14.122539,14.122539 0 0 0 -0.33435,-0.16175 14.122539,14.122539 0 0 0 -0.61856,-0.29869 14.122539,14.122539 0 0 0 -0.76378,-0.31626 14.122539,14.122539 0 0 0 -0.63304,-0.23151 14.122539,14.122539 0 0 0 -0.83354,-0.23978 14.122539,14.122539 0 0 0 -0.61081,-0.15606 14.122539,14.122539 0 0 0 -0.96222,-0.1633 14.122539,14.122539 0 0 0 -0.51418,-0.078 14.122539,14.122539 0 0 0 -1.498099,-0.0842 14.122539,14.122539 0 0 0 -1.545643,0.0868 14.122539,14.122539 0 0 0 -1.002006,0.16639 14.122539,14.122539 0 0 0 -0.518831,0.0879 14.122539,14.122539 0 0 0 -1.080037,0.3018 14.122539,14.122539 0 0 0 -0.407727,0.11782 14.122539,14.122539 0 0 0 -1.086239,0.43563 14.122539,14.122539 0 0 0 -0.343648,0.14263 14.122539,14.122539 0 0 0 -1.064535,0.56844 14.122539,14.122539 0 0 0 -0.256832,0.13746 14.122539,14.122539 0 0 0 5.181596,-10.923878 14.122539,14.122539 0 0 0 -14.122652,-14.12266 14.122539,14.122539 0 0 0 -14.122652,14.12266 14.122539,14.122539 0 0 0 4.838464,10.629318 14.122539,14.122539 0 0 0 -6.768579,-1.72961 14.122539,14.122539 0 0 0 -14.122652,14.12265 14.122539,14.122539 0 0 0 14.122652,14.12266 14.122539,14.122539 0 0 0 12.526367,-7.62125 c -0.673175,11.31223 -6.376871,17.90744 -6.376871,17.90744 0,0 9.087486,-1.05643 19.674251,0.002 0,0 -6.482506,-8.23831 -5.91075,-17.66508 a 14.122539,14.122539 0 0 0 0.147277,0.23823 14.122539,14.122539 0 0 0 0.540019,0.87437 14.122539,14.122539 0 0 0 0.290938,0.40928 14.122539,14.122539 0 0 0 0.627869,0.80925 14.122539,14.122539 0 0 0 0.353984,0.39584 14.122539,14.122539 0 0 0 0.690397,0.71624 14.122539,14.122539 0 0 0 0.414961,0.37052 14.122539,14.122539 0 0 0 0.751893,0.62838 14.122539,14.122539 0 0 0 0.457336,0.32453 14.122539,14.122539 0 0 0 0.806669,0.54002 14.122539,14.122539 0 0 0 0.519348,0.28732 14.122539,14.122539 0 0 0 0.833541,0.43563 14.122539,14.122539 0 0 0 0.571025,0.23668 14.122539,14.122539 0 0 0 0.853694,0.33641 14.122539,14.122539 0 0 0 0.626835,0.18087 14.122539,14.122539 0 0 0 0.854729,0.23513 14.122539,14.122539 0 0 0 0.698665,0.11834 14.122539,14.122539 0 0 0 0.819071,0.13332 14.122539,14.122539 0 0 0 1.230933,0.0693 14.122539,14.122539 0 0 0 0.29714,0.0165 14.122539,14.122539 0 0 0 0.01447,-10e-4 14.122539,14.122539 0 0 0 1.52032,-0.0842 14.122539,14.122539 0 0 0 0.0036,0 14.122539,14.122539 0 0 0 0.0016,-5.2e-4 14.122539,14.122539 0 0 0 10.984858,-7.51685 c -0.678378,11.3007 -6.375318,17.88883 -6.375318,17.88883 0,0 9.087488,-1.05643 19.674248,0.002 0,0 -6.4825,-8.23831 -5.91075,-17.66508 a 14.122539,14.122539 0 0 0 12.38632,7.35569 14.122539,14.122539 0 0 0 14.12214,-14.12265 14.122539,14.122539 0 0 0 -14.12214,-14.12214 14.122539,14.122539 0 0 0 -7.3055,2.04484 14.122539,14.122539 0 0 0 5.1816,-10.923878 14.122539,14.122539 0 0 0 -14.12265,-14.12266 z" />
        <path
           id="path1615"
           style="opacity:1;fill:#fefefe;fill-opacity:1;stroke-width:0.254683"
           inkscape:label="spades"
           d="m 185.86421,182.8533 a 14.122539,14.122539 0 0 0 -14.12265,14.12266 14.122539,14.122539 0 0 0 4.83846,10.62932 14.122539,14.122539 0 0 0 -0.33435,-0.16175 14.122539,14.122539 0 0 0 -0.61856,-0.29869 14.122539,14.122539 0 0 0 -0.76378,-0.31626 14.122539,14.122539 0 0 0 -0.63304,-0.23151 14.122539,14.122539 0 0 0 -0.83354,-0.23978 14.122539,14.122539 0 0 0 -0.61081,-0.15606 14.122539,14.122539 0 0 0 -0.96222,-0.1633 14.122539,14.122539 0 0 0 -0.51418,-0.078 14.122539,14.122539 0 0 0 -1.4981,-0.0842 14.122539,14.122539 0 0 0 -1.54564,0.0868 14.122539,14.122539 0 0 0 -1.00201,0.16639 14.122539,14.122539 0 0 0 -0.51883,0.0879 14.122539,14.122539 0 0 0 -1.08003,0.3018 14.122539,14.122539 0 0 0 -0.40773,0.11782 14.122539,14.122539 0 0 0 -1.08624,0.43563 14.122539,14.122539 0 0 0 -0.34365,0.14263 14.122539,14.122539 0 0 0 -1.06453,0.56844 14.122539,14.122539 0 0 0 -0.25684,0.13746 14.122539,14.122539 0 0 0 5.1816,-10.92388 14.122539,14.122539 0 0 0 -14.12265,-14.12266 14.122539,14.122539 0 0 0 -14.12265,14.12266 14.122539,14.122539 0 0 0 4.83846,10.62932 14.122539,14.122539 0 0 0 -6.76858,-1.72961 14.122539,14.122539 0 0 0 -14.12265,14.12264 14.122539,14.122539 0 0 0 14.12265,14.12266 14.122539,14.122539 0 0 0 12.52637,-7.62125 c -0.67318,11.31223 -6.37687,17.90744 -6.37687,17.90744 0,0 9.08748,-1.05643 19.67425,0.002 0,0 -6.48251,-8.23831 -5.91075,-17.66508 a 14.122539,14.122539 0 0 0 0.14728,0.23823 14.122539,14.122539 0 0 0 0.54001,0.87437 14.122539,14.122539 0 0 0 0.29094,0.40928 14.122539,14.122539 0 0 0 0.62787,0.80925 14.122539,14.122539 0 0 0 0.35399,0.39584 14.122539,14.122539 0 0 0 0.69039,0.71624 14.122539,14.122539 0 0 0 0.41496,0.37052 14.122539,14.122539 0 0 0 0.7519,0.62838 14.122539,14.122539 0 0 0 0.45733,0.32453 14.122539,14.122539 0 0 0 0.80667,0.54002 14.122539,14.122539 0 0 0 0.51935,0.28732 14.122539,14.122539 0 0 0 0.83354,0.43563 14.122539,14.122539 0 0 0 0.57103,0.23668 14.122539,14.122539 0 0 0 0.85369,0.33641 14.122539,14.122539 0 0 0 0.62683,0.18087 14.122539,14.122539 0 0 0 0.85473,0.23513 14.122539,14.122539 0 0 0 0.69867,0.11834 14.122539,14.122539 0 0 0 0.81907,0.13332 14.122539,14.122539 0 0 0 1.23093,0.0693 14.122539,14.122539 0 0 0 0.29714,0.0165 14.122539,14.122539 0 0 0 0.0145,-0.001 14.122539,14.122539 0 0 0 1.52032,-0.0842 14.122539,14.122539 0 0 0 0.004,0 14.122539,14.122539 0 0 0 0.002,-5.2e-4 14.122539,14.122539 0 0 0 10.98486,-7.51685 c -0.67838,11.3007 -6.37532,17.88883 -6.37532,17.88883 0,0 9.08749,-1.05643 19.67425,0.002 0,0 -6.4825,-8.23831 -5.91075,-17.66508 a 14.122539,14.122539 0 0 0 12.38632,7.35569 14.122539,14.122539 0 0 0 14.12214,-14.12265 14.122539,14.122539 0 0 0 -14.12214,-14.12213 14.122539,14.122539 0 0 0 -7.3055,2.04484 14.122539,14.122539 0 0 0 5.1816,-10.92388 14.122539,14.122539 0 0 0 -14.12265,-14.12266 z" />
        <g
           id="g1619"
           transform="translate(4.507658,16.271588)">
          <path
             id="path1617"
             style="opacity:1;fill:#fefefe;fill-opacity:1;stroke-width:0.254683px"
             d="m 79.482297,20.96488 c -3.745597,-2.9e-5 -7.337457,1.487664 -9.985954,4.136182 -2.648497,2.648517 -4.136698,6.240874 -4.136698,9.98647 4.53e-4,0.499304 0.02815,0.995272 0.08062,1.486731 -0.05954,-0.08899 -0.123378,-0.17532 -0.185002,-0.263033 -0.06504,-0.09772 -0.134514,-0.192689 -0.202055,-0.288871 -0.06454,-0.09701 -0.133493,-0.191301 -0.200504,-0.286804 -0.06649,-0.10002 -0.137596,-0.197174 -0.206706,-0.295589 -0.06611,-0.09936 -0.136978,-0.195744 -0.205672,-0.293523 -0.06401,-0.09617 -0.132523,-0.189537 -0.198954,-0.28422 -0.06657,-0.100141 -0.137514,-0.197573 -0.206706,-0.296106 -0.06611,-0.09936 -0.13698,-0.195746 -0.205672,-0.293522 -0.06504,-0.09772 -0.134514,-0.192688 -0.202055,-0.288871 -0.06447,-0.09689 -0.133578,-0.190902 -0.200505,-0.286288 -0.06656,-0.100143 -0.137514,-0.197571 -0.206706,-0.296106 -0.06526,-0.09809 -0.135305,-0.193359 -0.203088,-0.289905 -0.06479,-0.09742 -0.134255,-0.191942 -0.201538,-0.287837 -0.06613,-0.09948 -0.136434,-0.196142 -0.205155,-0.294039 -0.06656,-0.100086 -0.138035,-0.197111 -0.207223,-0.295589 -0.06504,-0.09772 -0.134512,-0.192689 -0.202055,-0.288872 -0.06446,-0.09689 -0.133579,-0.1909 -0.200504,-0.286287 -0.06657,-0.100142 -0.137512,-0.197572 -0.206706,-0.296106 -0.06611,-0.09936 -0.136978,-0.195745 -0.205672,-0.293522 -0.06401,-0.09617 -0.132523,-0.189537 -0.198955,-0.28422 -0.06657,-0.100143 -0.137518,-0.197572 -0.20671,-0.296106 -0.0661,-0.09936 -0.136981,-0.19575 -0.205672,-0.293523 -0.06504,-0.09772 -0.134514,-0.192688 -0.202055,-0.288871 -0.06446,-0.09689 -0.133579,-0.1909 -0.200505,-0.286287 -0.06656,-0.100143 -0.137514,-0.197572 -0.206706,-0.296106 -0.06611,-0.09936 -0.136977,-0.195745 -0.205672,-0.293522 -0.06401,-0.09617 -0.132522,-0.189538 -0.198954,-0.284221 -0.06656,-0.100142 -0.137514,-0.197571 -0.206706,-0.296106 -0.06454,-0.09701 -0.133494,-0.191302 -0.200504,-0.286804 -0.06923,-0.104153 -0.142898,-0.205579 -0.214974,-0.307991 -0.06186,-0.09277 -0.128634,-0.182497 -0.192753,-0.273885 -0.06657,-0.100143 -0.137514,-0.197572 -0.206706,-0.296106 -0.513827,-0.7723 -1.105839,-1.498058 -1.771468,-2.163693 -2.648498,-2.648507 -6.240974,-4.136211 -9.986471,-4.136181 -3.745596,-3e-5 -7.337456,1.487674 -9.985954,4.136181 -2.648497,2.648508 -4.136698,6.240875 -4.136698,9.986471 0.0026,2.917072 0.911552,5.728757 2.551782,8.075476 0.06524,0.09853 0.135329,0.193983 0.203089,0.290938 0.06628,0.100105 0.137821,0.197107 0.206705,0.295589 0.0641,0.09675 0.13345,0.190022 0.199988,0.285254 0.0664,0.100326 0.137688,0.19741 0.206706,0.296106 0.06562,0.09905 0.136468,0.195026 0.204639,0.292489 0.06505,0.09818 0.135527,0.192767 0.203088,0.289388 0.06462,0.09754 0.134448,0.191834 0.201538,0.287838 0.0276,0.04169 0.05722,0.0821 0.08527,0.123506 -1.872302,-0.878072 -3.917943,-1.336343 -5.992916,-1.336869 -3.745596,-10e-5 -7.337436,1.487584 -9.985954,4.136182 -2.648507,2.648497 -4.136727,6.240874 -4.136698,9.98647 -2.4e-5,2.92235 0.909724,5.748814 2.565735,8.109066 0.06613,0.09948 0.136435,0.196142 0.205155,0.294039 0.06656,0.100085 0.138035,0.197111 0.207223,0.295589 0.06504,0.09772 0.134513,0.192688 0.202055,0.288871 0.06454,0.09701 0.133494,0.191304 0.200504,0.286804 0.06649,0.100021 0.137596,0.197174 0.206706,0.29559 0.06611,0.09936 0.136977,0.195744 0.205672,0.293522 0.06504,0.09772 0.134514,0.192688 0.202055,0.288871 0.06454,0.09701 0.133493,0.191302 0.200504,0.286804 0.0671,0.100937 0.139007,0.19887 0.208773,0.298173 0.06504,0.09772 0.134514,0.192689 0.202055,0.288872 0.06447,0.09689 0.133579,0.190899 0.200505,0.286287 0.06657,0.100142 0.137513,0.197572 0.206705,0.296106 0.06611,0.09936 0.136978,0.195746 0.205673,0.293522 0.06401,0.09617 0.132522,0.189537 0.198954,0.28422 0.06656,0.100143 0.137514,0.197572 0.206706,0.296106 0.06611,0.09936 0.136979,0.195749 0.205672,0.293523 0.06504,0.09772 0.134514,0.192687 0.202055,0.288871 0.06446,0.09689 0.133578,0.1909 0.200504,0.286287 0.06657,0.100141 0.137514,0.197573 0.206706,0.296106 0.06611,0.09936 0.136977,0.195745 0.205672,0.293522 0.06401,0.09617 0.132523,0.189538 0.198954,0.284221 0.06613,0.09948 0.136436,0.196143 0.205156,0.294039 0.065,0.09774 0.134549,0.192664 0.202055,0.288871 0.06813,0.102486 0.140994,0.202023 0.211873,0.302824 0.0011,0.0017 0.002,0.0035 0.0031,0.0052 0.06318,0.08978 0.124302,0.180838 0.189653,0.269235 0.06755,0.101719 0.139541,0.200695 0.209806,0.300756 0.06611,0.09936 0.136978,0.195746 0.205672,0.293523 0.06401,0.09617 0.132523,0.189538 0.198954,0.28422 0.06656,0.100142 0.137515,0.197572 0.206706,0.296106 0.06454,0.09701 0.133495,0.191304 0.200505,0.286804 0.06813,0.102485 0.140995,0.202024 0.211873,0.302824 0.0011,0.0017 0.002,0.0035 0.0031,0.0052 0.06319,0.08978 0.124302,0.180838 0.189653,0.269234 0.06755,0.101718 0.139542,0.200696 0.209806,0.300757 0.06455,0.09701 0.133492,0.1913 0.200504,0.286804 0.0671,0.100937 0.139007,0.19887 0.208773,0.298173 0.06504,0.09772 0.134514,0.192689 0.202055,0.288871 0.06454,0.09701 0.133496,0.191305 0.200505,0.286804 0.06813,0.102486 0.140994,0.202023 0.211873,0.302824 0.0011,0.0017 0.002,0.0035 0.0031,0.0052 0.06319,0.08978 0.124301,0.180838 0.189652,0.269234 0.06653,0.100169 0.137552,0.197545 0.206706,0.296106 0.06769,0.101832 0.139919,0.200589 0.210323,0.300757 0.06347,0.09532 0.13155,0.187778 0.197404,0.281636 0.06605,0.09936 0.13652,0.195741 0.205156,0.293523 0.06508,0.09786 0.134467,0.193064 0.202054,0.289388 0.06813,0.102484 0.140996,0.202024 0.211874,0.302824 0.0011,0.0017 0.002,0.0035 0.0031,0.0052 0.06319,0.08978 0.124302,0.180839 0.189653,0.269234 0.06755,0.101719 0.139542,0.200697 0.209806,0.300757 0.06455,0.09701 0.133492,0.191301 0.200505,0.286804 0.0671,0.100935 0.139006,0.198873 0.208773,0.298173 0.06504,0.09772 0.134514,0.19269 0.202054,0.288872 0.06454,0.09701 0.133495,0.191304 0.200505,0.286804 0.06649,0.100019 0.137598,0.197174 0.206706,0.295589 0.06526,0.09809 0.135306,0.19336 0.203088,0.289905 0.06582,0.09897 0.136248,0.195093 0.204639,0.292488 0.06454,0.09701 0.133493,0.191304 0.200504,0.286805 0.0671,0.100935 0.139009,0.198871 0.208773,0.298173 0.06504,0.09771 0.134514,0.192689 0.202055,0.288871 0.06454,0.09701 0.133495,0.191302 0.200505,0.286804 0.06649,0.10002 0.137596,0.197174 0.206705,0.295589 0.06611,0.09936 0.13698,0.195746 0.205672,0.293522 0.06401,0.09617 0.132523,0.189539 0.198955,0.284221 0.06612,0.09948 0.136437,0.196143 0.205155,0.294039 0.06656,0.100085 0.138035,0.197111 0.207223,0.295589 0.06504,0.09772 0.134514,0.192689 0.202055,0.288871 0.06446,0.09689 0.133578,0.190902 0.200504,0.286288 0.06656,0.10014 0.137514,0.197574 0.206706,0.296106 0.06611,0.09936 0.136977,0.195746 0.205672,0.293522 0.06401,0.09617 0.132523,0.189538 0.198954,0.28422 0.06613,0.09948 0.136436,0.196146 0.205156,0.294039 0.06656,0.100085 0.138035,0.197111 0.207222,0.295589 0.06504,0.09771 0.134514,0.19269 0.202055,0.288871 0.06446,0.09689 0.133579,0.190904 0.200505,0.286288 0.06656,0.100141 0.137513,0.197573 0.206705,0.296106 0.06611,0.09936 0.136978,0.195746 0.205673,0.293522 0.06401,0.09616 0.132522,0.18954 0.198954,0.28422 0.06613,0.09948 0.136436,0.196144 0.205155,0.294039 0.065,0.09774 0.13455,0.192666 0.202055,0.288871 0.06813,0.102483 0.140995,0.202027 0.211873,0.302824 0.0011,0.0017 0.002,0.0035 0.0031,0.0052 0.06319,0.08978 0.124302,0.180841 0.189653,0.269234 0.06755,0.101717 0.139541,0.200698 0.209806,0.300757 0.06611,0.09936 0.136979,0.195748 0.205672,0.293522 0.06401,0.09617 0.132523,0.189539 0.198954,0.284221 0.06605,0.09936 0.136522,0.195741 0.205156,0.293522 0.06508,0.09786 0.134467,0.193066 0.202055,0.289388 0.06813,0.102485 0.140996,0.202024 0.211873,0.302824 0.0011,0.0017 0.002,0.0035 0.0031,0.0052 0.06318,0.08978 0.124303,0.180839 0.189652,0.269234 0.06755,0.101717 0.139544,0.200699 0.209806,0.300757 0.06611,0.09936 0.136978,0.195746 0.205673,0.293522 0.0648,0.09736 0.133739,0.192005 0.201021,0.287838 0.06531,0.09819 0.135252,0.193263 0.203088,0.289905 0.06508,0.09786 0.134469,0.193065 0.202055,0.289388 0.06813,0.102483 0.140995,0.202026 0.211874,0.302824 0.0011,0.0017 0.002,0.0035 0.0031,0.0052 0.06319,0.08978 0.124302,0.18084 0.189653,0.269234 0.06755,0.101717 0.139541,0.200697 0.209806,0.300757 0.06454,0.09701 0.133494,0.191302 0.200504,0.286804 0.0671,0.100933 0.139007,0.198873 0.208773,0.298173 0.06504,0.09771 0.134516,0.19269 0.202055,0.288871 0.06454,0.09701 0.133495,0.191307 0.200505,0.286804 0.06813,0.102483 0.140996,0.202027 0.211873,0.302824 0.0011,0.0017 0.002,0.0035 0.0031,0.0052 0.06318,0.08978 0.124303,0.180841 0.189652,0.269234 0.06755,0.101716 0.139544,0.200698 0.209806,0.300757 0.06454,0.09701 0.133494,0.191302 0.200505,0.286804 0.06709,0.100934 0.139008,0.198873 0.208773,0.298173 0.06504,0.09771 0.134514,0.192691 0.202055,0.288871 0.06454,0.09701 0.133496,0.191305 0.200504,0.286805 0.06813,0.102483 0.140995,0.202025 0.211874,0.302823 0.0011,0.0017 0.002,0.0035 0.0031,0.0052 0.06319,0.08978 0.124302,0.18084 0.189653,0.269234 0.06755,0.101717 0.139543,0.200698 0.209806,0.300757 0.06454,0.09701 0.133495,0.191303 0.200505,0.286804 0.0671,0.100934 0.139008,0.198874 0.208772,0.298173 0.06504,0.09771 0.134514,0.192691 0.202055,0.288872 0.06446,0.09689 0.133581,0.190902 0.200505,0.286287 0.06656,0.100139 0.137514,0.197575 0.206705,0.296106 0.06611,0.09936 0.13698,0.195747 0.205673,0.293522 0.06504,0.09771 0.134514,0.192691 0.202055,0.288871 0.06454,0.09701 0.133494,0.191305 0.200504,0.28681 0.0671,0.10093 0.139007,0.19887 0.208773,0.29817 0.06504,0.0977 0.134516,0.19269 0.202055,0.28887 0.06446,0.0969 0.133579,0.1909 0.200504,0.28629 0.06656,0.10014 0.137516,0.19757 0.206706,0.2961 0.06611,0.0994 0.136978,0.19575 0.205672,0.29352 0.06504,0.0977 0.134516,0.1927 0.202055,0.28888 0.06454,0.097 0.133493,0.1913 0.200505,0.2868 0.06553,0.0986 0.135523,0.19443 0.203605,0.29146 0.06813,0.10248 0.140995,0.20202 0.211873,0.30282 0.0011,0.002 0.002,0.003 0.0031,0.005 0.06319,0.0898 0.124301,0.18084 0.189652,0.26923 0.06756,0.10172 0.139542,0.2007 0.209807,0.30076 0.06611,0.0994 0.136979,0.19575 0.205672,0.29352 0.06401,0.0962 0.132522,0.18954 0.198954,0.28422 0.06612,0.0995 0.136438,0.19615 0.205155,0.29404 0.065,0.0977 0.13455,0.19267 0.202055,0.28887 0.06812,0.10249 0.140997,0.20203 0.211874,0.30283 0.0011,0.002 0.002,0.004 0.0031,0.005 0.06318,0.0898 0.124304,0.18084 0.189653,0.26923 0.06755,0.10172 0.139543,0.2007 0.209806,0.30076 0.06611,0.0994 0.136978,0.19575 0.205672,0.29352 0.06504,0.0977 0.134516,0.19269 0.202055,0.28887 0.06447,0.0969 0.133579,0.1909 0.200505,0.28629 0.06561,0.0987 0.135441,0.19483 0.203605,0.29197 0.06813,0.10248 0.140997,0.20203 0.211873,0.30282 0.0011,0.002 0.002,0.004 0.0031,0.005 0.06318,0.0898 0.124303,0.18085 0.189652,0.26924 0.06755,0.10171 0.139544,0.2007 0.209807,0.30076 0.06454,0.097 0.133493,0.1913 0.200504,0.2868 0.0671,0.10093 0.139008,0.19887 0.208773,0.29817 0.06452,0.0969 0.133521,0.19086 0.200504,0.28629 0.06508,0.0979 0.13447,0.19307 0.202055,0.28939 0.06813,0.10248 0.140997,0.20203 0.211874,0.30282 0.0011,0.002 0.002,0.004 0.0031,0.005 0.06318,0.0898 0.124304,0.18084 0.189653,0.26924 0.06755,0.10171 0.139543,0.2007 0.209806,0.30075 0.0661,0.0994 0.136981,0.19575 0.205672,0.29353 0.0648,0.0974 0.13374,0.192 0.201022,0.28783 0.06531,0.0982 0.135253,0.19327 0.203088,0.28991 0.06508,0.0979 0.134469,0.19306 0.202055,0.28939 0.06812,0.10248 0.140997,0.20202 0.211873,0.30282 0.0011,0.002 0.002,0.004 0.0031,0.005 0.06318,0.0898 0.124303,0.18084 0.189652,0.26924 0.06755,0.10171 0.139544,0.20069 0.209807,0.30075 0.06454,0.097 0.133494,0.19131 0.200504,0.28681 0.0671,0.10093 0.139009,0.19887 0.208773,0.29817 0.06452,0.0969 0.13352,0.19086 0.200505,0.28629 0.06508,0.0979 0.134469,0.19306 0.202054,0.28938 0.06649,0.10002 0.137597,0.19718 0.206706,0.29559 0.06611,0.0994 0.13698,0.19575 0.205672,0.29353 0.06504,0.0977 0.134514,0.19269 0.202055,0.28887 0.06454,0.097 0.133495,0.1913 0.200505,0.2868 0.0671,0.10093 0.139008,0.19888 0.208773,0.29817 0.06452,0.0969 0.133521,0.19086 0.200504,0.28629 0.06508,0.0979 0.134469,0.19307 0.202055,0.28939 0.06649,0.10002 0.137598,0.19718 0.206706,0.29559 0.06611,0.0994 0.136979,0.19575 0.205672,0.29352 0.06504,0.0977 0.134516,0.19269 0.202055,0.28887 0.06454,0.097 0.133495,0.19131 0.200504,0.28681 0.06553,0.0986 0.135524,0.19443 0.203605,0.29145 0.06761,0.10171 0.140003,0.20019 0.210324,0.30024 0.06347,0.0953 0.131552,0.18778 0.197403,0.28164 0.06656,0.10014 0.137516,0.19757 0.206706,0.2961 0.06611,0.0994 0.13698,0.19575 0.205672,0.29353 0.06504,0.0977 0.134516,0.19269 0.202055,0.28887 0.06454,0.097 0.133495,0.1913 0.200505,0.2868 0.0671,0.10093 0.139008,0.19888 0.208773,0.29817 0.06504,0.0977 0.134515,0.1927 0.202054,0.28888 0.06446,0.0969 0.133581,0.1909 0.200505,0.28628 0.06656,0.10015 0.137516,0.19757 0.206706,0.29611 0.06611,0.0994 0.136979,0.19575 0.205672,0.29352 0.06504,0.0977 0.134516,0.1927 0.202055,0.28887 0.06446,0.0969 0.13358,0.19091 0.200504,0.28629 0.06561,0.0987 0.135438,0.19481 0.203605,0.29197 0.06813,0.10249 0.140997,0.20203 0.211874,0.30283 0.0011,0.002 0.002,0.003 0.0031,0.005 0.06318,0.0898 0.124304,0.18083 0.189653,0.26924 0.06609,0.0995 0.136476,0.19612 0.205155,0.29404 0.06866,0.10334 0.141968,0.20378 0.213424,0.30541 0.0011,0.002 0.002,0.003 0.0031,0.005 0.06318,0.0898 0.124303,0.18084 0.189652,0.26924 0.06755,0.10171 0.139544,0.2007 0.209806,0.30075 0.06549,0.0984 0.135572,0.19407 0.203606,0.29094 0.0661,0.0994 0.136981,0.19576 0.205672,0.29352 0.064,0.0962 0.132524,0.18954 0.198954,0.28422 0.06656,0.10014 0.137518,0.19758 0.206706,0.29611 0.06611,0.0994 0.136979,0.19576 0.205672,0.29352 0.06428,0.0966 0.132747,0.19019 0.199471,0.28526 0.06636,0.0998 0.13722,0.19685 0.206189,0.29507 0.06454,0.097 0.133498,0.1913 0.200505,0.2868 0.06813,0.10248 0.140996,0.20204 0.211873,0.30283 0.0011,0.002 0.002,0.003 0.0031,0.005 0.06318,0.0898 0.124303,0.18085 0.189652,0.26924 0.06755,0.10172 0.139544,0.20069 0.209806,0.30076 0.06446,0.0969 0.133582,0.19089 0.200505,0.28628 0.0682,0.1026 0.14091,0.20243 0.211873,0.30334 0.0011,0.002 0.002,0.004 0.0031,0.005 0.06318,0.0898 0.124303,0.18085 0.189652,0.26924 0.06704,0.10093 0.13855,0.19887 0.208256,0.29817 0.06607,0.0994 0.136498,0.19626 0.205156,0.29404 0.06562,0.0986 0.135951,0.19438 0.204122,0.29145 0.06549,0.0984 0.135571,0.19407 0.203605,0.29094 0.06454,0.097 0.133497,0.19132 0.200504,0.28681 0.0671,0.10094 0.139009,0.19886 0.208773,0.29817 0.06504,0.0977 0.134516,0.1927 0.202055,0.28887 0.0655,0.0984 0.13557,0.19406 0.203605,0.29094 0.06454,0.097 0.133494,0.19131 0.200505,0.2868 0.0671,0.10094 0.139008,0.19887 0.208773,0.29818 0.06401,0.0962 0.132524,0.18954 0.198954,0.28422 0.06612,0.0995 0.136438,0.19615 0.205155,0.29403 0.06656,0.10008 0.138037,0.19713 0.207223,0.29559 0.06504,0.0977 0.134515,0.19269 0.202055,0.28887 0.06446,0.0969 0.133582,0.1909 0.200504,0.28629 0.06656,0.10013 0.137516,0.19759 0.206706,0.29611 0.06713,0.1009 0.13897,0.19891 0.208773,0.29817 0.0011,0.002 0.002,0.004 0.0031,0.005 0.06318,0.0898 0.124306,0.18085 0.189653,0.26923 0.06652,0.10018 0.137556,0.19754 0.206705,0.29611 0.06718,0.10105 0.138922,0.19927 0.208773,0.29869 0.06452,0.0969 0.133523,0.19087 0.200505,0.28629 0.065,0.0977 0.134553,0.19267 0.202055,0.28887 0.06561,0.0987 0.135443,0.19481 0.203605,0.29197 0.06813,0.10247 0.140997,0.20203 0.211873,0.30282 0.0011,0.002 0.002,0.004 0.0031,0.005 0.06475,0.092 0.127278,0.18541 0.194303,0.27595 0.06508,0.0978 0.134469,0.19308 0.202055,0.28939 0.06649,0.10003 0.1376,0.19717 0.206706,0.29559 0.06605,0.0993 0.136521,0.19583 0.205155,0.29352 0.06405,0.0962 0.132989,0.18947 0.199471,0.28422 0.06605,0.0994 0.136522,0.19575 0.205156,0.29352 0.06715,0.101 0.138947,0.19934 0.208772,0.29869 0.06244,0.0938 0.12956,0.18463 0.194304,0.27699 0.06755,0.10171 0.139545,0.20071 0.209806,0.30076 0.0655,0.0984 0.135571,0.19406 0.203605,0.29094 0.0661,0.0993 0.136983,0.19576 0.205672,0.29352 0.06395,0.0961 0.132067,0.18961 0.198438,0.28422 0.06661,0.10021 0.137978,0.1975 0.207222,0.2961 0.0655,0.0984 0.135569,0.19406 0.203606,0.29094 0.06605,0.0993 0.136522,0.19584 0.205155,0.29352 0.06406,0.0963 0.132987,0.18946 0.199471,0.28422 0.06561,0.0987 0.135442,0.19483 0.203605,0.29198 0.06813,0.10247 0.140997,0.20203 0.211874,0.30282 0.0011,0.002 0.002,0.004 0.0031,0.005 0.06318,0.0898 0.124304,0.18085 0.189653,0.26923 0.06755,0.10173 0.139545,0.20069 0.209806,0.30076 0.06454,0.097 0.133495,0.1913 0.200505,0.2868 0.06812,0.10248 0.140998,0.20204 0.211873,0.30283 0.0011,0.002 0.002,0.003 0.0031,0.005 0.06475,0.092 0.12728,0.18541 0.194303,0.27596 0.065,0.0977 0.134553,0.19267 0.202055,0.28887 0.06609,0.0994 0.136474,0.19618 0.205155,0.29404 0.06564,0.0987 0.135931,0.19431 0.204122,0.29145 0.06603,0.0993 0.136544,0.19583 0.205156,0.29352 0.06454,0.097 0.133498,0.19132 0.200504,0.28681 0.0671,0.10094 0.139008,0.19886 0.208773,0.29817 0.06503,0.0977 0.134517,0.1927 0.202055,0.28887 0.06549,0.0984 0.135571,0.19407 0.203605,0.29094 0.0661,0.0994 0.136981,0.19576 0.205672,0.29352 0.064,0.0962 0.132525,0.18953 0.198954,0.28422 0.06553,0.0986 0.135528,0.19443 0.203605,0.29146 0.06612,0.0995 0.136438,0.19615 0.205156,0.29404 0.06599,0.0992 0.136587,0.19537 0.205155,0.293 0.06562,0.0987 0.135952,0.19437 0.204122,0.29146 0.06454,0.097 0.133499,0.1913 0.200505,0.2868 0.06649,0.10001 0.137598,0.19719 0.206706,0.29559 0.06713,0.1009 0.138972,0.19891 0.208772,0.29817 0.0011,0.002 0.002,0.004 0.0031,0.005 0.06318,0.0898 0.124305,0.18085 0.189652,0.26924 0.06652,0.10017 0.137556,0.19753 0.206706,0.2961 0.06718,0.10106 0.138922,0.19928 0.208773,0.29869 0.06452,0.0969 0.133523,0.19087 0.200504,0.28629 0.06456,0.0971 0.133476,0.19124 0.200505,0.2868 0.06607,0.0995 0.136498,0.19618 0.205155,0.29404 0.06813,0.10248 0.140997,0.20204 0.211874,0.30283 0.0011,0.002 0.002,0.003 0.0031,0.005 0.06475,0.092 0.127279,0.18541 0.194304,0.27596 0.06507,0.0978 0.134471,0.19307 0.202055,0.28938 0.06649,0.10003 0.1376,0.19717 0.206705,0.29559 0.06605,0.0993 0.136524,0.19583 0.205156,0.29353 0.06508,0.0978 0.13498,0.19262 0.202571,0.28887 0.06446,0.0969 0.133581,0.19091 0.200505,0.28628 0.06717,0.10107 0.138924,0.19926 0.208773,0.29869 0.064,0.0962 0.132526,0.18954 0.198954,0.28422 0.06656,0.10013 0.137518,0.19759 0.206706,0.29611 0.06549,0.0984 0.135572,0.19406 0.203605,0.29094 0.0661,0.0994 0.136982,0.19576 0.205672,0.29352 0.064,0.0962 0.132526,0.18954 0.198954,0.28422 0.06656,0.10013 0.137517,0.19758 0.206706,0.29611 0.06713,0.1009 0.13897,0.19891 0.208773,0.29817 0.0011,0.002 0.002,0.003 0.0031,0.005 0.06318,0.0898 0.124305,0.18085 0.189652,0.26923 0.06557,0.0987 0.135481,0.19479 0.203605,0.29197 0.06712,0.10106 0.138465,0.19928 0.208256,0.29869 0.06707,0.10085 0.139033,0.19844 0.208773,0.29766 0.06347,0.0953 0.131553,0.18779 0.197404,0.28164 0.06656,0.10014 0.137517,0.19756 0.206706,0.2961 0.0661,0.0994 0.136982,0.19575 0.205672,0.29352 0.06583,0.0989 0.135731,0.19517 0.204122,0.29249 0.0642,0.0964 0.133349,0.18981 0.199988,0.28474 0.06405,0.0963 0.132476,0.18992 0.198954,0.28474 0.06759,0.10177 0.1395,0.20064 0.209806,0.30075 0.0651,0.0979 0.134959,0.19256 0.202572,0.28888 0.06559,0.0986 0.135465,0.19439 0.203605,0.29145 0.065,0.0977 0.134553,0.19268 0.202055,0.28887 0.06709,0.10093 0.13901,0.19888 0.208773,0.29818 0.06503,0.0977 0.134517,0.19269 0.202054,0.28887 0.06549,0.0984 0.135574,0.19406 0.203606,0.29093 0.0661,0.0993 0.136981,0.19576 0.205672,0.29353 0.06479,0.0974 0.133741,0.19199 0.201021,0.28783 0.06583,0.099 0.136247,0.19511 0.204639,0.29249 0.06454,0.097 0.133496,0.19132 0.200504,0.28681 0.06652,0.10006 0.137559,0.19713 0.206706,0.29559 0.06562,0.0987 0.135953,0.19436 0.204122,0.29145 0.06454,0.097 0.133498,0.19131 0.200504,0.28681 0.06812,0.10247 0.140999,0.20203 0.211874,0.30282 0.0011,0.002 0.002,0.003 0.0031,0.005 0.06475,0.092 0.127281,0.18541 0.194304,0.27595 0.06494,0.0976 0.134097,0.19275 0.201538,0.28887 0.06558,0.0987 0.135988,0.19434 0.204122,0.29146 0.0682,0.1026 0.140912,0.20243 0.211873,0.30334 0.0011,0.002 0.002,0.003 0.0031,0.005 0.06318,0.0898 0.124305,0.18085 0.189652,0.26924 0.06608,0.0995 0.136478,0.19613 0.205156,0.29404 0.06607,0.0994 0.136497,0.19618 0.205155,0.29404 0.06812,0.10247 0.140999,0.20203 0.211874,0.30282 0.0011,0.002 0.002,0.004 0.0031,0.005 0.06475,0.092 0.12728,0.18541 0.194303,0.27595 0.06507,0.0978 0.134471,0.19308 0.202055,0.28939 0.06709,0.10094 0.139011,0.19886 0.208773,0.29817 0.06503,0.0977 0.134518,0.1927 0.202055,0.28887 0.06549,0.0984 0.135572,0.19406 0.203605,0.29094 0.06454,0.097 0.133497,0.19131 0.200505,0.2868 0.06709,0.10095 0.13901,0.19887 0.208772,0.29818 0.064,0.0962 0.132527,0.18954 0.198955,0.28422 0.06612,0.0995 0.136438,0.19615 0.205155,0.29404 0.06595,0.0992 0.136628,0.19542 0.205156,0.293 0.0661,0.0993 0.136984,0.19576 0.205672,0.29352 0.064,0.0962 0.132526,0.18954 0.198954,0.28422 0.06656,0.10013 0.137519,0.19759 0.206706,0.29611 0.06713,0.1009 0.13897,0.19891 0.208773,0.29817 0.0011,0.002 0.002,0.004 0.0031,0.005 0.06304,0.0896 0.123936,0.18052 0.189136,0.26872 0.06665,0.10037 0.137932,0.19786 0.207222,0.29662 0.06561,0.0987 0.13544,0.19483 0.203606,0.29197 0.06761,0.1017 0.140004,0.2002 0.210323,0.30024 0.06347,0.0953 0.131554,0.18779 0.197404,0.28164 0.06656,0.10015 0.137517,0.19757 0.206705,0.29611 0.0661,0.0994 0.136984,0.19575 0.205673,0.29352 0.06503,0.0977 0.134517,0.1927 0.202054,0.28887 0.06549,0.0984 0.135575,0.19406 0.203606,0.29094 0.06446,0.0969 0.133579,0.19091 0.200504,0.28629 0.06712,0.10097 0.138467,0.19934 0.208256,0.29868 0.06405,0.0962 0.132989,0.18948 0.199471,0.28423 0.06612,0.0995 0.13644,0.19615 0.205156,0.29403 0.06448,0.0969 0.133559,0.19085 0.200504,0.28629 0.06763,0.10178 0.139982,0.20063 0.210323,0.30076 0.06503,0.0977 0.134518,0.1927 0.202055,0.28887 0.06549,0.0984 0.135573,0.19406 0.203605,0.29094 0.06605,0.0993 0.136526,0.19584 0.205156,0.29352 0.064,0.0962 0.13253,0.18954 0.198954,0.28422 0.06661,0.10021 0.137979,0.19751 0.207222,0.29611 0.06713,0.10089 0.138971,0.19891 0.208773,0.29817 0.06373,0.0957 0.131796,0.18849 0.197921,0.28267 0.06479,0.0974 0.134257,0.19193 0.201538,0.28784 0.06561,0.0987 0.135445,0.19483 0.203605,0.29197 0.06812,0.10247 0.140999,0.20204 0.211874,0.30282 0.0011,0.002 0.002,0.004 0.0031,0.005 0.06475,0.092 0.12728,0.18541 0.194303,0.27595 0.06507,0.0978 0.134471,0.19308 0.202055,0.28939 0.06545,0.0985 0.135612,0.19402 0.203605,0.29094 0.0682,0.1026 0.140913,0.20243 0.211874,0.30334 0.0011,0.002 0.002,0.003 0.0031,0.005 0.06475,0.092 0.127281,0.18541 0.194304,0.27595 0.06405,0.0963 0.132477,0.18992 0.198954,0.28474 0.06816,0.10263 0.140955,0.20239 0.211873,0.30334 0.06531,0.0981 0.134737,0.19333 0.202572,0.2899 0.06529,0.0981 0.135279,0.19335 0.203088,0.28991 0.06454,0.097 0.133499,0.19131 0.200505,0.2868 0.06709,0.10093 0.139012,0.19887 0.208773,0.29817 0.06503,0.0977 0.134517,0.19271 0.202055,0.28888 0.06549,0.0984 0.135574,0.19406 0.203605,0.29093 0.06454,0.097 0.133495,0.19132 0.200504,0.28681 0.06709,0.10094 0.139011,0.19886 0.208773,0.29817 0.064,0.0962 0.132526,0.18954 0.198954,0.28422 0.06612,0.0995 0.136441,0.19616 0.205156,0.29404 0.06707,0.10085 0.139033,0.19844 0.208773,0.29766 0.06426,0.0965 0.132769,0.19025 0.199471,0.28525 0.06479,0.0974 0.134258,0.19194 0.201538,0.28784 0.06656,0.10013 0.137518,0.19758 0.206705,0.2961 0.06713,0.1009 0.138972,0.19892 0.208773,0.29818 0.0011,0.002 0.002,0.003 0.0031,0.005 0.06304,0.0896 0.123936,0.18053 0.189136,0.26872 0.06665,0.10037 0.137932,0.19787 0.207222,0.29662 0.0682,0.10261 0.140913,0.20243 0.211873,0.30335 0.0011,0.002 0.002,0.003 0.0031,0.005 0.06318,0.0898 0.124306,0.18085 0.189653,0.26924 0.066,0.0994 0.136563,0.19572 0.205155,0.29352 0.06614,0.0996 0.136418,0.19659 0.205155,0.29456 0.06812,0.10247 0.141,0.20203 0.211874,0.30282 0.0011,0.002 0.002,0.003 0.0031,0.005 0.06475,0.092 0.127281,0.18541 0.194304,0.27595 0.06602,0.0993 0.136546,0.19582 0.205155,0.29352 0.06446,0.0969 0.133581,0.19092 0.200505,0.28629 0.06712,0.10097 0.138467,0.19935 0.208258,0.29869 0.0651,0.0978 0.13498,0.19262 0.20257,0.28887 0.0645,0.097 0.1335,0.19131 0.2005,0.2868 0.0665,0.10007 0.13756,0.19713 0.20671,0.29559 0.0646,0.0971 0.13396,0.19123 0.20102,0.28681 0.0666,0.10013 0.13752,0.19758 0.20671,0.2961 0.0655,0.0984 0.13557,0.19407 0.2036,0.29094 0.0661,0.0994 0.13699,0.19576 0.20567,0.29352 0.064,0.0962 0.13253,0.18954 0.19896,0.28422 0.0666,0.10013 0.13752,0.19759 0.2067,0.29611 0.0671,0.1009 0.13897,0.19891 0.20878,0.29817 0.0627,0.0941 0.1298,0.18535 0.19482,0.27802 0.0653,0.0983 0.13521,0.19363 0.20308,0.29042 0.0667,0.10032 0.13742,0.19792 0.20671,0.29663 0.0671,0.10084 0.13903,0.19844 0.20877,0.29765 0.0645,0.0969 0.13355,0.19094 0.20051,0.28629 0.0645,0.097 0.13349,0.19132 0.2005,0.2868 0.0655,0.0986 0.13553,0.19443 0.20361,0.29146 0.0681,0.10247 0.141,0.20204 0.21187,0.30282 10e-4,0.002 0.002,0.004 0.003,0.005 0.0648,0.092 0.12728,0.18541 0.1943,0.27595 0.0641,0.0963 0.13248,0.18993 0.19896,0.28474 0.0687,0.10341 0.14195,0.20371 0.21342,0.30541 0.0643,0.0965 0.13277,0.19025 0.19947,0.28525 0.0653,0.0982 0.13526,0.19327 0.20309,0.28991 0.0651,0.0978 0.13448,0.19307 0.20206,0.28938 0.0671,0.10094 0.13901,0.19888 0.20877,0.29818 0.065,0.0977 0.13452,0.1927 0.20205,0.28887 0.0655,0.0984 0.13558,0.19406 0.20361,0.29094 0.0645,0.0969 0.13358,0.19091 0.2005,0.28628 0.0671,0.10098 0.13847,0.19935 0.20826,0.29869 0.0651,0.0978 0.13498,0.19263 0.20257,0.28888 0.0645,0.097 0.1335,0.19131 0.20051,0.2868 0.0676,0.1017 0.14,0.2002 0.21032,0.30024 0.0635,0.0953 0.13155,0.1878 0.1974,0.28164 0.0656,0.0987 0.13545,0.19482 0.20361,0.29197 0.0665,0.10001 0.1376,0.19718 0.2067,0.29559 0.0671,0.10089 0.13898,0.19891 0.20878,0.29817 0.001,0.002 0.002,0.003 0.003,0.005 0.063,0.0896 0.12394,0.18052 0.18913,0.26872 0.0666,0.10036 0.13794,0.19786 0.20723,0.29662 0.0682,0.1026 0.14091,0.20243 0.21187,0.30334 10e-4,0.002 0.002,0.003 0.003,0.005 0.0648,0.092 0.12728,0.18541 0.1943,0.27595 0.0639,0.0961 0.13211,0.1896 0.19844,0.28422 0.0667,0.10048 0.13785,0.19827 0.20722,0.29714 0.0676,0.1017 0.14001,0.2002 0.21032,0.30024 0.0645,0.0968 0.13355,0.19094 0.20051,0.28629 0.0645,0.097 0.1335,0.19131 0.2005,0.2868 0.0671,0.10093 0.13902,0.19887 0.20878,0.29817 0.0658,0.0989 0.13573,0.19517 0.20412,0.29249 0.0642,0.0964 0.13335,0.18981 0.19999,0.28474 0.0651,0.0979 0.13446,0.19307 0.20205,0.28939 0.0665,0.10005 0.13756,0.19714 0.20671,0.29559 0.0654,0.0983 0.13518,0.19369 0.20309,0.29042 0.0653,0.0982 0.13525,0.19327 0.20308,0.2899 0.066,0.0993 0.13655,0.19583 0.20516,0.29352 0.0661,0.0994 0.13698,0.19577 0.20567,0.29353 0.064,0.0962 0.13253,0.18954 0.19896,0.28422 0.0666,0.10013 0.13751,0.19758 0.2067,0.2961 0.0671,0.1009 0.13898,0.19892 0.20877,0.29818 0.001,0.002 0.002,0.003 0.003,0.005 0.062,0.0882 0.1219,0.17776 0.18604,0.26459 0.0682,0.10271 0.14096,0.20231 0.21187,0.30334 0.0651,0.0978 0.13447,0.19307 0.20206,0.28939 0.0676,0.10169 0.14,0.2002 0.21032,0.30024 0.064,0.0961 0.13255,0.1891 0.19896,0.2837 0.0651,0.0978 0.13447,0.19308 0.20205,0.28939 0.0655,0.0986 0.13553,0.19443 0.20361,0.29145 0.0681,0.10248 0.141,0.20204 0.21187,0.30283 0.001,0.002 0.002,0.003 0.003,0.005 0.0648,0.092 0.12728,0.18541 0.1943,0.27596 0.065,0.0977 0.13456,0.19268 0.20206,0.28887 0.0671,0.10097 0.13846,0.19935 0.20825,0.29869 0.0651,0.0978 0.13498,0.19262 0.20257,0.28887 0.0645,0.097 0.1335,0.19131 0.20051,0.2868 0.065,0.0978 0.13453,0.19261 0.20205,0.28887 0.0676,0.10178 0.13999,0.20064 0.21033,0.30076 0.065,0.0977 0.13452,0.1927 0.20205,0.28887 0.0655,0.0984 0.13558,0.19407 0.20361,0.29094 0.066,0.0993 0.13652,0.19584 0.20515,0.29352 0.064,0.0962 0.13253,0.18955 0.19896,0.28422 0.0674,0.10141 0.1392,0.19997 0.20929,0.29973 0.0653,0.0981 0.1358,0.19287 0.2036,0.28938 0.063,0.0946 0.13053,0.1864 0.19585,0.27957 0.0665,0.10015 0.13755,0.19757 0.20671,0.29611 0.0656,0.0987 0.13545,0.19483 0.20361,0.29197 0.0681,0.10247 0.141,0.20204 0.21187,0.30283 10e-4,0.002 0.002,0.003 0.003,0.005 0.0648,0.092 0.12728,0.18541 0.1943,0.27596 0.0649,0.0976 0.13409,0.19275 0.20154,0.28887 0.0657,0.0988 0.13591,0.19475 0.20412,0.29197 0.0681,0.10247 0.141,0.20203 0.21187,0.30282 10e-4,0.002 0.002,0.004 0.003,0.005 0.0647,0.092 0.12729,0.18541 0.19431,0.27595 0.0639,0.0961 0.13209,0.1896 0.19843,0.28422 0.0683,0.10283 0.14135,0.20272 0.21239,0.30386 0.0653,0.0981 0.13474,0.19333 0.20258,0.2899 0.0648,0.0973 0.13428,0.19152 0.20153,0.28733 0.065,0.0977 0.13455,0.19267 0.20206,0.28887 0.0672,0.10105 0.13893,0.19927 0.20877,0.29869 0.065,0.0977 0.13452,0.1927 0.20206,0.28887 0.0655,0.0984 0.13557,0.19406 0.2036,0.29094 0.0645,0.0969 0.13357,0.19091 0.20051,0.28628 0.0666,0.10018 0.13748,0.19754 0.2067,0.29611 0.0656,0.0987 0.13592,0.19432 0.20412,0.29145 0.0643,0.0966 0.13278,0.19018 0.19947,0.28526 0.0664,0.0999 0.13719,0.1968 0.20619,0.29507 0.0666,0.10006 0.13805,0.19713 0.20723,0.29559 0.0656,0.0986 0.13593,0.19439 0.20412,0.29146 0.0634,0.0952 0.13111,0.18785 0.19688,0.28163 0.515,0.77488 1.10883,1.50285 1.77664,2.17041 v 0.001 c 2.44014,2.43921 5.68086,3.89066 9.10384,4.10414 -0.0278,0.0335 -0.0997,0.1235 -0.0997,0.1235 h 0.002 c 0.0166,-0.002 0.18491,-0.0205 0.47543,-0.0491 -0.17138,0.22181 -0.27337,0.34107 -0.27337,0.34107 h 0.001 c 0.0167,-0.002 0.18533,-0.0209 0.47594,-0.0496 -0.17115,0.2215 -0.27285,0.34106 -0.27285,0.34106 h 0.001 c 0.0167,-0.002 0.18453,-0.021 0.47491,-0.0496 -0.17117,0.22148 -0.27285,0.34055 -0.27285,0.34055 h 0.002 c 0.0167,-0.002 0.18424,-0.0211 0.47439,-0.0496 -0.17113,0.22144 -0.27233,0.34055 -0.27233,0.34055 h 0.002 c 0.0167,-0.002 0.18481,-0.021 0.47542,-0.0496 -0.17099,0.22133 -0.27216,0.33975 -0.27285,0.34055 0.0168,-0.002 0.18581,-0.021 0.47697,-0.0496 -0.1716,0.22212 -0.27388,0.34158 -0.27388,0.34158 h 10e-4 c 0.0168,-0.002 0.18466,-0.021 0.47491,-0.0496 -0.17117,0.22148 -0.27286,0.34055 -0.27286,0.34055 h 0.002 c 0.0168,-0.002 0.18438,-0.0206 0.47439,-0.0491 -0.17091,0.22114 -0.27233,0.34003 -0.27233,0.34003 h 0.002 c 0.0168,-0.002 0.18467,-0.0205 0.47491,-0.0491 -0.17076,0.22101 -0.27113,0.33924 -0.27182,0.34003 0.017,-0.002 0.18515,-0.0205 0.47594,-0.0491 -0.17137,0.22181 -0.27337,0.34107 -0.27337,0.34107 h 0.001 c 0.0169,-0.002 0.18482,-0.021 0.4749,-0.0496 -0.17117,0.22148 -0.27285,0.34106 -0.27285,0.34106 h 0.002 c 0.0169,-0.002 0.18511,-0.0215 0.47542,-0.0501 -0.17137,0.22181 -0.27337,0.34107 -0.27337,0.34107 h 0.002 c 0.0169,-0.002 0.18489,-0.0211 0.47542,-0.0496 -0.17099,0.22133 -0.27164,0.33975 -0.27233,0.34055 0.0171,-0.002 0.18559,-0.021 0.47646,-0.0496 -0.1716,0.22211 -0.27337,0.34158 -0.27337,0.34158 h 5.1e-4 c 0.0171,-0.002 0.18497,-0.021 0.47491,-0.0496 -0.17116,0.22147 -0.27285,0.34055 -0.27285,0.34055 h 0.002 c 0.0171,-0.002 0.18473,-0.021 0.4749,-0.0496 -0.17114,0.22148 -0.27285,0.34055 -0.27285,0.34055 h 0.002 c 0.0171,-0.002 0.18473,-0.021 0.4749,-0.0496 -0.17114,0.22145 -0.27285,0.34054 -0.27285,0.34054 h 0.001 c 0.0172,-0.002 0.18544,-0.0206 0.47594,-0.0491 -0.17137,0.22179 -0.27286,0.34107 -0.27286,0.34107 h 0.001 c 0.0173,-0.002 0.18451,-0.0211 0.47439,-0.0496 -0.17116,0.22147 -0.27285,0.34054 -0.27285,0.34054 h 0.002 c 0.0173,-0.002 0.18503,-0.021 0.47491,-0.0496 -0.17114,0.22149 -0.27285,0.34055 -0.27285,0.34055 h 0.002 c 0.0173,-0.002 0.18531,-0.021 0.47542,-0.0496 -0.17138,0.22178 -0.27337,0.34107 -0.27337,0.34107 h 0.001 c 0.0174,-0.002 0.18583,-0.0211 0.47646,-0.0496 -0.17099,0.22133 -0.27164,0.33975 -0.27233,0.34055 0.0174,-0.002 0.18525,-0.0211 0.47542,-0.0496 -0.17163,0.22211 -0.27337,0.34158 -0.27337,0.34158 h 0.002 c 0.0174,-0.002 0.18496,-0.021 0.47491,-0.0496 -0.17115,0.22148 -0.27285,0.34055 -0.27285,0.34055 h 0.002 c 0.0174,-0.002 0.18497,-0.0211 0.47491,-0.0496 -0.17114,0.22145 -0.27285,0.34054 -0.27285,0.34054 h 0.001 c 0.0176,-0.002 0.18625,-0.021 0.47697,-0.0496 -0.17099,0.22135 -0.27216,0.33976 -0.27285,0.34055 0.0176,-0.002 0.18516,-0.0206 0.47543,-0.0491 -0.17141,0.22181 -0.27337,0.34106 -0.27337,0.34106 h 0.002 c 0.0175,-0.002 0.18458,-0.0211 0.47438,-0.0496 -0.17113,0.22147 -0.27285,0.34055 -0.27285,0.34055 h 0.002 c 0.0175,-0.002 0.1851,-0.0211 0.47491,-0.0496 -0.17115,0.22149 -0.27285,0.34055 -0.27285,0.34055 h 0.001 c 0.0177,-0.002 0.18558,-0.0211 0.47594,-0.0496 -0.17115,0.22147 -0.27285,0.34107 -0.27285,0.34107 h 0.001 c 0.0177,-0.002 0.18529,-0.0216 0.47542,-0.0501 -0.17154,0.22201 -0.27336,0.3421 -0.27336,0.3421 h 0.002 c 0.0177,-0.002 0.18501,-0.0216 0.47491,-0.0501 -0.17137,0.22179 -0.27285,0.34107 -0.27285,0.34107 h 0.002 c 0.0177,-0.002 0.18526,-0.0206 0.4749,-0.0491 -0.17101,0.2213 -0.27285,0.34003 -0.27285,0.34003 h 0.001 c 0.0178,-0.002 0.18574,-0.0211 0.47594,-0.0496 -0.17114,0.22146 -0.27286,0.34055 -0.27286,0.34055 h 0.001 c 0.0178,-0.002 0.18545,-0.0211 0.47542,-0.0496 -0.17153,0.22199 -0.27337,0.34158 -0.27337,0.34158 l 0.002,-0.001 c 0.14,-0.016 9.16771,-1.0479 19.6727,0.003 l -0.001,-0.001 c -0.005,-0.006 -0.11267,-0.15053 -0.21704,-0.29197 0.005,4.5e-4 0.009,5.8e-4 0.0134,0.001 -0.005,-0.006 -0.11314,-0.15046 -0.21756,-0.29197 0.005,4.8e-4 0.01,5.5e-4 0.0145,0.001 -0.005,-0.006 -0.11313,-0.15046 -0.21755,-0.29197 0.005,4.5e-4 0.009,5.8e-4 0.0134,0.001 -0.004,-0.005 -0.1044,-0.14101 -0.17208,-0.23151 -0.0132,-0.0197 -0.0268,-0.0402 -0.0403,-0.0605 0.003,3.1e-4 0.006,2.1e-4 0.009,5.2e-4 l -0.001,-5.2e-4 c -0.002,-0.002 -0.062,-0.0838 -0.077,-0.10335 -1.74324,-2.63547 -5.41289,-9.0923 -5.02243,-16.27498 0.018,0.0255 0.0361,0.0511 0.0543,0.0765 0.009,0.0135 0.0173,0.0274 0.0263,0.0408 v 5.1e-4 c 0.057,0.0828 0.11624,0.1639 0.17467,0.24547 0.0101,0.0152 0.0193,0.0309 0.0295,0.046 v 0.001 c 0.0566,0.0825 0.1161,0.16362 0.17466,0.24547 0.01,0.0147 0.0187,0.0298 0.0284,0.0444 l 5.1e-4,0.001 c 0.0557,0.0817 0.11453,0.16102 0.17208,0.24133 0.0106,0.016 0.0203,0.0326 0.031,0.0486 l 0.001,0.001 c 0.094,0.138 0.19091,0.27373 0.28991,0.40773 l 0.001,0.001 c 0.199,0.277 0.40835,0.54725 0.62735,0.80925 l 0.001,0.001 c 0.115,0.133 0.23295,0.26481 0.35295,0.39481 0.222,0.24699 0.45188,0.48523 0.68988,0.71623 l 10e-4,0.001 c 0.136,0.125 0.27393,0.24897 0.41393,0.36897 l 10e-4,0.001 c 0.243,0.218 0.49386,0.42687 0.75086,0.62787 h 0.001 c 0.15,0.111 0.3023,0.21901 0.4563,0.32401 l 0.002,0.001 c 0.262,0.189 0.53112,0.36899 0.80512,0.53899 l 0.001,0.001 c 0.171,0.099 0.34432,0.1948 0.51832,0.2868 h 0.002 c 0.272,0.155 0.54999,0.30012 0.83199,0.43512 l 0.001,0.001 c 0.188,0.083 0.37799,0.16065 0.56999,0.23565 l 0.002,0.001 c 0.28,0.121 0.56414,0.23338 0.85214,0.33538 l 0.001,10e-4 c 0.207,0.065 0.4158,0.12484 0.6258,0.17984 l 0.001,0.001 c 0.282,0.087 0.56718,0.1651 0.85318,0.2341 l 0.002,0.001 c 0.231,0.045 0.46411,0.0838 0.69711,0.11782 h 0.002 c 0.271,0.052 0.54301,0.0968 0.81701,0.13281 h 0.001 c 0.21668,0.0217 0.43388,0.0375 0.65112,0.0491 -0.0307,0.0371 -0.1049,0.13023 -0.1049,0.13023 h 0.001 c 0.008,-10e-4 0.18105,-0.0206 0.47543,-0.0496 -0.17099,0.22126 -0.27234,0.34055 -0.27234,0.34055 0.009,-0.001 0.18181,-0.0205 0.47697,-0.0496 -0.17118,0.22155 -0.27336,0.34054 -0.27336,0.34054 0.009,-9e-4 0.18175,-0.0201 0.47645,-0.0491 -0.17062,0.22082 -0.27164,0.33924 -0.27233,0.34003 0.009,-9e-4 0.18147,-0.0201 0.47594,-0.0491 -0.17134,0.22175 -0.27285,0.34106 -0.27285,0.34106 h 0.001 c 0.009,-0.001 0.18127,-0.0205 0.47594,-0.0496 -0.17122,0.22159 -0.27285,0.34055 -0.27285,0.34055 0.009,-0.001 0.18197,-0.0205 0.47697,-0.0496 -0.1712,0.2216 -0.27285,0.34055 -0.27285,0.34055 0.009,-10e-4 0.18124,-0.0206 0.47594,-0.0496 -0.17123,0.22157 -0.27337,0.34055 -0.27337,0.34055 h 0.001 c 0.009,-9.1e-4 0.18147,-0.0201 0.47594,-0.0491 -0.17136,0.22177 -0.27286,0.34158 -0.27286,0.34158 h 10e-4 c 0.009,-0.001 0.18096,-0.0206 0.47542,-0.0496 -0.17098,0.22126 -0.27233,0.34055 -0.27233,0.34055 0.009,-10e-4 0.18166,-0.0205 0.47645,-0.0496 -0.17096,0.22126 -0.27233,0.34054 -0.27233,0.34054 0.009,-0.001 0.18114,-0.0201 0.47542,-0.0491 -0.17085,0.22106 -0.27233,0.34003 -0.27233,0.34003 h 5.1e-4 c 0.009,-9e-4 0.18169,-0.0206 0.47646,-0.0496 -0.17136,0.22179 -0.27337,0.34158 -0.27337,0.34158 h 0.001 c 0.009,-0.001 0.18141,-0.0205 0.47594,-0.0496 -0.1712,0.22157 -0.27285,0.34054 -0.27285,0.34054 0.009,-0.001 0.18211,-0.0205 0.47698,-0.0496 -0.17119,0.22159 -0.27286,0.34055 -0.27286,0.34055 0.009,-0.001 0.18132,-0.0206 0.47594,-0.0496 -0.17122,0.22156 -0.27285,0.34055 -0.27285,0.34055 h 0.001 c 0.009,-0.001 0.18166,-0.0206 0.47645,-0.0496 -0.17159,0.22211 -0.27388,0.34158 -0.27388,0.34158 h 0.001 c 0.009,-10e-4 0.18141,-0.0206 0.47594,-0.0496 -0.17122,0.22159 -0.27285,0.34055 -0.27285,0.34055 0.009,-0.001 0.18211,-0.0205 0.47697,-0.0496 -0.17119,0.22159 -0.27285,0.34106 -0.27285,0.34106 0.009,-0.001 0.18106,-0.0201 0.47543,-0.0491 -0.17086,0.22106 -0.27234,0.34003 -0.27234,0.34003 h 0.001 c 0.009,-0.001 0.18106,-0.0201 0.47543,-0.0491 -0.17086,0.22105 -0.27234,0.34003 -0.27234,0.34003 h 5.2e-4 c 0.009,-9.1e-4 0.18184,-0.0206 0.47646,-0.0496 -0.17136,0.22179 -0.27337,0.34158 -0.27337,0.34158 0.009,-0.001 0.18174,-0.0206 0.47645,-0.0496 -0.17095,0.22127 -0.27233,0.34055 -0.27233,0.34055 0.009,-0.001 0.18151,-0.0201 0.47594,-0.0491 -0.17108,0.22139 -0.27285,0.34003 -0.27285,0.34003 h 0.001 c 0.009,-0.001 0.18151,-0.0201 0.47594,-0.0491 -0.17108,0.22137 -0.27285,0.34003 -0.27285,0.34003 h 0.001 c 0.009,-0.001 0.18176,-0.0206 0.47646,-0.0496 -0.17159,0.2221 -0.27389,0.34158 -0.27389,0.34158 0.009,-0.001 0.18226,-0.0206 0.47698,-0.0496 -0.17119,0.22159 -0.27285,0.34055 -0.27285,0.34055 0.009,-10e-4 0.18148,-0.0201 0.47594,-0.0491 -0.17109,0.2214 -0.27285,0.34054 -0.27285,0.34054 h 0.001 c 0.009,-0.001 0.1812,-0.0201 0.47542,-0.0491 -0.17085,0.22105 -0.27233,0.34003 -0.27233,0.34003 h 10e-4 c 0.009,-10e-4 0.18149,-0.0206 0.47594,-0.0496 -0.17135,0.22177 -0.27285,0.34158 -0.27285,0.34158 0.009,-0.001 0.18168,-0.021 0.47646,-0.0501 -0.17119,0.22158 -0.27286,0.34106 -0.27286,0.34106 0.009,-0.001 0.18137,-0.0201 0.47543,-0.0491 -0.17086,0.22108 -0.27234,0.34003 -0.27234,0.34003 h 0.001 c 0.009,-0.001 0.18164,-0.0201 0.47594,-0.0491 -0.17109,0.22137 -0.27286,0.34003 -0.27286,0.34003 h 0.001 c 0.009,-0.001 0.18193,-0.0201 0.47645,-0.0491 -0.17083,0.2211 -0.27164,0.33923 -0.27233,0.34003 0.01,-0.001 0.18202,-0.0206 0.47646,-0.0496 -0.17157,0.2221 -0.27389,0.34158 -0.27389,0.34158 0.009,-0.001 0.18165,-0.0201 0.47594,-0.0491 -0.171,0.22128 -0.27285,0.34003 -0.27285,0.34003 h 0.001 c 0.07,-0.008 9.12767,-1.05176 19.67322,0.002 -0.005,-0.006 -0.11314,-0.15045 -0.21756,-0.29197 0.005,4.9e-4 0.01,5.5e-4 0.0145,0.001 v -0.001 c -0.005,-0.006 -0.11306,-0.15012 -0.21704,-0.29094 0.004,4.4e-4 0.009,6e-4 0.0129,10e-4 v -10e-4 c -0.005,-0.006 -0.11285,-0.15013 -0.21756,-0.29197 0.005,4.5e-4 0.009,5.8e-4 0.0134,0.001 -0.004,-0.005 -0.1055,-0.14202 -0.17622,-0.23668 -0.012,-0.0179 -0.024,-0.0365 -0.0362,-0.0548 0.003,2.9e-4 0.006,2.2e-4 0.009,5.2e-4 -0.002,-0.002 -0.0658,-0.0894 -0.0832,-0.11214 -0.0415,-0.0628 -0.0763,-0.1127 -0.11988,-0.17983 -4e-5,-5e-5 -0.002,-0.002 -0.002,-0.002 -1.78897,-2.75316 -5.26828,-9.07087 -4.89583,-16.06414 0.034,0.0488 0.0688,0.0969 0.10335,0.14521 0.0689,0.10162 0.13951,0.20177 0.21084,0.30128 0.0635,0.0934 0.12877,0.18533 0.19431,0.27698 0.0651,0.0961 0.13165,0.19102 0.19895,0.28526 2.60804,3.85291 6.97419,6.20165 11.68404,6.2053 h 0.002 c 7.79899,-0.001 14.12007,-6.32417 14.12007,-14.12317 v -0.001 c -3.9e-4,-3.02808 -0.95652,-5.83107 -2.57917,-8.13025 -0.067,-0.10019 -0.13773,-0.19775 -0.20722,-0.29611 -0.0676,-0.10101 -0.13864,-0.19954 -0.20878,-0.29869 -0.0666,-0.0993 -0.13664,-0.19598 -0.20567,-0.29352 -0.0622,-0.0927 -0.12741,-0.18325 -0.19172,-0.2744 -0.0687,-0.10283 -0.14103,-0.20296 -0.21239,-0.30386 -0.0662,-0.0989 -0.13598,-0.19489 -0.20464,-0.29197 -0.0663,-0.0989 -0.13593,-0.19537 -0.20463,-0.29249 -0.0634,-0.0945 -0.12977,-0.18667 -0.19534,-0.27957 -0.0691,-0.10323 -0.14174,-0.20361 -0.21343,-0.30489 -0.0629,-0.0938 -0.12919,-0.18528 -0.1943,-0.2775 -0.0692,-0.10347 -0.14158,-0.20442 -0.21342,-0.30593 -0.0644,-0.096 -0.13228,-0.18936 -0.19896,-0.2837 -0.0649,-0.0969 -0.13328,-0.19111 -0.2005,-0.28629 -0.0676,-0.10105 -0.13863,-0.1995 -0.20877,-0.29869 -0.0662,-0.0989 -0.13598,-0.19489 -0.20464,-0.29197 -0.0646,-0.0965 -0.13254,-0.1905 -0.19947,-0.28525 -0.0665,-0.0993 -0.13625,-0.19603 -0.20516,-0.29353 -0.0665,-0.0993 -0.13622,-0.19603 -0.20515,-0.29352 -0.0651,-0.0972 -0.1336,-0.19189 -0.20103,-0.28732 -0.0665,-0.0993 -0.13624,-0.19602 -0.20515,-0.29352 -0.0649,-0.0969 -0.13329,-0.19111 -0.20051,-0.28629 -0.0676,-0.10105 -0.13863,-0.1995 -0.20877,-0.29869 -0.067,-0.10006 -0.1377,-0.19736 -0.20722,-0.29559 -0.0639,-0.0952 -0.13079,-0.18807 -0.19689,-0.28163 -0.0659,-0.0984 -0.13532,-0.19429 -0.2036,-0.29094 -0.0682,-0.10189 -0.13957,-0.20129 -0.21033,-0.30128 -0.0649,-0.0967 -0.13331,-0.19075 -0.2005,-0.28577 -0.0628,-0.0938 -0.12929,-0.1848 -0.1943,-0.27698 -0.0686,-0.10269 -0.14014,-0.20309 -0.21136,-0.30386 -0.0665,-0.0994 -0.13669,-0.19597 -0.20567,-0.29352 -0.0661,-0.0986 -0.13564,-0.19461 -0.20413,-0.29146 -0.0637,-0.0951 -0.13045,-0.18772 -0.19637,-0.28112 -0.0681,-0.10186 -0.13963,-0.2013 -0.21032,-0.30127 -0.0665,-0.0992 -0.13678,-0.19561 -0.20567,-0.29301 -0.0656,-0.0979 -0.13458,-0.19323 -0.20257,-0.28938 -0.0627,-0.0936 -0.12892,-0.18449 -0.19379,-0.27647 -0.0703,-0.10516 -0.14353,-0.20796 -0.21652,-0.3111 -0.0651,-0.0971 -0.13358,-0.19143 -0.20102,-0.2868 -0.0659,-0.0983 -0.13534,-0.19388 -0.20361,-0.29042 -0.0629,-0.0939 -0.12921,-0.18521 -0.1943,-0.2775 -0.0701,-0.10485 -0.14323,-0.20723 -0.21601,-0.31006 -0.0649,-0.0968 -0.13327,-0.1912 -0.20051,-0.28629 -0.0665,-0.0992 -0.13677,-0.19561 -0.20567,-0.29301 -0.064,-0.0954 -0.13118,-0.18837 -0.1974,-0.28215 -0.0667,-0.0997 -0.13653,-0.19671 -0.20567,-0.29455 -0.068,-0.10156 -0.13927,-0.20057 -0.20981,-0.30024 -0.065,-0.097 -0.13366,-0.19104 -0.20102,-0.28629 -0.0646,-0.0964 -0.13255,-0.19052 -0.19947,-0.28526 -0.0661,-0.0987 -0.13562,-0.19501 -0.20412,-0.29197 -0.0682,-0.10188 -0.13957,-0.20129 -0.21033,-0.30127 -0.0644,-0.096 -0.13228,-0.18937 -0.19895,-0.2837 -0.0654,-0.0976 -0.13435,-0.19252 -0.20206,-0.28836 -0.0654,-0.0977 -0.1338,-0.19295 -0.20153,-0.28887 -0.0682,-0.10194 -0.14008,-0.20124 -0.21084,-0.30127 -0.0667,-0.0995 -0.13657,-0.19639 -0.20568,-0.29404 -0.0633,-0.0944 -0.1298,-0.18626 -0.19533,-0.27906 -0.0653,-0.0975 -0.13393,-0.19257 -0.20154,-0.28835 -0.0693,-0.10366 -0.14197,-0.20474 -0.21394,-0.30644 -0.0644,-0.096 -0.13228,-0.18937 -0.19896,-0.2837 -0.0649,-0.0969 -0.13328,-0.19111 -0.2005,-0.28629 -0.066,-0.0986 -0.13523,-0.19465 -0.20361,-0.29146 -0.0686,-0.10248 -0.1407,-0.20225 -0.21187,-0.30282 -0.0648,-0.0967 -0.13335,-0.19078 -0.2005,-0.28577 -0.065,-0.097 -0.13322,-0.19156 -0.20051,-0.28681 -0.0666,-0.0994 -0.13616,-0.19642 -0.20515,-0.29404 -0.0659,-0.0984 -0.13531,-0.1943 -0.20361,-0.29093 -0.0661,-0.0988 -0.13557,-0.19499 -0.20412,-0.29198 -0.0659,-0.0984 -0.13528,-0.19426 -0.20361,-0.29093 -0.0665,-0.0994 -0.13668,-0.19597 -0.20567,-0.29353 -0.0651,-0.0972 -0.13353,-0.19181 -0.20102,-0.28732 -0.0667,-0.0996 -0.13703,-0.19673 -0.20619,-0.29455 -0.0659,-0.0984 -0.13529,-0.19431 -0.2036,-0.29094 -0.0666,-0.0994 -0.13661,-0.19641 -0.20568,-0.29404 -0.063,-0.094 -0.1291,-0.18563 -0.1943,-0.27802 -0.068,-0.10172 -0.13924,-0.20092 -0.20981,-0.30076 -0.0676,-0.10091 -0.13867,-0.19912 -0.20877,-0.29817 -0.0651,-0.0971 -0.13357,-0.19143 -0.20102,-0.2868 -0.0658,-0.0981 -0.13496,-0.19355 -0.20309,-0.28991 -0.0642,-0.0958 -0.1315,-0.1891 -0.19792,-0.28318 -0.0689,-0.10303 -0.14137,-0.20329 -0.21291,-0.30438 -0.0649,-0.0967 -0.13334,-0.19078 -0.2005,-0.28577 -0.0666,-0.0994 -0.13662,-0.19641 -0.20567,-0.29404 -0.0628,-0.0937 -0.12882,-0.18489 -0.19379,-0.27698 -0.0689,-0.10312 -0.14084,-0.20372 -0.21239,-0.30489 -0.0653,-0.0974 -0.13392,-0.19218 -0.20154,-0.28784 -0.0675,-0.1008 -0.13876,-0.19872 -0.20877,-0.29766 -0.0628,-0.0936 -0.12883,-0.18495 -0.19379,-0.27698 -0.0677,-0.1012 -0.13857,-0.19989 -0.20877,-0.29921 -0.0659,-0.0985 -0.13527,-0.19426 -0.2036,-0.29094 -0.067,-0.10003 -0.13777,-0.19739 -0.20723,-0.29559 -0.064,-0.0954 -0.13118,-0.18838 -0.1974,-0.28215 -0.0669,-0.10002 -0.13731,-0.1974 -0.20671,-0.29559 -0.0654,-0.0977 -0.13426,-0.19292 -0.20205,-0.28887 -0.0682,-0.10189 -0.13956,-0.20129 -0.21032,-0.30128 -0.0643,-0.0959 -0.13237,-0.18896 -0.19896,-0.28318 -0.0643,-0.0961 -0.13182,-0.18985 -0.19844,-0.28422 -0.0678,-0.1014 -0.13894,-0.20021 -0.20929,-0.29973 -0.0675,-0.10071 -0.13829,-0.19879 -0.20825,-0.29765 -0.0634,-0.0945 -0.13029,-0.18621 -0.19586,-0.27906 -0.0658,-0.0984 -0.13486,-0.19431 -0.20308,-0.29093 -0.0677,-0.10114 -0.13858,-0.19994 -0.20878,-0.29921 -0.0665,-0.0992 -0.13678,-0.19561 -0.20567,-0.29301 -0.0649,-0.0969 -0.13325,-0.19112 -0.2005,-0.28628 -0.0643,-0.0961 -0.13183,-0.18985 -0.19844,-0.28422 -0.0693,-0.10366 -0.14196,-0.20475 -0.21394,-0.30644 -0.0645,-0.0962 -0.13265,-0.18969 -0.19947,-0.28423 -0.0658,-0.0983 -0.1349,-0.19393 -0.20309,-0.29042 -0.065,-0.0971 -0.13366,-0.19143 -0.20102,-0.2868 -0.0674,-0.10066 -0.13787,-0.19885 -0.20774,-0.29766 -0.0661,-0.0987 -0.13559,-0.19504 -0.20412,-0.29197 -0.0659,-0.0984 -0.13529,-0.19431 -0.20361,-0.29094 -0.0647,-0.0965 -0.133,-0.19042 -0.19999,-0.28525 -0.0662,-0.0989 -0.1355,-0.19537 -0.20412,-0.29249 -0.0683,-0.10196 -0.14002,-0.20121 -0.21084,-0.30127 -0.0644,-0.096 -0.13228,-0.18937 -0.19895,-0.28371 -0.0638,-0.0953 -0.13082,-0.18799 -0.19689,-0.28163 -0.0686,-0.10263 -0.14066,-0.20264 -0.21187,-0.30334 -0.0671,-0.10019 -0.13762,-0.19776 -0.20723,-0.29611 -0.0648,-0.0966 -0.13343,-0.19039 -0.2005,-0.28525 -0.0642,-0.0959 -0.13143,-0.18953 -0.19792,-0.28371 -0.067,-0.10019 -0.13772,-0.19775 -0.20722,-0.2961 -0.0673,-0.10049 -0.13797,-0.19851 -0.20774,-0.29714 -0.065,-0.097 -0.13317,-0.19153 -0.20051,-0.28681 -0.0644,-0.0962 -0.13225,-0.18973 -0.19895,-0.28422 -0.068,-0.10159 -0.1393,-0.20053 -0.20981,-0.30024 -0.0661,-0.0986 -0.13563,-0.1946 -0.20412,-0.29145 -0.0655,-0.0977 -0.13422,-0.1929 -0.20205,-0.28887 -0.0659,-0.0983 -0.13537,-0.19386 -0.20361,-0.29043 -0.0661,-0.0988 -0.13557,-0.19499 -0.20412,-0.29197 -0.0664,-0.0991 -0.13585,-0.19572 -0.20464,-0.293 -0.065,-0.097 -0.13368,-0.19148 -0.20102,-0.28681 -0.0666,-0.0994 -0.13617,-0.19642 -0.20516,-0.29404 -0.0661,-0.0986 -0.13565,-0.19458 -0.20412,-0.29145 -0.0653,-0.0975 -0.13386,-0.19256 -0.20154,-0.28836 -0.0666,-0.0995 -0.13663,-0.19635 -0.20567,-0.29403 -0.0659,-0.0985 -0.13528,-0.19427 -0.2036,-0.29094 -0.0676,-0.10091 -0.13868,-0.19913 -0.20878,-0.29818 -0.0646,-0.0963 -0.13258,-0.1901 -0.19947,-0.28473 -0.0646,-0.0965 -0.13253,-0.19046 -0.19947,-0.28526 -0.0675,-0.1009 -0.13875,-0.19913 -0.20877,-0.29817 -0.0666,-0.0994 -0.13662,-0.19641 -0.20567,-0.29404 -0.065,-0.097 -0.13317,-0.19153 -0.20051,-0.2868 -0.0644,-0.0961 -0.13228,-0.18977 -0.19895,-0.28422 -0.0676,-0.101 -0.13819,-0.19956 -0.20826,-0.29869 -0.0676,-0.10091 -0.13867,-0.19913 -0.20877,-0.29818 -0.066,-0.0984 -0.13576,-0.19382 -0.20412,-0.29042 -0.062,-0.0925 -0.1271,-0.18248 -0.19121,-0.27337 -0.0688,-0.10292 -0.14099,-0.20338 -0.21239,-0.30437 -0.0677,-0.10098 -0.1386,-0.19957 -0.20877,-0.29869 -0.065,-0.0969 -0.1337,-0.19112 -0.20102,-0.28629 -0.064,-0.0954 -0.13118,-0.18837 -0.1974,-0.28215 -0.0643,-0.096 -0.13192,-0.18938 -0.19844,-0.2837 -0.0703,-0.10516 -0.14353,-0.20796 -0.21653,-0.3111 -0.066,-0.0985 -0.13567,-0.19422 -0.20412,-0.29093 -0.0634,-0.0945 -0.13029,-0.18621 -0.19585,-0.27906 -0.0645,-0.0963 -0.13221,-0.19011 -0.19896,-0.28473 -0.07,-0.10473 -0.14331,-0.20682 -0.216,-0.30955 -0.0666,-0.0993 -0.13666,-0.19604 -0.20568,-0.29352 -0.0633,-0.0944 -0.1303,-0.18626 -0.19585,-0.27905 -0.0644,-0.0961 -0.13181,-0.18979 -0.19844,-0.28422 -0.0689,-0.10311 -0.14084,-0.20372 -0.21239,-0.30489 -0.0669,-0.0999 -0.13732,-0.19704 -0.2067,-0.29508 -0.0644,-0.096 -0.13228,-0.18936 -0.19896,-0.2837 -0.0637,-0.0952 -0.13092,-0.18762 -0.19688,-0.28112 -0.0684,-0.10224 -0.13992,-0.20197 -0.21084,-0.30231 -0.0674,-0.1006 -0.13838,-0.19839 -0.20826,-0.29714 -0.0648,-0.0967 -0.13335,-0.19077 -0.20051,-0.28577 -0.0639,-0.0953 -0.13076,-0.18847 -0.19688,-0.28215 -0.0693,-0.10354 -0.14205,-0.20434 -0.21394,-0.30592 -0.0646,-0.0964 -0.13258,-0.1901 -0.19947,-0.28474 -0.0659,-0.0984 -0.13482,-0.19434 -0.20309,-0.29094 -0.0659,-0.0984 -0.13528,-0.19426 -0.20361,-0.29094 -0.0655,-0.0977 -0.13424,-0.19288 -0.20205,-0.28887 -0.0667,-0.0997 -0.13701,-0.19667 -0.20619,-0.29455 -0.066,-0.0985 -0.13527,-0.19426 -0.20361,-0.29094 -0.0657,-0.0981 -0.13497,-0.19353 -0.20308,-0.28991 -0.0659,-0.0984 -0.13531,-0.19429 -0.20361,-0.29094 -0.0683,-0.10203 -0.13995,-0.20166 -0.21084,-0.30179 -0.0625,-0.0931 -0.12812,-0.18387 -0.19275,-0.27543 -0.0674,-0.10068 -0.13789,-0.19883 -0.20774,-0.29766 -0.0666,-0.0994 -0.13669,-0.19596 -0.20567,-0.29352 -0.0661,-0.0986 -0.13564,-0.1946 -0.20413,-0.29145 -0.0655,-0.0977 -0.13422,-0.1929 -0.20205,-0.28888 -0.0642,-0.0959 -0.13196,-0.189 -0.19844,-0.28318 -0.0691,-0.10334 -0.14167,-0.20402 -0.21342,-0.30541 -0.0644,-0.096 -0.13231,-0.1894 -0.19896,-0.2837 -0.0666,-0.0995 -0.13664,-0.1964 -0.20567,-0.29404 -0.0644,-0.0961 -0.1318,-0.18986 -0.19844,-0.28422 -0.0681,-0.10175 -0.13969,-0.20091 -0.21032,-0.30076 -0.0645,-0.0963 -0.13213,-0.19015 -0.19895,-0.28474 -0.0666,-0.0995 -0.13663,-0.19635 -0.20568,-0.29404 -0.0659,-0.0984 -0.13527,-0.19426 -0.2036,-0.29093 -0.0666,-0.0995 -0.13658,-0.19634 -0.20567,-0.29404 -0.0663,-0.0989 -0.13596,-0.19538 -0.20464,-0.29249 -0.0644,-0.096 -0.13234,-0.18939 -0.19896,-0.28371 -0.0671,-0.10017 -0.13769,-0.19776 -0.20722,-0.2961 -0.0651,-0.0971 -0.13313,-0.19196 -0.2005,-0.28732 -0.0681,-0.10177 -0.13964,-0.20088 -0.21033,-0.30076 -0.0627,-0.0935 -0.12891,-0.18455 -0.19378,-0.27647 -0.0677,-0.10119 -0.13858,-0.19988 -0.20878,-0.29921 -0.0676,-0.10091 -0.13867,-0.19912 -0.20877,-0.29817 -0.0651,-0.0971 -0.13358,-0.19143 -0.20102,-0.2868 -0.0631,-0.0941 -0.12957,-0.18554 -0.19482,-0.27802 -0.0682,-0.10204 -0.13954,-0.20165 -0.21032,-0.30179 -0.0675,-0.1008 -0.13876,-0.19872 -0.20878,-0.29766 -0.065,-0.0969 -0.13317,-0.19158 -0.2005,-0.2868 -0.0636,-0.0949 -0.13056,-0.18735 -0.19637,-0.28061 -0.0672,-0.10052 -0.13803,-0.19846 -0.20774,-0.29713 -0.0682,-0.10189 -0.13956,-0.20129 -0.21032,-0.30128 -0.0644,-0.096 -0.13228,-0.18936 -0.19896,-0.2837 -0.065,-0.0971 -0.13366,-0.19143 -0.20102,-0.28681 -0.0659,-0.0984 -0.13485,-0.1943 -0.20309,-0.29093 -0.0687,-0.10261 -0.14061,-0.20266 -0.21187,-0.30335 -0.0643,-0.0959 -0.13236,-0.18896 -0.19895,-0.28318 -0.0671,-0.10016 -0.13767,-0.19778 -0.20723,-0.29611 -0.0628,-0.0937 -0.12878,-0.18485 -0.19378,-0.27698 -0.0691,-0.10344 -0.14164,-0.20445 -0.21343,-0.30593 -0.065,-0.097 -0.13316,-0.19153 -0.2005,-0.2868 -0.0676,-0.10091 -0.13867,-0.19913 -0.20877,-0.29818 -0.0608,-0.0906 -0.12481,-0.1786 -0.18759,-0.26768 -0.0712,-0.10662 -0.14564,-0.21068 -0.21962,-0.31523 -0.0644,-0.096 -0.13228,-0.18936 -0.19896,-0.2837 -0.0675,-0.10079 -0.13876,-0.19872 -0.20877,-0.29766 -0.0623,-0.0929 -0.12779,-0.18356 -0.19224,-0.27491 -0.0685,-0.10245 -0.14028,-0.20229 -0.21135,-0.30283 -0.066,-0.0985 -0.13576,-0.19423 -0.20413,-0.29094 -0.0666,-0.0994 -0.13661,-0.19641 -0.20567,-0.29404 -0.0649,-0.0969 -0.13325,-0.19112 -0.2005,-0.28628 -0.0645,-0.0963 -0.1322,-0.19016 -0.19896,-0.28474 -0.0676,-0.101 -0.13819,-0.19955 -0.20825,-0.29869 -0.0676,-0.10091 -0.13868,-0.19912 -0.20878,-0.29817 -0.0644,-0.096 -0.13227,-0.18937 -0.19895,-0.28371 -0.0644,-0.0961 -0.13229,-0.18977 -0.19896,-0.28422 -0.0675,-0.101 -0.13818,-0.19955 -0.20825,-0.29869 -0.067,-0.10004 -0.13775,-0.19737 -0.20722,-0.29559 -0.065,-0.097 -0.13317,-0.19152 -0.20051,-0.2868 -0.0676,-0.10092 -0.13867,-0.19912 -0.20877,-0.29817 -0.0622,-0.0927 -0.12793,-0.18273 -0.19224,-0.27389 -0.0689,-0.10311 -0.14084,-0.20372 -0.21239,-0.30489 -0.0653,-0.0974 -0.13392,-0.19217 -0.20154,-0.28784 -0.068,-0.10157 -0.13974,-0.20054 -0.21032,-0.30024 -0.0623,-0.0928 -0.12785,-0.18317 -0.19223,-0.2744 -0.0677,-0.10119 -0.13858,-0.19988 -0.20878,-0.2992 -0.0654,-0.0976 -0.13435,-0.19252 -0.20205,-0.28836 -0.0682,-0.10189 -0.13956,-0.20128 -0.21033,-0.30127 -0.0632,-0.0943 -0.12991,-0.18588 -0.19533,-0.27854 -0.0682,-0.10193 -0.14008,-0.20124 -0.21084,-0.30127 -0.0641,-0.0956 -0.13107,-0.18874 -0.19741,-0.28267 -0.0684,-0.10229 -0.14032,-0.20193 -0.21135,-0.30231 -0.0637,-0.0949 -0.13099,-0.18731 -0.19689,-0.2806 -0.0678,-0.10122 -0.13902,-0.19987 -0.20929,-0.29921 -0.0632,-0.0943 -0.12939,-0.18635 -0.19482,-0.27905 -0.0687,-0.10267 -0.14113,-0.2026 -0.21239,-0.30334 -0.065,-0.097 -0.13317,-0.19153 -0.2005,-0.28681 -0.0664,-0.0992 -0.13632,-0.19563 -0.20516,-0.293 -0.0634,-0.0947 -0.13019,-0.18703 -0.19585,-0.28009 -0.0697,-0.1042 -0.14264,-0.20579 -0.21498,-0.308 -0.0634,-0.0945 -0.13029,-0.1862 -0.19585,-0.27905 -0.0686,-0.1025 -0.1407,-0.20225 -0.21187,-0.30282 -0.0639,-0.0953 -0.13128,-0.18803 -0.19741,-0.28164 -0.0672,-0.10037 -0.13755,-0.19809 -0.20722,-0.29662 -0.0648,-0.0966 -0.13292,-0.19083 -0.19999,-0.28577 -0.0672,-0.10034 -0.13757,-0.19813 -0.20722,-0.29663 -0.0654,-0.0976 -0.13431,-0.19249 -0.20206,-0.28835 -0.0655,-0.0978 -0.13418,-0.19333 -0.20205,-0.28939 -0.0666,-0.0995 -0.13662,-0.19634 -0.20567,-0.29404 -0.0664,-0.0992 -0.13631,-0.19563 -0.20516,-0.293 -0.0644,-0.0962 -0.13223,-0.18974 -0.19895,-0.28422 -0.0687,-0.10261 -0.14062,-0.20266 -0.21188,-0.30334 -0.0635,-0.0946 -0.13018,-0.18658 -0.19585,-0.27957 -0.0679,-0.10143 -0.13939,-0.20019 -0.20981,-0.29973 -0.064,-0.0954 -0.13117,-0.18837 -0.1974,-0.28215 -0.0686,-0.10249 -0.1407,-0.20225 -0.21187,-0.30282 -0.0639,-0.0953 -0.13128,-0.18803 -0.19741,-0.28164 -0.0667,-0.0996 -0.13654,-0.19675 -0.20567,-0.29456 -0.0651,-0.0972 -0.1336,-0.19187 -0.20102,-0.28732 -0.0677,-0.10121 -0.13902,-0.19987 -0.20929,-0.2992 -0.065,-0.097 -0.13317,-0.19153 -0.20051,-0.28681 -0.065,-0.0971 -0.13366,-0.19143 -0.20102,-0.2868 -0.0669,-0.0999 -0.13683,-0.19746 -0.20619,-0.29559 -0.0666,-0.0994 -0.13668,-0.19596 -0.20567,-0.29352 -0.0654,-0.0976 -0.1343,-0.1925 -0.20205,-0.28836 -0.0671,-0.10016 -0.13767,-0.19778 -0.20723,-0.2961 -0.0622,-0.0929 -0.12785,-0.18312 -0.19223,-0.27441 -0.0703,-0.10516 -0.14353,-0.20795 -0.21653,-0.31109 -0.0634,-0.0945 -0.13029,-0.18621 -0.19585,-0.27905 -0.0687,-0.10261 -0.14062,-0.20265 -0.21187,-0.30334 -0.0622,-0.0928 -0.12788,-0.18318 -0.19224,-0.2744 -0.0696,-0.10408 -0.14272,-0.20538 -0.21497,-0.30748 -0.0639,-0.0953 -0.13128,-0.18802 -0.19741,-0.28164 -0.0672,-0.10033 -0.13757,-0.19812 -0.20722,-0.29662 -0.0655,-0.0977 -0.13422,-0.19289 -0.20205,-0.28887 -0.0656,-0.098 -0.13459,-0.19317 -0.20258,-0.28939 -0.0663,-0.099 -0.13595,-0.1953 -0.20463,-0.29249 -0.0671,-0.10016 -0.13767,-0.19777 -0.20723,-0.2961 -0.0649,-0.0969 -0.13325,-0.19112 -0.2005,-0.28629 -0.0655,-0.0978 -0.13419,-0.19332 -0.20206,-0.28939 -0.0664,-0.0992 -0.13633,-0.19561 -0.20515,-0.293 -0.0671,-0.10016 -0.13767,-0.19778 -0.20722,-0.29611 -0.064,-0.0954 -0.13118,-0.18837 -0.19741,-0.28215 -0.0687,-0.10261 -0.14062,-0.20265 -0.21187,-0.30334 -0.063,-0.0939 -0.12918,-0.18525 -0.19431,-0.2775 -0.0689,-0.10303 -0.14137,-0.20329 -0.2129,-0.30438 -0.0639,-0.0953 -0.13127,-0.18802 -0.19741,-0.28164 -0.0681,-0.10176 -0.13964,-0.20088 -0.21032,-0.30075 -0.0639,-0.0953 -0.13127,-0.18802 -0.1974,-0.28164 -0.0657,-0.0981 -0.13455,-0.19359 -0.20257,-0.2899 -0.0669,-0.0999 -0.13684,-0.19747 -0.20619,-0.29559 -0.067,-0.10003 -0.13776,-0.19739 -0.20723,-0.29559 -0.0649,-0.0969 -0.13325,-0.19112 -0.2005,-0.28629 -0.0655,-0.0978 -0.13419,-0.19332 -0.20206,-0.28939 -0.0664,-0.0992 -0.13632,-0.19561 -0.20515,-0.293 -0.0671,-0.10017 -0.13767,-0.19778 -0.20722,-0.29611 -0.064,-0.0954 -0.13118,-0.18837 -0.19741,-0.28215 -0.0687,-0.10262 -0.14061,-0.20265 -0.21187,-0.30334 -0.0616,-0.0919 -0.12697,-0.18095 -0.19069,-0.2713 -0.0702,-0.10505 -0.14361,-0.20755 -0.21652,-0.31058 -0.0639,-0.0953 -0.13127,-0.18802 -0.19741,-0.28164 -0.0672,-0.10033 -0.13757,-0.19812 -0.20722,-0.29662 -0.064,-0.0955 -0.13119,-0.18836 -0.1974,-0.28215 -0.068,-0.1016 -0.1393,-0.20053 -0.20981,-0.30024 -0.0655,-0.0977 -0.13422,-0.1929 -0.20205,-0.28887 -0.067,-0.10003 -0.13776,-0.19739 -0.20723,-0.29559 -0.0649,-0.0969 -0.13325,-0.19113 -0.2005,-0.28629 -0.0661,-0.0988 -0.13557,-0.19499 -0.20412,-0.29197 -0.0658,-0.0983 -0.1349,-0.19393 -0.20309,-0.29042 -0.0671,-0.10017 -0.13767,-0.19778 -0.20722,-0.29611 -0.064,-0.09545 -0.13118,-0.18837 -0.19741,-0.282153 -0.0671,-0.100348 -0.13759,-0.198115 -0.20722,-0.296623 -0.0652,-0.09737 -0.13398,-0.192199 -0.20154,-0.287838 -0.0681,-0.10177 -0.13964,-0.20088 -0.21032,-0.300757 -0.0639,-0.09528 -0.13127,-0.18802 -0.1974,-0.281636 -0.0681,-0.10177 -0.13965,-0.20088 -0.21033,-0.300757 -0.063,-0.094 -0.12909,-0.185638 -0.1943,-0.278019 -0.068,-0.101597 -0.1393,-0.200529 -0.20981,-0.30024 -0.0655,-0.09772 -0.13422,-0.192893 -0.20205,-0.288872 -0.0666,-0.09937 -0.13669,-0.195961 -0.20567,-0.293522 -0.0654,-0.09761 -0.13431,-0.192488 -0.20206,-0.288354 -0.0662,-0.09877 -0.13557,-0.194987 -0.20412,-0.291972 -0.0658,-0.09826 -0.1349,-0.193932 -0.20309,-0.290422 -0.0671,-0.100163 -0.13767,-0.197776 -0.20722,-0.296106 -0.064,-0.09545 -0.13118,-0.188369 -0.19741,-0.282153 -0.067,-0.100147 -0.13722,-0.197791 -0.2067,-0.296106 -0.0649,-0.0969 -0.1333,-0.191102 -0.20051,-0.286287 -0.0686,-0.102497 -0.1407,-0.202247 -0.21187,-0.302824 -0.0639,-0.09528 -0.13127,-0.188021 -0.1974,-0.281637 -0.0665,-0.0993 -0.13625,-0.196019 -0.20516,-0.293522 -0.0654,-0.0977 -0.13427,-0.192916 -0.20205,-0.288871 -0.0672,-0.100337 -0.13758,-0.198125 -0.20723,-0.296623 -0.0655,-0.09772 -0.13422,-0.192892 -0.20205,-0.288871 -0.0649,-0.0969 -0.13329,-0.191103 -0.20051,-0.286288 -0.0671,-0.100347 -0.13759,-0.198114 -0.20722,-0.296622 -0.0669,-0.09984 -0.13737,-0.197059 -0.2067,-0.295073 -0.0649,-0.09688 -0.13326,-0.191121 -0.20051,-0.286287 -0.0655,-0.09782 -0.13419,-0.19332 -0.20205,-0.289388 -0.0656,-0.09796 -0.13464,-0.193185 -0.20257,-0.289388 -0.067,-0.100153 -0.13722,-0.197785 -0.20671,-0.296106 -0.0664,-0.09917 -0.1363,-0.195631 -0.20516,-0.293005 -0.0656,-0.09793 -0.13459,-0.193217 -0.20257,-0.289389 -0.0669,-0.09984 -0.13738,-0.197058 -0.2067,-0.295072 -0.0649,-0.09688 -0.13325,-0.191121 -0.20051,-0.286287 -0.0661,-0.09877 -0.13557,-0.194987 -0.20412,-0.291972 -0.0665,-0.09929 -0.13622,-0.196037 -0.20516,-0.293522 -0.0662,-0.0988 -0.13552,-0.194962 -0.20412,-0.291972 -0.0642,-0.09585 -0.13194,-0.189015 -0.19843,-0.283187 -0.0671,-0.100347 -0.1376,-0.198115 -0.20723,-0.296623 -0.0669,-0.09984 -0.13737,-0.197058 -0.2067,-0.295072 -0.0649,-0.09688 -0.13326,-0.191121 -0.20051,-0.286288 -0.0654,-0.0977 -0.13427,-0.192916 -0.20205,-0.288871 -0.0681,-0.101771 -0.13965,-0.200879 -0.21033,-0.300757 -0.0646,-0.09635 -0.13257,-0.190089 -0.19947,-0.284737 -0.0648,-0.09682 -0.13283,-0.191178 -0.19998,-0.286287 -0.067,-0.100148 -0.13723,-0.19779 -0.20671,-0.296106 -0.067,-0.100032 -0.13776,-0.197388 -0.20722,-0.295589 -0.0649,-0.09688 -0.13325,-0.191122 -0.20051,-0.286288 -0.0654,-0.0977 -0.13427,-0.192915 -0.20205,-0.288871 -0.0655,-0.09787 -0.13418,-0.193266 -0.20206,-0.289388 -0.0687,-0.102614 -0.14061,-0.202651 -0.21187,-0.303341 -0.0634,-0.09448 -0.13029,-0.186204 -0.19585,-0.279053 -0.067,-0.100148 -0.13723,-0.197789 -0.20671,-0.296105 -0.0653,-0.09757 -0.13436,-0.192528 -0.20205,-0.288355 -0.0681,-0.101771 -0.13965,-0.200879 -0.21033,-0.300757 -0.0639,-0.09528 -0.13127,-0.188019 -0.1974,-0.281636 -0.0655,-0.09787 -0.13418,-0.193266 -0.20206,-0.289388 -0.067,-0.100149 -0.13722,-0.19779 -0.2067,-0.296106 -0.0665,-0.09937 -0.13669,-0.19596 -0.20567,-0.293522 -0.0655,-0.09773 -0.13423,-0.192892 -0.20206,-0.288872 -0.0654,-0.09768 -0.13428,-0.192931 -0.20205,-0.288871 -0.0666,-0.09951 -0.13662,-0.196342 -0.20568,-0.294039 -0.0669,-0.09984 -0.13737,-0.197058 -0.2067,-0.295072 -0.065,-0.097 -0.13317,-0.191525 -0.20051,-0.286805 -0.067,-0.100048 -0.13775,-0.197371 -0.20722,-0.295589 -0.0631,-0.09417 -0.12899,-0.185986 -0.1943,-0.278536 -0.0695,-0.103874 -0.14234,-0.205054 -0.21446,-0.306958 -0.0639,-0.09526 -0.13128,-0.188033 -0.1974,-0.281636 -0.068,-0.101656 -0.13973,-0.200473 -0.21033,-0.30024 -0.0639,-0.09528 -0.13127,-0.18802 -0.1974,-0.281637 -0.0666,-0.09942 -0.13617,-0.196423 -0.20516,-0.294039 -0.067,-0.100048 -0.13774,-0.197371 -0.20722,-0.295589 -0.0647,-0.09652 -0.13248,-0.190437 -0.19947,-0.285254 -0.0663,-0.0991 -0.13587,-0.195701 -0.20464,-0.293005 -0.065,-0.0971 -0.13366,-0.191426 -0.20102,-0.286804 -0.0685,-0.102305 -0.14031,-0.201916 -0.21136,-0.302308 -0.0639,-0.09528 -0.13127,-0.188019 -0.1974,-0.281636 -0.0665,-0.09931 -0.13625,-0.196018 -0.20516,-0.293522 -0.0671,-0.100165 -0.13766,-0.197776 -0.20722,-0.296106 -0.064,-0.09545 -0.13118,-0.188369 -0.1974,-0.282154 -0.067,-0.100148 -0.13723,-0.197789 -0.20671,-0.296106 -0.0653,-0.09757 -0.13436,-0.192526 -0.20205,-0.288354 -0.0681,-0.101771 -0.13965,-0.200879 -0.21033,-0.300757 -0.0639,-0.09528 -0.13127,-0.188019 -0.1974,-0.281636 -0.0665,-0.09931 -0.13625,-0.196018 -0.20515,-0.293523 -0.0654,-0.0977 -0.13428,-0.192915 -0.20206,-0.288871 -0.0672,-0.100339 -0.13757,-0.198123 -0.20722,-0.296623 -0.0655,-0.09773 -0.13422,-0.192891 -0.20206,-0.288871 -0.0649,-0.0969 -0.13329,-0.191101 -0.2005,-0.286287 -0.0669,-0.100032 -0.13731,-0.197385 -0.20671,-0.295589 -0.0671,-0.100165 -0.13767,-0.197776 -0.20722,-0.296106 -0.0649,-0.09689 -0.13325,-0.191121 -0.2005,-0.286288 -0.0655,-0.09782 -0.1342,-0.193319 -0.20206,-0.289388 -0.0656,-0.09796 -0.13463,-0.193184 -0.20257,-0.289388 -0.0685,-0.102421 -0.14023,-0.202319 -0.21136,-0.302824 -0.0639,-0.09526 -0.13128,-0.188033 -0.1974,-0.281636 -0.0681,-0.101773 -0.13965,-0.200877 -0.21032,-0.300757 -0.063,-0.09387 -0.12918,-0.185246 -0.19431,-0.277503 -0.0689,-0.103031 -0.14137,-0.203282 -0.2129,-0.304374 -0.064,-0.0954 -0.13119,-0.188423 -0.19741,-0.282153 -0.0671,-0.100224 -0.13766,-0.197718 -0.20722,-0.296106 -0.0655,-0.09773 -0.13422,-0.192891 -0.20206,-0.288871 -0.0649,-0.0969 -0.13328,-0.191101 -0.2005,-0.286288 -0.0687,-0.102615 -0.14062,-0.202649 -0.21187,-0.30334 -0.0645,-0.09622 -0.13267,-0.189699 -0.19948,-0.284221 -0.0658,-0.09826 -0.13489,-0.193929 -0.20308,-0.290421 -0.0654,-0.0977 -0.13427,-0.192915 -0.20206,-0.288872 -0.0681,-0.101772 -0.13965,-0.200877 -0.21032,-0.300756 -0.0639,-0.09528 -0.13128,-0.188019 -0.19741,-0.281637 -0.0655,-0.09787 -0.13417,-0.193265 -0.20205,-0.289388 -0.0671,-0.100349 -0.13759,-0.198113 -0.20722,-0.296623 -0.0669,-0.09984 -0.13738,-0.197057 -0.20671,-0.295072 -0.0649,-0.09689 -0.13325,-0.19112 -0.2005,-0.286288 -0.0654,-0.0977 -0.13427,-0.192914 -0.20206,-0.288871 -0.0657,-0.09807 -0.13455,-0.193589 -0.20257,-0.289905 -0.0685,-0.102421 -0.14023,-0.202319 -0.21136,-0.302823 -0.0634,-0.09448 -0.13029,-0.186204 -0.19585,-0.279053 -0.067,-0.100149 -0.13722,-0.197789 -0.20671,-0.296106 -0.067,-0.100032 -0.13775,-0.197387 -0.20722,-0.295589 -0.0649,-0.09689 -0.13325,-0.19112 -0.2005,-0.286288 -0.0655,-0.09782 -0.13419,-0.193318 -0.20206,-0.289388 -0.0664,-0.09919 -0.13633,-0.195612 -0.20515,-0.293005 -0.0671,-0.100166 -0.13767,-0.197775 -0.20723,-0.296106 -0.0641,-0.09565 -0.13155,-0.188691 -0.19792,-0.28267 -0.067,-0.100156 -0.13721,-0.197783 -0.2067,-0.296106 -0.0652,-0.09737 -0.13398,-0.192197 -0.20154,-0.287838 -0.0681,-0.101773 -0.13964,-0.200877 -0.21032,-0.300757 -0.064,-0.0954 -0.13119,-0.188422 -0.1974,-0.282153 -0.068,-0.101657 -0.13973,-0.200472 -0.21033,-0.30024 -0.0623,-0.09293 -0.12778,-0.183566 -0.19223,-0.274919 -0.0691,-0.103314 -0.14173,-0.204042 -0.21343,-0.305407 -0.0667,-0.09947 -0.13656,-0.196383 -0.20567,-0.294039 -0.0645,-0.09622 -0.13266,-0.189699 -0.19947,-0.284221 -0.0658,-0.09826 -0.1349,-0.193929 -0.20309,-0.290421 -0.0661,-0.09877 -0.13557,-0.194985 -0.20412,-0.291972 -0.0675,-0.100723 -0.1383,-0.198789 -0.20826,-0.297656 -0.0639,-0.09528 -0.13127,-0.188018 -0.1974,-0.281637 -0.0655,-0.09787 -0.13418,-0.193264 -0.20205,-0.289388 -0.067,-0.10015 -0.13723,-0.197788 -0.20671,-0.296106 -0.0654,-0.09769 -0.13428,-0.192929 -0.20206,-0.288871 -0.068,-0.101657 -0.13972,-0.200472 -0.21032,-0.30024 -0.0639,-0.09528 -0.13127,-0.188018 -0.1974,-0.281637 -0.0665,-0.09931 -0.13625,-0.196016 -0.20516,-0.293522 -0.0671,-0.100166 -0.13767,-0.197774 -0.20722,-0.296106 -0.0647,-0.09652 -0.13248,-0.190436 -0.19947,-0.285254 -0.0663,-0.0991 -0.13587,-0.195699 -0.20464,-0.293005 -0.0654,-0.09769 -0.13428,-0.19293 -0.20205,-0.288871 -0.068,-0.101658 -0.13973,-0.200472 -0.21033,-0.300241 -0.0639,-0.09528 -0.13127,-0.188017 -0.1974,-0.281636 -0.0665,-0.09931 -0.13625,-0.196017 -0.20516,-0.293522 -0.0655,-0.09782 -0.13418,-0.193318 -0.20205,-0.289388 -0.0671,-0.100225 -0.13766,-0.197717 -0.20722,-0.296106 -0.0655,-0.09773 -0.13423,-0.19289 -0.20206,-0.288871 -0.0653,-0.09757 -0.13436,-0.192526 -0.20205,-0.288355 -0.0681,-0.101773 -0.13965,-0.200876 -0.21033,-0.300757 -0.0639,-0.09528 -0.13127,-0.188017 -0.1974,-0.281636 -0.0665,-0.09931 -0.13625,-0.196017 -0.20516,-0.293522 -0.0655,-0.09782 -0.13418,-0.193318 -0.20205,-0.289388 -0.0671,-0.100225 -0.13766,-0.197717 -0.20722,-0.296106 -0.0655,-0.09773 -0.13423,-0.192891 -0.20206,-0.288872 -0.0653,-0.09757 -0.13436,-0.192525 -0.20205,-0.288354 -0.0681,-0.101774 -0.13965,-0.200877 -0.21033,-0.300757 -0.0646,-0.09635 -0.13257,-0.190088 -0.19947,-0.284737 -0.0658,-0.09826 -0.1349,-0.193928 -0.20309,-0.290422 -0.0655,-0.09782 -0.13418,-0.193318 -0.20205,-0.289388 -0.0671,-0.100225 -0.13766,-0.197716 -0.20722,-0.296106 -0.0655,-0.09773 -0.13423,-0.19289 -0.20206,-0.288871 -0.0654,-0.09757 -0.13436,-0.192525 -0.20205,-0.288354 -0.0682,-0.101891 -0.13957,-0.201281 -0.21033,-0.301274 -0.0645,-0.09622 -0.13266,-0.189697 -0.19947,-0.28422 -0.0658,-0.09826 -0.1349,-0.193929 -0.20309,-0.290422 -0.40933,-0.611236 -0.86551,-1.188318 -1.3627,-1.727026 -0.0634,-0.09517 -0.1316,-0.187409 -0.19741,-0.28112 -0.0645,-0.09689 -0.13358,-0.190903 -0.2005,-0.286288 -0.0693,-0.104274 -0.14282,-0.205978 -0.21498,-0.308508 -0.0619,-0.09277 -0.12863,-0.182498 -0.19275,-0.273885 -0.0656,-0.09871 -0.13544,-0.194826 -0.2036,-0.291972 -0.0665,-0.10002 -0.1376,-0.197173 -0.20671,-0.295589 -0.0661,-0.09936 -0.13698,-0.195748 -0.20567,-0.293522 -0.065,-0.09771 -0.13452,-0.19269 -0.20206,-0.288871 -0.0645,-0.09701 -0.13349,-0.191302 -0.2005,-0.286805 -0.0692,-0.104151 -0.1429,-0.205581 -0.21498,-0.307991 -0.0619,-0.09277 -0.12863,-0.182498 -0.19275,-0.273885 -0.0655,-0.09859 -0.13552,-0.194422 -0.2036,-0.291455 -0.0666,-0.100141 -0.13752,-0.197573 -0.20671,-0.296106 -0.0661,-0.09936 -0.13698,-0.195749 -0.20567,-0.293522 -0.065,-0.09772 -0.13452,-0.19269 -0.20206,-0.288872 -0.0645,-0.09701 -0.13349,-0.191302 -0.2005,-0.286804 -0.0665,-0.10002 -0.1376,-0.197173 -0.20671,-0.295589 -0.0661,-0.09936 -0.13697,-0.195746 -0.20567,-0.293522 -0.064,-0.09617 -0.13252,-0.189539 -0.19895,-0.284221 -0.0666,-0.10014 -0.13752,-0.197573 -0.20671,-0.296106 -0.0661,-0.09936 -0.13698,-0.195748 -0.20567,-0.293522 -0.065,-0.09771 -0.13452,-0.192689 -0.20206,-0.288871 -0.0645,-0.09689 -0.13357,-0.1909 -0.2005,-0.286287 -0.0693,-0.104273 -0.14282,-0.205981 -0.21497,-0.308509 -0.0619,-0.09277 -0.12864,-0.182498 -0.19276,-0.273885 -0.0655,-0.09859 -0.13552,-0.194422 -0.2036,-0.291455 -0.0666,-0.100141 -0.13752,-0.197573 -0.20671,-0.296106 -0.0661,-0.09936 -0.13698,-0.195748 -0.20567,-0.293522 -0.065,-0.09771 -0.13451,-0.19269 -0.20206,-0.288871 -0.0645,-0.09701 -0.13349,-0.191302 -0.2005,-0.286804 -0.06649,-0.10002 -0.137596,-0.197174 -0.206705,-0.29559 -0.06611,-0.09936 -0.136978,-0.195746 -0.205673,-0.293522 -0.06401,-0.09617 -0.132522,-0.189538 -0.198954,-0.28422 -0.06656,-0.100141 -0.137514,-0.197573 -0.206706,-0.296106 -0.06611,-0.09936 -0.136979,-0.195749 -0.205672,-0.293522 -0.06504,-0.09772 -0.134514,-0.192689 -0.202055,-0.288871 -0.06446,-0.09689 -0.133579,-0.190902 -0.200504,-0.286288 -0.06656,-0.10014 -0.137514,-0.197574 -0.206706,-0.296106 -0.06611,-0.09936 -0.136978,-0.195746 -0.205672,-0.293522 -0.06401,-0.09617 -0.132523,-0.189539 -0.198954,-0.28422 -0.06656,-0.100141 -0.137514,-0.197574 -0.206706,-0.296106 -0.06611,-0.09936 -0.13698,-0.195749 -0.205672,-0.293522 -0.06504,-0.09771 -0.134514,-0.19269 -0.202055,-0.288872 -0.06447,-0.0969 -0.133577,-0.190897 -0.200505,-0.286287 -0.06656,-0.100142 -0.137514,-0.197572 -0.206706,-0.296106 -0.06611,-0.09936 -0.136977,-0.195746 -0.205672,-0.293522 -0.06401,-0.09617 -0.132522,-0.189538 -0.198954,-0.284221 -0.06656,-0.100142 -0.137514,-0.197571 -0.206706,-0.296106 -0.06454,-0.09701 -0.133494,-0.191302 -0.200504,-0.286804 -0.06924,-0.104152 -0.142898,-0.20558 -0.214974,-0.307991 -0.06186,-0.09277 -0.128633,-0.182497 -0.192753,-0.273885 -0.06561,-0.09871 -0.13544,-0.194825 -0.203605,-0.291972 -0.06761,-0.101712 -0.140001,-0.200188 -0.210324,-0.30024 -0.06347,-0.09532 -0.13155,-0.187778 -0.197404,-0.281637 -0.06656,-0.100142 -0.137513,-0.197572 -0.206705,-0.296106 -0.06454,-0.09701 -0.133495,-0.191304 -0.200505,-0.286804 -0.06728,-0.101213 -0.139325,-0.199637 -0.209289,-0.299207 -0.06373,-0.09572 -0.132309,-0.188419 -0.198438,-0.28267 -0.06656,-0.100141 -0.137514,-0.197572 -0.206706,-0.296106 -0.06611,-0.09936 -0.136977,-0.195744 -0.205672,-0.293522 -0.06401,-0.09617 -0.132522,-0.189538 -0.198954,-0.28422 -0.06667,-0.09599 -0.137616,-0.193419 -0.206808,-0.291953 -0.06454,-0.09701 -0.133494,-0.191302 -0.200504,-0.286804 -0.06924,-0.104152 -0.142898,-0.205581 -0.214974,-0.307992 -0.06186,-0.09277 -0.128634,-0.182497 -0.192753,-0.273885 -0.06656,-0.100142 -0.137514,-0.197572 -0.206706,-0.296106 -0.06454,-0.09701 -0.133492,-0.191299 -0.200505,-0.286804 -0.0671,-0.100937 -0.139006,-0.19887 -0.208772,-0.298173 -0.06504,-0.09772 -0.134514,-0.192688 -0.202055,-0.288871 -0.06454,-0.09701 -0.133495,-0.191304 -0.200505,-0.286804 -0.06923,-0.104153 -0.142897,-0.20558 -0.214974,-0.307992 -0.06186,-0.09277 -0.128633,-0.182497 -0.192753,-0.273885 -0.06656,-0.100142 -0.137513,-0.197572 -0.206706,-0.296106 -0.513818,-0.772294 -1.10584,-1.498062 -1.771468,-2.163692 -2.648497,-2.648508 -6.240874,-4.136212 -9.98647,-4.136182 z m 91.361863,206.29646 c -2e-5,0 -10e-4,-1e-5 -10e-4,0 v 0.001 z" />
        </g>
      </g>
    </clipPath>
  </defs>
  <g
     inkscape:groupmode="layer"
     id="layer1"
     inkscape:label="Background"
     style="fill:#ffffff">
    <path
       style="opacity:1;fill:#ffffff;stroke-width:0.264583"
       id="rect296"
       width="135.46666"
       height="135.46666"
       x="2.8421709e-14"
       y="0"
       sodipodi:type="rect"
       d="m 29.802665,0 h 75.861325 a 29.802665,29.802665 45 0 1 29.80267,29.802665 v 75.861325 a 29.802665,29.802665 135 0 1 -29.80267,29.80267 H 29.802665 A 29.802665,29.802665 45 0 1 0,105.66399 V 29.802665 A 29.802665,29.802665 135 0 1 29.802665,0 Z"
       inkscape:path-effect="#path-effect452" />
  </g>
  <g
     inkscape:groupmode="layer"
     id="layer2"
     inkscape:label="Logo">
    <g
       id="g2317"
       transform="matrix(1.533115,0,0,1.533115,-30.684565,-41.535321)">
      <path
         d="m 91.795827,55.702099 c 0,6.644646 -5.386603,12.031231 -12.03125,12.031231 -6.644646,0 -12.031247,-5.386585 -12.031247,-12.031231 0,-6.644673 5.386601,-12.031258 12.031247,-12.031258 6.644647,0 12.03125,5.386585 12.03125,12.031258 z m -21.656248,0 c 0,5.315754 4.309238,9.62499 9.624998,9.62499 5.31576,0 9.625001,-4.309236 9.625001,-9.62499 0,-5.315755 -4.309241,-9.625017 -9.625001,-9.625017 -5.31576,0 -9.624998,4.309262 -9.624998,9.625017 z"
         fill="#000000"
         id="path1408"
         style="stroke-width:0.70772" />
      <path
         d="m 46.822806,98.483928 c -0.123204,0.12358 -0.269641,0.22148 -0.43086,0.28849 -0.161213,0.0669 -0.334043,0.10137 -0.508569,0.10137 -0.174534,0 -0.347348,-0.0345 -0.508496,-0.10137 -0.161214,-0.0669 -0.307646,-0.16504 -0.430932,-0.28849 l -7.961199,-7.9612 c -0.249163,-0.2493 -0.389124,-0.58713 -0.389124,-0.93944 0,-0.35238 0.139975,-0.6903 0.389124,-0.93943 0.249162,-0.2493 0.58707,-0.38916 0.939423,-0.38916 0.352352,0 0.690277,0.13989 0.93942,0.38916 l 1.05089,1.05351 4.758144,-4.75815 -5.034135,-5.031526 c -0.249163,-0.249028 -0.389127,-0.587049 -0.389127,-0.939434 0,-0.352304 0.139975,-0.690244 0.389127,-0.939433 0.249162,-0.249029 0.587076,-0.389084 0.939428,-0.389084 0.352353,0 0.690269,0.139895 0.939421,0.389084 l 3.041201,3.043925 14.754771,-14.754843 c 0.616283,-0.616794 1.348137,-1.106104 2.153666,-1.439872 0.805525,-0.333767 1.668876,-0.505519 2.540858,-0.505305 h 5.211935 l 7.571124,-7.573809 c 0.249108,-0.249029 0.587054,-0.389111 0.939428,-0.389111 0.352374,0 0.69024,0.139895 0.939429,0.389111 0.249108,0.249296 0.389105,0.587049 0.389105,0.939434 0,0.352357 -0.139975,0.690298 -0.389105,0.939407 l -7.573812,7.571134 v 5.214618 c -3.56e-4,1.758767 -0.699088,3.445393 -1.942553,4.689145 l -14.754768,14.757459 3.041146,3.04123 c 0.249189,0.24903 0.389174,0.58705 0.389174,0.93943 0,0.35231 -0.140001,0.69022 -0.389174,0.93941 -0.249109,0.24903 -0.587055,0.38911 -0.939429,0.38911 -0.352304,0 -0.690239,-0.1399 -0.939359,-0.38911 l -5.031538,-5.03415 -4.758148,4.75816 1.053514,1.05089 c 0.123578,0.12331 0.221584,0.26963 0.288538,0.43087 0.06687,0.16129 0.10127,0.33403 0.10127,0.50854 0,0.1744 -0.0344,0.34736 -0.10127,0.50852 -0.06695,0.16129 -0.164957,0.30763 -0.288538,0.43091 z M 57.825242,83.726467 59.92965,81.622003 58.212718,79.907692 c -0.249189,-0.249028 -0.389175,-0.587049 -0.389175,-0.939434 0,-0.352304 0.139975,-0.690244 0.389175,-0.939433 0.249108,-0.249029 0.587054,-0.389084 0.939428,-0.389084 0.352305,0 0.69024,0.139895 0.939429,0.389084 l 1.714311,1.717012 2.104408,-2.104411 -1.717002,-1.714311 c -0.249109,-0.249296 -0.389105,-0.587049 -0.389105,-0.939433 0,-0.352358 0.139975,-0.690299 0.389105,-0.939434 0.249189,-0.249296 0.587054,-0.389084 0.939428,-0.389084 0.352374,0 0.690312,0.139895 0.939429,0.389084 l 1.714311,1.717012 1.486071,-1.486146 c 0.370421,-0.369932 0.664197,-0.809195 0.864551,-1.292862 0.200347,-0.483586 0.303401,-1.001918 0.303117,-1.525413 v -4.434365 h -4.437053 c -1.055351,9.1e-4 -2.06718,0.420888 -2.812976,1.167599 l -14.754771,14.754843 6.082364,6.085042 3.431313,-3.43132 -1.717002,-1.714315 c -0.249109,-0.249296 -0.389105,-0.58705 -0.389105,-0.939407 0,-0.352385 0.139975,-0.690245 0.389105,-0.939434 0.249189,-0.249029 0.587055,-0.389111 0.939428,-0.389111 0.352374,0 0.69024,0.139895 0.939429,0.389111 z m -16.036564,7.847071 2.104448,2.10441 4.758148,-4.75815 -2.104408,-2.10441 z"
         fill="#000000"
         id="path1410"
         style="stroke-width:0.70772" />
    </g>
  </g>
</svg>
