<?xml version="1.0" encoding="UTF-8" standalone="no"?>
<!-- Created with Inkscape (http://www.inkscape.org/) -->

<svg
   width="47.625004mm"
   height="14.11111mm"
   viewBox="0 0 47.625004 14.11111"
   version="1.1"
   id="svg5738"
   inkscape:version="1.2-alpha1 (b6a15bb, 2022-02-23)"
   sodipodi:docname="play_store_bk.svg"
   xmlns:inkscape="http://www.inkscape.org/namespaces/inkscape"
   xmlns:sodipodi="http://sodipodi.sourceforge.net/DTD/sodipodi-0.dtd"
   xmlns="http://www.w3.org/2000/svg"
   xmlns:svg="http://www.w3.org/2000/svg">
  <sodipodi:namedview
     id="namedview5740"
     pagecolor="#505050"
     bordercolor="#eeeeee"
     borderopacity="1"
     inkscape:pageshadow="0"
     inkscape:pageopacity="0"
     inkscape:pagecheckerboard="0"
     inkscape:deskcolor="#505050"
     inkscape:document-units="mm"
     showgrid="false"
     inkscape:zoom="0.77949635"
     inkscape:cx="211.0337"
     inkscape:cy="-21.808954"
     inkscape:window-width="2560"
     inkscape:window-height="1043"
     inkscape:window-x="0"
     inkscape:window-y="0"
     inkscape:window-maximized="1"
     inkscape:current-layer="layer1" />
  <defs
     id="defs5735">
    <clipPath
       clipPathUnits="userSpaceOnUse"
       id="clipPath4785">
      <path
         d="m 205.098,176.105 -0.743,0.711 c -2.91,3.079 -4.628,7.86 -4.628,14.051 v -1.457 0 221.16 c 0,0.02 0,0.035 0,0.051 0,-0.019 0,-0.035 0,-0.055 v -1.461 c 0,6.704 2.003,11.754 5.359,14.782 L 328.984,299.992 205.098,176.105 m -5.371,234.528 c 0,0.551 0.015,1.086 0.043,1.613 -0.028,-0.523 -0.043,-1.062 -0.043,-1.613 m 0.043,1.637 c 0,0.007 0,0.015 0.003,0.023 -0.003,-0.008 -0.003,-0.016 -0.003,-0.023 m 0.003,0.07 c 0,0.004 0,0.008 0,0.012 0,-0.004 0,-0.008 0,-0.012"
         id="path4783" />
    </clipPath>
    <linearGradient
       x1="0"
       y1="0"
       x2="1"
       y2="0"
       gradientUnits="userSpaceOnUse"
       gradientTransform="matrix(-167.825,-167.825,167.825,-167.825,317.998,412.903)"
       spreadMethod="pad"
       id="linearGradient4799">
      <stop
         style="stop-opacity:1;stop-color:#00a0ff"
         offset="0"
         id="stop4787" />
      <stop
         style="stop-opacity:1;stop-color:#00a1ff"
         offset="0.00657445"
         id="stop4789" />
      <stop
         style="stop-opacity:1;stop-color:#00beff"
         offset="0.2601"
         id="stop4791" />
      <stop
         style="stop-opacity:1;stop-color:#00d2ff"
         offset="0.5122"
         id="stop4793" />
      <stop
         style="stop-opacity:1;stop-color:#00dfff"
         offset="0.7604"
         id="stop4795" />
      <stop
         style="stop-opacity:1;stop-color:#00e3ff"
         offset="1"
         id="stop4797" />
    </linearGradient>
    <clipPath
       clipPathUnits="userSpaceOnUse"
       id="clipPath4809">
      <path
         d="m 370.277,257.215 v 0 l 0.942,0.535 48.929,27.801 c 4.665,2.652 7.774,5.867 9.325,9.269 -1.547,-3.402 -4.657,-6.621 -9.325,-9.273 l -48.929,-27.801 -0.942,-0.531 m 0.012,1.465 -41.305,41.312 41.301,41.305 49.863,-28.328 c 6.332,-3.598 9.887,-8.235 10.481,-12.973 0,-0.004 0,-0.012 0,-0.019 -0.594,-4.727 -4.149,-9.368 -10.481,-12.965 L 370.289,258.68"
         id="path4807" />
    </clipPath>
    <linearGradient
       x1="0"
       y1="0"
       x2="1"
       y2="0"
       gradientUnits="userSpaceOnUse"
       gradientTransform="matrix(-241.97,0,0,-241.97,438.344,299.986)"
       spreadMethod="pad"
       id="linearGradient4819">
      <stop
         style="stop-opacity:1;stop-color:#ffe000"
         offset="0"
         id="stop4811" />
      <stop
         style="stop-opacity:1;stop-color:#ffbd00"
         offset="0.4087"
         id="stop4813" />
      <stop
         style="stop-opacity:1;stop-color:#ffa500"
         offset="0.7754"
         id="stop4815" />
      <stop
         style="stop-opacity:1;stop-color:#ff9c00"
         offset="1"
         id="stop4817" />
    </linearGradient>
    <clipPath
       clipPathUnits="userSpaceOnUse"
       id="clipPath4829">
      <path
         d="m 213.93,171.387 c -3.461,0 -6.481,1.125 -8.836,3.25 l 0.004,0.004 c 2.355,-2.125 5.379,-3.254 8.84,-3.254 0.3,0 0.605,0.008 0.914,0.023 -0.313,-0.015 -0.622,-0.023 -0.922,-0.023 m 0.004,1.465 c -3.461,-0.004 -6.481,1.125 -8.836,3.25 v 0 0.003 l 123.886,123.887 41.305,-41.312 v 0 L 225.137,176.207 c -4.016,-2.277 -7.821,-3.355 -11.203,-3.355 m -8.871,1.812 c -0.219,0.199 -0.434,0.41 -0.645,0.629 l 0.645,-0.629"
         id="path4827" />
    </clipPath>
    <linearGradient
       x1="0"
       y1="0"
       x2="1"
       y2="0"
       gradientUnits="userSpaceOnUse"
       gradientTransform="matrix(-227.583,-227.583,227.583,-227.583,348.27,277.039)"
       spreadMethod="pad"
       id="linearGradient4835">
      <stop
         style="stop-opacity:1;stop-color:#ff3a44"
         offset="0"
         id="stop4831" />
      <stop
         style="stop-opacity:1;stop-color:#c31162"
         offset="1"
         id="stop4833" />
    </linearGradient>
    <clipPath
       clipPathUnits="userSpaceOnUse"
       id="clipPath4845">
      <path
         d="m 328.984,299.992 v 0 L 205.086,423.887 c 2.355,2.121 5.371,3.246 8.828,3.246 3.391,0 7.199,-1.082 11.223,-3.363 l 145.148,-82.473 -41.301,-41.305 m 42.235,42.238 -146.082,83 c -4.024,2.282 -7.832,3.364 -11.223,3.364 -0.016,0 -0.027,0 -0.043,0 0.02,0 0.035,0 0.059,0 3.383,0 7.187,-1.078 11.207,-3.36 L 371.219,342.23 M 213.84,428.594 v 0 0"
         id="path4843" />
    </clipPath>
    <linearGradient
       x1="0"
       y1="0"
       x2="1"
       y2="0"
       gradientUnits="userSpaceOnUse"
       gradientTransform="matrix(101.625,-101.625,101.625,101.625,172.973,498.238)"
       spreadMethod="pad"
       id="linearGradient4857">
      <stop
         style="stop-opacity:1;stop-color:#32a071"
         offset="0"
         id="stop4847" />
      <stop
         style="stop-opacity:1;stop-color:#2da771"
         offset="0.0685"
         id="stop4849" />
      <stop
         style="stop-opacity:1;stop-color:#15cf74"
         offset="0.4762"
         id="stop4851" />
      <stop
         style="stop-opacity:1;stop-color:#06e775"
         offset="0.8009"
         id="stop4853" />
      <stop
         style="stop-opacity:1;stop-color:#00f076"
         offset="1"
         id="stop4855" />
    </linearGradient>
    <clipPath
       clipPathUnits="userSpaceOnUse"
       id="clipPath4869">
      <path
         d="m 370.277,257.215 v 0 l 0.942,0.535 -0.942,-0.535"
         id="path4867" />
    </clipPath>
    <linearGradient
       x1="0"
       y1="0"
       x2="1"
       y2="0"
       gradientUnits="userSpaceOnUse"
       gradientTransform="matrix(-241.97,0,0,-241.97,438.344,299.986)"
       spreadMethod="pad"
       id="linearGradient4879">
      <stop
         style="stop-opacity:1;stop-color:#ccb300"
         offset="0"
         id="stop4871" />
      <stop
         style="stop-opacity:1;stop-color:#cc9700"
         offset="0.4087"
         id="stop4873" />
      <stop
         style="stop-opacity:1;stop-color:#cc8400"
         offset="0.7754"
         id="stop4875" />
      <stop
         style="stop-opacity:1;stop-color:#cc7d00"
         offset="1"
         id="stop4877" />
    </linearGradient>
    <clipPath
       clipPathUnits="userSpaceOnUse"
       id="clipPath4889">
      <path
         d="m 213.938,171.387 c -3.461,0 -6.485,1.129 -8.84,3.254 l -0.004,-0.004 c -0.008,0.008 -0.02,0.019 -0.031,0.027 l -0.645,0.629 c -0.02,0.02 -0.039,0.043 -0.063,0.066 l 0.743,0.743 c 2.355,-2.125 5.375,-3.254 8.836,-3.25 3.382,0 7.187,1.078 11.203,3.355 l 145.152,82.473 0.93,-0.93 -0.942,-0.535 -145.14,-82.469 c -3.66,-2.074 -7.141,-3.156 -10.285,-3.336 -0.309,-0.015 -0.614,-0.023 -0.914,-0.023"
         id="path4887" />
    </clipPath>
    <linearGradient
       x1="0"
       y1="0"
       x2="1"
       y2="0"
       gradientUnits="userSpaceOnUse"
       gradientTransform="matrix(-227.583,-227.583,227.583,-227.583,348.27,277.039)"
       spreadMethod="pad"
       id="linearGradient4895">
      <stop
         style="stop-opacity:1;stop-color:#cc2e36"
         offset="0"
         id="stop4891" />
      <stop
         style="stop-opacity:1;stop-color:#9c0e4e"
         offset="1"
         id="stop4893" />
    </linearGradient>
    <clipPath
       clipPathUnits="userSpaceOnUse"
       id="clipPath4907">
      <path
         d="m 204.355,175.359 v 0 c -2.91,3.079 -4.628,7.856 -4.628,14.051 v 1.457 c 0,-6.191 1.718,-10.972 4.628,-14.051 l 0.743,-0.711 -0.743,-0.746"
         id="path4905" />
    </clipPath>
    <linearGradient
       x1="0"
       y1="0"
       x2="1"
       y2="0"
       gradientUnits="userSpaceOnUse"
       gradientTransform="matrix(-167.825,-167.825,167.825,-167.825,317.998,412.903)"
       spreadMethod="pad"
       id="linearGradient4921">
      <stop
         style="stop-opacity:1;stop-color:#008de0"
         offset="0"
         id="stop4909" />
      <stop
         style="stop-opacity:1;stop-color:#008de0"
         offset="0.00657445"
         id="stop4911" />
      <stop
         style="stop-opacity:1;stop-color:#00a7e0"
         offset="0.2601"
         id="stop4913" />
      <stop
         style="stop-opacity:1;stop-color:#00b8e0"
         offset="0.5122"
         id="stop4915" />
      <stop
         style="stop-opacity:1;stop-color:#00c4e0"
         offset="0.7604"
         id="stop4917" />
      <stop
         style="stop-opacity:1;stop-color:#00c7e0"
         offset="1"
         id="stop4919" />
    </linearGradient>
    <clipPath
       clipPathUnits="userSpaceOnUse"
       id="clipPath4931">
      <path
         d="m 204.355,175.359 v 0 0 l 0.743,0.746 v -0.003 l -0.743,-0.743"
         id="path4929" />
    </clipPath>
    <linearGradient
       x1="0"
       y1="0"
       x2="1"
       y2="0"
       gradientUnits="userSpaceOnUse"
       gradientTransform="matrix(-227.583,-227.583,227.583,-227.583,348.27,277.039)"
       spreadMethod="pad"
       id="linearGradient4937">
      <stop
         style="stop-opacity:1;stop-color:#e0333c"
         offset="0"
         id="stop4933" />
      <stop
         style="stop-opacity:1;stop-color:#ab0f56"
         offset="1"
         id="stop4935" />
    </linearGradient>
    <clipPath
       clipPathUnits="userSpaceOnUse"
       id="clipPath4949">
      <path
         d="m 371.219,257.75 v 0 l -0.93,0.93 49.859,28.332 c 6.332,3.597 9.887,8.238 10.481,12.965 0,-1.735 -0.387,-3.469 -1.156,-5.157 -1.551,-3.402 -4.66,-6.617 -9.325,-9.269 L 371.219,257.75"
         id="path4947" />
    </clipPath>
    <linearGradient
       x1="0"
       y1="0"
       x2="1"
       y2="0"
       gradientUnits="userSpaceOnUse"
       gradientTransform="matrix(-241.97,0,0,-241.97,438.344,299.986)"
       spreadMethod="pad"
       id="linearGradient4959">
      <stop
         style="stop-opacity:1;stop-color:#e0c500"
         offset="0"
         id="stop4951" />
      <stop
         style="stop-opacity:1;stop-color:#e0a600"
         offset="0.4087"
         id="stop4953" />
      <stop
         style="stop-opacity:1;stop-color:#e09100"
         offset="0.7754"
         id="stop4955" />
      <stop
         style="stop-opacity:1;stop-color:#e08900"
         offset="1"
         id="stop4957" />
    </linearGradient>
    <clipPath
       clipPathUnits="userSpaceOnUse"
       id="clipPath4971">
      <path
         d="m 430.629,299.996 c -0.594,4.738 -4.149,9.375 -10.481,12.973 l -49.863,28.328 0.93,0.93 h 0.004 l 48.929,-27.801 c 6.981,-3.969 10.477,-9.199 10.481,-14.43"
         id="path4969" />
    </clipPath>
    <linearGradient
       x1="0"
       y1="0"
       x2="1"
       y2="0"
       gradientUnits="userSpaceOnUse"
       gradientTransform="matrix(-241.97,0,0,-241.97,438.344,299.986)"
       spreadMethod="pad"
       id="linearGradient4981">
      <stop
         style="stop-opacity:1;stop-color:#ffe840"
         offset="0"
         id="stop4973" />
      <stop
         style="stop-opacity:1;stop-color:#ffce40"
         offset="0.4087"
         id="stop4975" />
      <stop
         style="stop-opacity:1;stop-color:#ffbc40"
         offset="0.7754"
         id="stop4977" />
      <stop
         style="stop-opacity:1;stop-color:#ffb540"
         offset="1"
         id="stop4979" />
    </linearGradient>
    <clipPath
       clipPathUnits="userSpaceOnUse"
       id="clipPath4993">
      <path
         d="m 199.727,409.105 v 1.461 c 0,0.02 0,0.036 0,0.055 0,0.004 0,0.008 0,0.012 0,0.551 0.015,1.09 0.043,1.613 0,0.008 0,0.016 0,0.024 0,0.007 0,0.015 0.003,0.023 0,0.016 0,0.031 0,0.047 0,0.004 0,0.008 0,0.012 0.301,5.332 1.957,9.492 4.582,12.269 v 0 0 l 0.731,-0.734 c -3.356,-3.028 -5.359,-8.078 -5.359,-14.782 m 5.339,16.215 0.028,0.028 c -0.008,-0.012 -0.02,-0.02 -0.028,-0.028"
         id="path4991" />
    </clipPath>
    <linearGradient
       x1="0"
       y1="0"
       x2="1"
       y2="0"
       gradientUnits="userSpaceOnUse"
       gradientTransform="matrix(-167.825,-167.825,167.825,-167.825,317.998,412.903)"
       spreadMethod="pad"
       id="linearGradient5007">
      <stop
         style="stop-opacity:1;stop-color:#40b8ff"
         offset="0"
         id="stop4995" />
      <stop
         style="stop-opacity:1;stop-color:#40b9ff"
         offset="0.00657445"
         id="stop4997" />
      <stop
         style="stop-opacity:1;stop-color:#40ceff"
         offset="0.2601"
         id="stop4999" />
      <stop
         style="stop-opacity:1;stop-color:#40ddff"
         offset="0.5122"
         id="stop5001" />
      <stop
         style="stop-opacity:1;stop-color:#40e7ff"
         offset="0.7604"
         id="stop5003" />
      <stop
         style="stop-opacity:1;stop-color:#40eaff"
         offset="1"
         id="stop5005" />
    </linearGradient>
    <clipPath
       clipPathUnits="userSpaceOnUse"
       id="clipPath5019">
      <path
         d="M 370.285,341.297 225.137,423.77 c -4.024,2.281 -7.832,3.363 -11.223,3.363 -3.457,0 -6.473,-1.125 -8.828,-3.246 l -0.731,0.734 v 0 c 0.231,0.242 0.465,0.477 0.711,0.699 0.008,0.008 0.02,0.016 0.028,0.024 2.336,2.105 5.32,3.23 8.746,3.25 v 0 c 0.008,0 0.019,0 0.031,0 0.016,0 0.027,0 0.043,0 3.391,0 7.199,-1.082 11.223,-3.364 l 146.082,-83 -0.004,-0.003 -0.93,-0.93"
         id="path5017" />
    </clipPath>
    <linearGradient
       x1="0"
       y1="0"
       x2="1"
       y2="0"
       gradientUnits="userSpaceOnUse"
       gradientTransform="matrix(101.625,-101.625,101.625,101.625,172.973,498.238)"
       spreadMethod="pad"
       id="linearGradient5031">
      <stop
         style="stop-opacity:1;stop-color:#65b895"
         offset="0"
         id="stop5021" />
      <stop
         style="stop-opacity:1;stop-color:#62bd95"
         offset="0.0685"
         id="stop5023" />
      <stop
         style="stop-opacity:1;stop-color:#50db97"
         offset="0.4762"
         id="stop5025" />
      <stop
         style="stop-opacity:1;stop-color:#44ed98"
         offset="0.8009"
         id="stop5027" />
      <stop
         style="stop-opacity:1;stop-color:#40f498"
         offset="1"
         id="stop5029" />
    </linearGradient>
  </defs>
  <g
     inkscape:label="Layer 1"
     inkscape:groupmode="layer"
     id="layer1"
     transform="translate(-26.422927,-100.20387)">
    <path
       d="M 72.284041,114.31498 H 28.186816 c -0.970139,0 -1.763889,-0.79375 -1.763889,-1.76389 v -10.58333 c 0,-0.97014 0.79375,-1.76389 1.763889,-1.76389 h 44.097225 c 0.970139,0 1.763889,0.79375 1.763889,1.76389 v 10.58333 c 0,0.97014 -0.79375,1.76389 -1.763889,1.76389"
       style="fill:#000000;fill-opacity:1;fill-rule:nonzero;stroke:none;stroke-width:0.0352778"
       id="path4773" />
    <path
       d="M 72.284041,100.20387 H 28.186816 c -0.970139,0 -1.763889,0.79375 -1.763889,1.76389 v 10.58333 c 0,0.97014 0.79375,1.76389 1.763889,1.76389 h 44.097225 c 0.970139,0 1.763889,-0.79375 1.763889,-1.76389 v -10.58333 c 0,-0.97014 -0.79375,-1.76389 -1.763889,-1.76389 m 0,0.28222 c 0.817033,0 1.481667,0.66478 1.481667,1.48167 v 10.58333 c 0,0.81704 -0.664634,1.48181 -1.481667,1.48181 H 28.186816 c -0.816892,0 -1.481667,-0.66477 -1.481667,-1.48181 v -10.58333 c 0,-0.81689 0.664775,-1.48167 1.481667,-1.48167 h 44.097225"
       style="fill:#a6a6a6;fill-opacity:1;fill-rule:nonzero;stroke:none;stroke-width:0.0352778"
       id="path4775" />
    <path
       d="m 64.147574,110.7872 h 0.658283 v -4.41014 h -0.658283 z m 5.929136,-2.82151 -0.754591,1.91202 h -0.02258 l -0.783167,-1.91202 h -0.709083 l 1.174397,2.67239 -0.669572,1.4865 h 0.686858 l 1.80975,-4.15889 z m -3.733094,2.3206 c -0.2159,0 -0.516467,-0.10777 -0.516467,-0.37454 0,-0.34039 0.37465,-0.47089 0.697794,-0.47089 0.289631,0 0.42545,0.0624 0.601487,0.14761 -0.05115,0.40844 -0.402873,0.69782 -0.782814,0.69782 z m 0.07937,-2.41709 c -0.476603,0 -0.970139,0.21001 -1.174398,0.67525 l 0.5842,0.24391 c 0.124884,-0.24391 0.357364,-0.32342 0.601487,-0.32342 0.34043,0 0.686505,0.20436 0.69215,0.56748 v 0.0453 c -0.119239,-0.0681 -0.374298,-0.17018 -0.686506,-0.17018 -0.629708,0 -1.271058,0.346 -1.271058,0.99286 0,0.59009 0.516466,0.97028 1.095022,0.97028 0.442736,0 0.686505,-0.19858 0.839964,-0.43117 h 0.02258 v 0.34036 h 0.635352 v -1.69086 c 0,-0.78285 -0.5842,-1.21984 -1.338791,-1.21984 z m -4.068234,0.63334 H 61.41848 v -1.51168 h 0.936272 c 0.492125,0 0.771525,0.40745 0.771525,0.75582 0,0.34177 -0.2794,0.75586 -0.771525,0.75586 z m -0.01693,-2.12548 h -1.57727 v 4.41014 h 0.657931 v -1.67086 h 0.919339 c 0.729544,0 1.446741,-0.52821 1.446741,-1.36966 0,-0.84141 -0.717197,-1.36962 -1.446741,-1.36962 z m -8.601076,3.91005 c -0.454766,0 -0.835519,-0.38076 -0.835519,-0.90371 0,-0.52847 0.380753,-0.915 0.835519,-0.915 0.44898,0 0.801335,0.38653 0.801335,0.915 0,0.52295 -0.352355,0.90371 -0.801335,0.90371 z m 0.755862,-2.07448 h -0.02275 c -0.147708,-0.17614 -0.432012,-0.33528 -0.790011,-0.33528 -0.750217,0 -1.437852,0.65924 -1.437852,1.50605 0,0.84116 0.687635,1.49475 1.437852,1.49475 0.357999,0 0.642303,-0.15917 0.790011,-0.34092 h 0.02275 v 0.21593 c 0,0.57411 -0.306882,0.88099 -0.801335,0.88099 -0.403507,0 -0.653591,-0.28995 -0.756003,-0.53428 l -0.573934,0.23869 c 0.164818,0.39783 0.602474,0.88664 1.329937,0.88664 0.772936,0 1.426528,-0.45477 1.426528,-1.56299 V 107.9683 H 54.49261 Z m 1.079817,2.57457 h 0.659272 v -4.41028 h -0.659272 z m 1.631174,-1.45492 c -0.01707,-0.57976 0.448981,-0.87521 0.784261,-0.87521 0.26162,0 0.483164,0.13063 0.556895,0.31835 z m 2.046006,-0.5001 c -0.124883,-0.33542 -0.505884,-0.95483 -1.284499,-0.95483 -0.772937,0 -1.415098,0.60812 -1.415098,1.5004 0,0.84116 0.636517,1.5004 1.488969,1.5004 0.687811,0 1.085745,-0.42058 1.250492,-0.66492 l -0.511528,-0.34106 c -0.170392,0.25012 -0.403578,0.41494 -0.738964,0.41494 -0.33528,0 -0.573934,-0.1535 -0.727463,-0.45463 l 2.006177,-0.82984 z M 43.26588,108.33773 v 0.63651 h 1.523118 c -0.04547,0.35804 -0.164818,0.61945 -0.34671,0.80134 -0.22158,0.22172 -0.56829,0.46605 -1.176408,0.46605 -0.937789,0 -1.670897,-0.75586 -1.670897,-1.69361 0,-0.93776 0.733108,-1.69372 1.670897,-1.69372 0.505848,0 0.875171,0.19896 1.148009,0.45473 l 0.448981,-0.44895 c -0.380754,-0.36382 -0.886637,-0.6423 -1.59699,-0.6423 -1.2845,0 -2.364317,1.04577 -2.364317,2.33024 0,1.28446 1.079817,2.33013 2.364317,2.33013 0.69342,0 1.216236,-0.22722 1.625388,-0.65359 0.420582,-0.42058 0.551357,-1.01163 0.551357,-1.48897 0,-0.14789 -0.01132,-0.28416 -0.03419,-0.39786 z m 3.90839,1.94938 c -0.454766,0 -0.846949,-0.37511 -0.846949,-0.90936 0,-0.53993 0.392183,-0.90935 0.846949,-0.90935 0.454589,0 0.846772,0.36942 0.846772,0.90935 0,0.53425 -0.392183,0.90936 -0.846772,0.90936 z m 0,-2.40976 c -0.829875,0 -1.50622,0.63084 -1.50622,1.5004 0,0.86388 0.676345,1.5004 1.50622,1.5004 0.829698,0 1.506043,-0.63652 1.506043,-1.5004 0,-0.86956 -0.676345,-1.5004 -1.506043,-1.5004 z m 3.28549,2.40976 c -0.45459,0 -0.846808,-0.37511 -0.846808,-0.90936 0,-0.53993 0.392218,-0.90935 0.846808,-0.90935 0.454625,0 0.846808,0.36942 0.846808,0.90935 0,0.53425 -0.392183,0.90936 -0.846808,0.90936 z m 0,-2.40976 c -0.829839,0 -1.506044,0.63084 -1.506044,1.5004 0,0.86388 0.676205,1.5004 1.506044,1.5004 0.829733,0 1.506079,-0.63652 1.506079,-1.5004 0,-0.86956 -0.676346,-1.5004 -1.506079,-1.5004"
       style="fill:#ffffff;fill-opacity:1;fill-rule:nonzero;stroke:none;stroke-width:0.0352778"
       id="path4777" />
    <g
       id="g4779"
       transform="matrix(0.03527778,0,0,-0.03527778,22.895149,117.84276)">
      <g
         id="g4781"
         clip-path="url(#clipPath4785)">
        <path
           d="m 205.098,176.105 -0.743,0.711 c -2.91,3.079 -4.628,7.86 -4.628,14.051 v -1.457 0 221.16 c 0,0.02 0,0.035 0,0.051 0,-0.019 0,-0.035 0,-0.055 v -1.461 c 0,6.704 2.003,11.754 5.359,14.782 L 328.984,299.992 205.098,176.105 m -5.371,234.528 c 0,0.551 0.015,1.086 0.043,1.613 -0.028,-0.523 -0.043,-1.062 -0.043,-1.613 m 0.043,1.637 c 0,0.007 0,0.015 0.003,0.023 -0.003,-0.008 -0.003,-0.016 -0.003,-0.023 m 0.003,0.07 c 0,0.004 0,0.008 0,0.012 0,-0.004 0,-0.008 0,-0.012"
           style="fill:url(#linearGradient4799);fill-opacity:1;fill-rule:nonzero;stroke:none"
           id="path4801" />
      </g>
    </g>
    <g
       id="g4803"
       transform="matrix(0.03527778,0,0,-0.03527778,22.895149,117.84276)">
      <g
         id="g4805"
         clip-path="url(#clipPath4809)">
        <path
           d="m 370.277,257.215 v 0 l 0.942,0.535 48.929,27.801 c 4.665,2.652 7.774,5.867 9.325,9.269 -1.547,-3.402 -4.657,-6.621 -9.325,-9.273 l -48.929,-27.801 -0.942,-0.531 m 0.012,1.465 -41.305,41.312 41.301,41.305 49.863,-28.328 c 6.332,-3.598 9.887,-8.235 10.481,-12.973 0,-0.004 0,-0.012 0,-0.019 -0.594,-4.727 -4.149,-9.368 -10.481,-12.965 L 370.289,258.68"
           style="fill:url(#linearGradient4819);fill-opacity:1;fill-rule:nonzero;stroke:none"
           id="path4821" />
      </g>
    </g>
    <g
       id="g4823"
       transform="matrix(0.03527778,0,0,-0.03527778,22.895149,117.84276)">
      <g
         id="g4825"
         clip-path="url(#clipPath4829)">
        <path
           d="m 213.93,171.387 c -3.461,0 -6.481,1.125 -8.836,3.25 l 0.004,0.004 c 2.355,-2.125 5.379,-3.254 8.84,-3.254 0.3,0 0.605,0.008 0.914,0.023 -0.313,-0.015 -0.622,-0.023 -0.922,-0.023 m 0.004,1.465 c -3.461,-0.004 -6.481,1.125 -8.836,3.25 v 0 0.003 l 123.886,123.887 41.305,-41.312 v 0 L 225.137,176.207 c -4.016,-2.277 -7.821,-3.355 -11.203,-3.355 m -8.871,1.812 c -0.219,0.199 -0.434,0.41 -0.645,0.629 l 0.645,-0.629"
           style="fill:url(#linearGradient4835);fill-opacity:1;fill-rule:nonzero;stroke:none"
           id="path4837" />
      </g>
    </g>
    <g
       id="g4839"
       transform="matrix(0.03527778,0,0,-0.03527778,22.895149,117.84276)">
      <g
         id="g4841"
         clip-path="url(#clipPath4845)">
        <path
           d="m 328.984,299.992 v 0 L 205.086,423.887 c 2.355,2.121 5.371,3.246 8.828,3.246 3.391,0 7.199,-1.082 11.223,-3.363 l 145.148,-82.473 -41.301,-41.305 m 42.235,42.238 -146.082,83 c -4.024,2.282 -7.832,3.364 -11.223,3.364 -0.016,0 -0.027,0 -0.043,0 0.02,0 0.035,0 0.059,0 3.383,0 7.187,-1.078 11.207,-3.36 L 371.219,342.23 M 213.84,428.594 v 0 0"
           style="fill:url(#linearGradient4857);fill-opacity:1;fill-rule:nonzero;stroke:none"
           id="path4859" />
      </g>
    </g>
    <path
       d="m 30.474651,111.7958 c 0.110913,-0.006 0.233715,-0.0445 0.362832,-0.11769 l 5.120217,-2.90932 v 0 l -5.120217,2.90932 c -0.129011,0.0733 -0.251919,0.11134 -0.362832,0.11769 m -0.344241,-0.11385 -0.0011,-9.5e-4 c 3.88e-4,2.8e-4 8.12e-4,6.7e-4 0.0011,9.5e-4 v 0 m -0.02385,-0.0231 -0.0022,-0.002 v -1.4e-4 c 8.46e-4,8.2e-4 0.0015,0.002 0.0022,0.002"
       style="fill:#000000;fill-opacity:1;fill-rule:nonzero;stroke:none;stroke-width:0.0352778"
       id="path4861" />
    <g
       id="g4863"
       transform="matrix(0.03527778,0,0,-0.03527778,22.895149,117.84276)">
      <g
         id="g4865"
         clip-path="url(#clipPath4869)">
        <path
           d="m 370.277,257.215 v 0 l 0.942,0.535 -0.942,-0.535"
           style="fill:url(#linearGradient4879);fill-opacity:1;fill-rule:nonzero;stroke:none"
           id="path4881" />
      </g>
    </g>
    <g
       id="g4883"
       transform="matrix(0.03527778,0,0,-0.03527778,22.895149,117.84276)">
      <g
         id="g4885"
         clip-path="url(#clipPath4889)">
        <path
           d="m 213.938,171.387 c -3.461,0 -6.485,1.129 -8.84,3.254 l -0.004,-0.004 c -0.008,0.008 -0.02,0.019 -0.031,0.027 l -0.645,0.629 c -0.02,0.02 -0.039,0.043 -0.063,0.066 l 0.743,0.743 c 2.355,-2.125 5.375,-3.254 8.836,-3.25 3.382,0 7.187,1.078 11.203,3.355 l 145.152,82.473 0.93,-0.93 -0.942,-0.535 -145.14,-82.469 c -3.66,-2.074 -7.141,-3.156 -10.285,-3.336 -0.309,-0.015 -0.614,-0.023 -0.914,-0.023"
           style="fill:url(#linearGradient4895);fill-opacity:1;fill-rule:nonzero;stroke:none"
           id="path4897" />
      </g>
    </g>
    <path
       d="m 30.10434,111.65662 c -0.102659,-0.10862 -0.163266,-0.27728 -0.163266,-0.49568 v -1.4e-4 c 0,0.21854 0.06061,0.38706 0.163266,0.49568 v 0 0 1.4e-4"
       style="fill:#000000;fill-opacity:1;fill-rule:nonzero;stroke:none;stroke-width:0.0352778"
       id="path4899" />
    <g
       id="g4901"
       transform="matrix(0.03527778,0,0,-0.03527778,22.895149,117.84276)">
      <g
         id="g4903"
         clip-path="url(#clipPath4907)">
        <path
           d="m 204.355,175.359 v 0 c -2.91,3.079 -4.628,7.856 -4.628,14.051 v 1.457 c 0,-6.191 1.718,-10.972 4.628,-14.051 l 0.743,-0.711 -0.743,-0.746"
           style="fill:url(#linearGradient4921);fill-opacity:1;fill-rule:nonzero;stroke:none"
           id="path4923" />
      </g>
    </g>
    <g
       id="g4925"
       transform="matrix(0.03527778,0,0,-0.03527778,22.895149,117.84276)">
      <g
         id="g4927"
         clip-path="url(#clipPath4931)">
        <path
           d="m 204.355,175.359 v 0 0 l 0.743,0.746 v -0.003 l -0.743,-0.743"
           style="fill:url(#linearGradient4937);fill-opacity:1;fill-rule:nonzero;stroke:none"
           id="path4939" />
      </g>
    </g>
    <path
       d="m 38.046003,107.44216 c 0.02713,-0.0595 0.04078,-0.12072 0.04078,-0.18192 0,-1.1e-4 0,-2.5e-4 0,-2.5e-4 0,0.0613 -0.01365,0.12248 -0.04078,0.18217"
       style="fill:#000000;fill-opacity:1;fill-rule:nonzero;stroke:none;stroke-width:0.0352778"
       id="path4941" />
    <g
       id="g4943"
       transform="matrix(0.03527778,0,0,-0.03527778,22.895149,117.84276)">
      <g
         id="g4945"
         clip-path="url(#clipPath4949)">
        <path
           d="m 371.219,257.75 v 0 l -0.93,0.93 49.859,28.332 c 6.332,3.597 9.887,8.238 10.481,12.965 0,-1.735 -0.387,-3.469 -1.156,-5.157 -1.551,-3.402 -4.66,-6.617 -9.325,-9.269 L 371.219,257.75"
           style="fill:url(#linearGradient4959);fill-opacity:1;fill-rule:nonzero;stroke:none"
           id="path4961" />
      </g>
    </g>
    <path
       d="m 38.086784,107.25971 v -1.4e-4 c -1.41e-4,-0.18454 -0.123472,-0.36904 -0.369746,-0.50906 l -1.726107,-0.98076 h -1.41e-4 l 1.41e-4,-1e-4 1.726107,0.98072 c 0.246556,0.14002 0.370028,0.3248 0.369746,0.50934"
       style="fill:#404040;fill-opacity:1;fill-rule:nonzero;stroke:none;stroke-width:0.0352778"
       id="path4963" />
    <g
       id="g4965"
       transform="matrix(0.03527778,0,0,-0.03527778,22.895149,117.84276)">
      <g
         id="g4967"
         clip-path="url(#clipPath4971)">
        <path
           d="m 430.629,299.996 c -0.594,4.738 -4.149,9.375 -10.481,12.973 l -49.863,28.328 0.93,0.93 h 0.004 l 48.929,-27.801 c 6.981,-3.969 10.477,-9.199 10.481,-14.43"
           style="fill:url(#linearGradient4981);fill-opacity:1;fill-rule:nonzero;stroke:none"
           id="path4983" />
      </g>
    </g>
    <path
       d="m 29.941074,103.35696 c 0,-1.4e-4 0,-2.8e-4 0,-4.2e-4 0,1.4e-4 0,2.8e-4 0,4.2e-4 m 0.0015,-0.0573 c 0,-2.9e-4 0,-5.7e-4 0,-8.5e-4 0,2.8e-4 0,5.6e-4 0,8.5e-4 m 1.06e-4,-0.002 c 0,-5.7e-4 0,-10e-4 0,-0.002 0,5.6e-4 0,0.001 0,0.002 m 0,-0.002 c 0.02043,-0.36241 0.217487,-0.57175 0.496252,-0.57298 -0.120861,7e-4 -0.22613,0.0404 -0.308539,0.11465 v -1.4e-4 l -9.88e-4,9.8e-4 c -0.0087,0.008 -0.01693,0.0161 -0.02508,0.0247 v 0 c -0.0926,0.098 -0.151024,0.24473 -0.161643,0.43283"
       style="fill:#404040;fill-opacity:1;fill-rule:nonzero;stroke:none;stroke-width:0.0352778"
       id="path4985" />
    <g
       id="g4987"
       transform="matrix(0.03527778,0,0,-0.03527778,22.895149,117.84276)">
      <g
         id="g4989"
         clip-path="url(#clipPath4993)">
        <path
           d="m 199.727,409.105 v 1.461 c 0,0.02 0,0.036 0,0.055 0,0.004 0,0.008 0,0.012 0,0.551 0.015,1.09 0.043,1.613 0,0.008 0,0.016 0,0.024 0,0.007 0,0.015 0.003,0.023 0,0.016 0,0.031 0,0.047 0,0.004 0,0.008 0,0.012 0.301,5.332 1.957,9.492 4.582,12.269 v 0 0 l 0.731,-0.734 c -3.356,-3.028 -5.359,-8.078 -5.359,-14.782 m 5.339,16.215 0.028,0.028 c -0.008,-0.012 -0.02,-0.02 -0.028,-0.028"
           style="fill:url(#linearGradient5007);fill-opacity:1;fill-rule:nonzero;stroke:none"
           id="path5009" />
      </g>
    </g>
    <path
       d="m 30.438949,102.72292 c 2.83e-4,0 6.71e-4,0 0.0011,0 -4.23e-4,0 -8.11e-4,0 -0.0011,0"
       style="fill:#404040;fill-opacity:1;fill-rule:nonzero;stroke:none;stroke-width:0.0352778"
       id="path5011" />
    <g
       id="g5013"
       transform="matrix(0.03527778,0,0,-0.03527778,22.895149,117.84276)">
      <g
         id="g5015"
         clip-path="url(#clipPath5019)">
        <path
           d="M 370.285,341.297 225.137,423.77 c -4.024,2.281 -7.832,3.363 -11.223,3.363 -3.457,0 -6.473,-1.125 -8.828,-3.246 l -0.731,0.734 v 0 c 0.231,0.242 0.465,0.477 0.711,0.699 0.008,0.008 0.02,0.016 0.028,0.024 2.336,2.105 5.32,3.23 8.746,3.25 v 0 c 0.008,0 0.019,0 0.031,0 0.016,0 0.027,0 0.043,0 3.391,0 7.199,-1.082 11.223,-3.364 l 146.082,-83 -0.004,-0.003 -0.93,-0.93"
           style="fill:url(#linearGradient5031);fill-opacity:1;fill-rule:nonzero;stroke:none"
           id="path5033" />
      </g>
    </g>
    <path
       d="m 41.596359,104.83725 c -0.154058,0 -0.284974,-0.0427 -0.393418,-0.12858 -0.108162,-0.0857 -0.185349,-0.20627 -0.23054,-0.36199 l 0.248461,-0.10365 c 0.06297,0.22282 0.192229,0.33405 0.387209,0.33405 0.126118,0 0.223238,-0.0408 0.291042,-0.12266 0.06795,-0.0816 0.101988,-0.19265 0.101988,-0.33253 v -1.44858 h 0.272168 v 1.44269 c 0,0.23068 -0.06368,0.40845 -0.190853,0.53358 -0.127071,0.12523 -0.288996,0.18767 -0.486057,0.18767"
       style="fill:#ffffff;fill-opacity:1;fill-rule:nonzero;stroke:none;stroke-width:0.0352778"
       id="path5035" />
    <path
       d="m 41.596359,104.83725 v -0.0353 c -0.147567,-2.9e-4 -0.269381,-0.0404 -0.371652,-0.12101 h 1.41e-4 c -0.101846,-0.0808 -0.174871,-0.19402 -0.218545,-0.34424 l -0.0339,0.01 0.01365,0.0325 0.24832,-0.10347 -0.01351,-0.0327 -0.0339,0.01 c 0.06297,0.23178 0.210961,0.3617 0.421111,0.35966 0.133279,5.3e-4 0.243523,-0.0447 0.318206,-0.13533 0.0744,-0.0896 0.110243,-0.20972 0.110102,-0.35514 v -1.4133 h 0.201612 v 1.40741 c -1.41e-4,0.22447 -0.06131,0.39105 -0.180269,0.50849 -0.120686,0.11836 -0.271604,0.17706 -0.461363,0.17749 v 0.0353 0.0353 c 0.204364,2.8e-4 0.377331,-0.0659 0.510857,-0.19777 0.135326,-0.1331 0.201613,-0.32205 0.201331,-0.55876 v -1.47796 h -0.307446 -0.03528 v 1.48385 c 0,0.13451 -0.03253,0.23622 -0.09384,0.30995 -0.06092,0.0729 -0.145097,0.1094 -0.263913,0.10996 -0.179811,-0.002 -0.290195,-0.0947 -0.353307,-0.30826 l -0.0109,-0.0383 -0.284974,0.11878 -0.02907,0.0121 0.0087,0.0303 c 0.04671,0.16122 0.127882,0.2891 0.242534,0.37991 v 0 c 0.114935,0.091 0.254918,0.13631 0.415326,0.13617 v -0.0353"
       style="fill:#ffffff;fill-opacity:1;fill-rule:nonzero;stroke:none;stroke-width:0.0352778"
       id="path5037" />
    <path
       d="m 43.958312,102.93335 h -0.96393 v 0.67112 h 0.869139 v 0.25435 h -0.869139 v 0.67113 h 0.96393 v 0.26003 h -1.235816 v -2.11667 h 1.235816 v 0.26004"
       style="fill:#ffffff;fill-opacity:1;fill-rule:nonzero;stroke:none;stroke-width:0.0352778"
       id="path5039" />
    <path
       d="m 43.958312,102.93335 v -0.0353 h -0.999208 v 0.74168 h 0.869139 v 0.18369 l -0.869139,1.1e-4 v 0.74168 h 0.96393 v 0.18947 h -1.16526 v -2.04611 h 1.16526 v 0.22476 h 0.03528 v -0.0353 0.0353 h 0.03528 v -0.26004 -0.0353 h -1.306372 v 2.18722 h 1.306372 v -0.29531 -0.0353 h -0.96393 v -0.60057 h 0.869138 v -0.28963 -0.0353 H 43.02966 v -0.60057 h 0.96393 v -0.0353 h -0.03528"
       style="fill:#ffffff;fill-opacity:1;fill-rule:nonzero;stroke:none;stroke-width:0.0352778"
       id="path5041" />
    <path
       d="m 45.105122,104.78998 h -0.272168 v -1.85663 h -0.59115 v -0.26004 h 1.454503 v 0.26004 h -0.591185 v 1.85663"
       style="fill:#ffffff;fill-opacity:1;fill-rule:nonzero;stroke:none;stroke-width:0.0352778"
       id="path5043" />
    <path
       d="m 45.105122,104.78998 v -0.0353 h -0.23689 v -1.85663 h -0.59115 v -0.18948 h 1.383947 v 0.18948 h -0.591185 v 1.89191 h 0.03528 v -0.0353 0.0353 h 0.03528 v -1.82136 h 0.591185 v -0.29531 -0.0353 H 44.20653 v 0.29531 0.0353 h 0.59115 v 1.85664 h 0.307446 0.03528 v -0.0353 h -0.03528"
       style="fill:#ffffff;fill-opacity:1;fill-rule:nonzero;stroke:none;stroke-width:0.0352778"
       id="path5045" />
    <path
       d="m 45.921344,104.78998 v -0.28388 l 1.126137,-1.57275 h -1.079006 v -0.26004 h 1.395272 v 0.28388 l -1.126138,1.57276 h 1.138238 v 0.26003 h -1.454503"
       style="fill:#ffffff;fill-opacity:1;fill-rule:nonzero;stroke:none;stroke-width:0.0352778"
       id="path5047" />
    <path
       d="m 45.921344,104.78998 h 0.03528 v -0.27259 l 1.159475,-1.61932 h -1.112344 v -0.18948 h 1.324716 v 0.23732 l -1.15951,1.61932 h 1.17161 v 0.18947 h -1.419225 v 0.0353 h 0.03528 -0.03528 v 0.0353 h 1.489781 v -0.29531 -0.0353 h -1.1049 l 1.092799,-1.52619 v -0.29517 -0.0353 h -1.465827 v 0.29531 0.0353 h 1.045669 l -1.0928,1.52619 v 0.29517 0.0353 h 0.03528 V 104.79"
       style="fill:#ffffff;fill-opacity:1;fill-rule:nonzero;stroke:none;stroke-width:0.0352778"
       id="path5049" />
    <path
       d="M 48.487238,104.78998 H 48.21507 v -1.85663 h -0.59115 v -0.26004 h 1.454503 v 0.26004 h -0.591185 v 1.85663"
       style="fill:#ffffff;fill-opacity:1;fill-rule:nonzero;stroke:none;stroke-width:0.0352778"
       id="path5051" />
    <path
       d="m 48.487238,104.78998 v -0.0353 h -0.23689 v -1.85663 h -0.59115 v -0.18948 h 1.383947 v 0.18948 H 48.45196 v 1.89191 h 0.03528 v -0.0353 0.0353 h 0.03528 v -1.82136 h 0.591185 v -0.29531 -0.0353 h -1.525059 v 0.29531 0.0353 h 0.59115 v 1.85664 h 0.307446 0.03528 v -0.0353 h -0.03528"
       style="fill:#ffffff;fill-opacity:1;fill-rule:nonzero;stroke:none;stroke-width:0.0352778"
       id="path5053" />
    <path
       d="m 50.402998,104.52995 h 0.546947 c 0.104457,0 0.189053,-0.0365 0.254247,-0.10968 0.06519,-0.0726 0.09758,-0.15258 0.09758,-0.23939 0,-0.0867 -0.03351,-0.16592 -0.100753,-0.23785 -0.06671,-0.0719 -0.154623,-0.10802 -0.263208,-0.10802 H 50.403 Z m 0,-0.94919 h 0.493466 c 0.102658,0 0.185067,-0.0338 0.247085,-0.10198 0.06202,-0.0679 0.09303,-0.14221 0.09303,-0.2231 0,-0.0807 -0.03006,-0.1549 -0.09028,-0.22158 -0.05994,-0.0671 -0.139171,-0.10075 -0.237702,-0.10075 h -0.505601 z m -0.271745,1.20922 v -2.11667 h 0.765211 c 0.165805,0 0.309103,0.0549 0.430388,0.16398 0.12125,0.10957 0.181893,0.24694 0.181893,0.41246 0,0.10044 -0.02618,0.1892 -0.07856,0.2661 -0.05193,0.0769 -0.121532,0.13505 -0.20835,0.17445 v 0.0117 c 0.104316,0.0354 0.190182,0.0966 0.25728,0.18327 0.06682,0.0868 0.100577,0.18743 0.100577,0.30166 0,0.17336 -0.06364,0.31722 -0.190852,0.43149 -0.127036,0.11437 -0.277249,0.17155 -0.451027,0.17155 h -0.806556"
       style="fill:#ffffff;fill-opacity:1;fill-rule:nonzero;stroke:none;stroke-width:0.0352778"
       id="path5055" />
    <path
       d="m 50.402998,104.52995 v 0.0353 h 0.546947 c 0.11243,4.2e-4 0.209444,-0.0409 0.280564,-0.12143 v 0 c 0.06988,-0.0776 0.106645,-0.16715 0.106539,-0.26292 1.06e-4,-0.0959 -0.03807,-0.18507 -0.110137,-0.26194 v 0 c -0.07317,-0.0793 -0.172791,-0.11963 -0.289102,-0.11921 H 50.36772 v 0.7655 H 50.403 v -0.0353 h 0.03528 v -0.65966 h 0.499533 c 0.100895,3.9e-4 0.176953,0.0324 0.237455,0.0967 v 0 c 0.06227,0.0672 0.09095,0.13656 0.09123,0.21386 -2.82e-4,0.0778 -0.02826,0.14816 -0.08862,0.21593 v 0 c -0.05913,0.0656 -0.131762,0.0973 -0.227929,0.0979 h -0.546947 v 0.0353 h 0.03528 z m 0,-0.94919 v 0.0353 h 0.493466 c 0.110243,3.9e-4 0.204787,-0.0376 0.27312,-0.11356 v 1.4e-4 c 0.06685,-0.0728 0.102553,-0.15684 0.10227,-0.24694 2.83e-4,-0.0896 -0.03418,-0.17335 -0.09934,-0.24529 l 1.06e-4,1.4e-4 c -0.06625,-0.0747 -0.157621,-0.11288 -0.264019,-0.11246 H 50.36772 v 0.71797 H 50.403 v -0.0353 h 0.03528 v -0.61214 h 0.470323 c 0.09066,5.7e-4 0.157798,0.0295 0.211385,0.0889 l 1.41e-4,1.5e-4 c 0.05539,0.0617 0.08089,0.12622 0.08117,0.19801 -2.82e-4,0.0715 -0.0266,0.13628 -0.08378,0.19925 v 1.4e-4 c -0.05553,0.0605 -0.1258,0.09 -0.22105,0.0904 h -0.493466 v 0.0353 h 0.03528 z m -0.271745,1.20922 h 0.03528 v -2.08139 h 0.729933 c 0.158079,2.8e-4 0.291182,0.0513 0.406823,0.15491 h -1.41e-4 c 0.11437,0.10389 0.169898,0.22944 0.170321,0.38625 -1.41e-4,0.0944 -0.02427,0.1753 -0.07236,0.24624 h -1.41e-4 c -0.04851,0.0717 -0.11243,0.12513 -0.193745,0.16221 l -0.02067,0.009 v 0.0344 0.0252 l 0.02385,0.008 c 0.09825,0.0337 0.177623,0.0901 0.240876,0.17159 l -1.41e-4,-1.4e-4 c 0.06216,0.081 0.09317,0.17279 0.09327,0.28014 -3.89e-4,0.16482 -0.05895,0.29669 -0.179141,0.40531 -0.121391,0.10873 -0.26155,0.16217 -0.427461,0.16245 H 50.13125 v 0.0353 h 0.03528 -0.03528 v 0.0353 h 0.806556 c 0.181504,2.8e-4 0.341771,-0.0606 0.474592,-0.18066 0.134091,-0.11977 0.202988,-0.27562 0.202565,-0.45766 1.41e-4,-0.12111 -0.03637,-0.23054 -0.107879,-0.32314 l -1.41e-4,-1.4e-4 c -0.07112,-0.0918 -0.163301,-0.15766 -0.273827,-0.19498 l -0.01129,0.0333 h 0.03528 v -0.0117 h -0.03528 l 0.0146,0.0321 c 0.09218,-0.0417 0.167428,-0.10446 0.222955,-0.18687 l -1.41e-4,1.4e-4 c 0.05666,-0.0828 0.08491,-0.17942 0.08477,-0.28593 3.89e-4,-0.17406 -0.06533,-0.32342 -0.193498,-0.43864 l -8.12e-4,-6.7e-4 6.71e-4,6.7e-4 c -0.126894,-0.11479 -0.280423,-0.17336 -0.453919,-0.17307 h -0.800489 v 2.18722 h 0.03528 v -0.0353"
       style="fill:#ffffff;fill-opacity:1;fill-rule:nonzero;stroke:none;stroke-width:0.0352778"
       id="path5057" />
    <path
       d="m 53.181688,102.93335 h -0.963966 v 0.67112 h 0.869139 v 0.25435 h -0.869139 v 0.67113 h 0.963966 v 0.26003 h -1.235852 v -2.11667 h 1.235852 v 0.26004"
       style="fill:#ffffff;fill-opacity:1;fill-rule:nonzero;stroke:none;stroke-width:0.0352778"
       id="path5059" />
    <path
       d="m 53.181688,102.93335 v -0.0353 h -0.999244 v 0.74168 h 0.869139 v 0.18369 l -0.869139,1.1e-4 v 0.74168 h 0.963966 v 0.18947 h -1.165296 v -2.04611 h 1.165296 v 0.22476 h 0.03528 v -0.0353 0.0353 h 0.03528 v -0.26004 -0.0353 h -1.306406 v 2.18722 h 1.306406 v -0.29531 -0.0353 H 52.253 v -0.60057 h 0.869139 v -0.28963 -0.0353 H 52.253 v -0.60057 h 0.963965 v -0.0353 h -0.03528"
       style="fill:#ffffff;fill-opacity:1;fill-rule:nonzero;stroke:none;stroke-width:0.0352778"
       id="path5061" />
    <path
       d="m 53.60749,104.78998 v -2.11667 h 0.271886 v 2.11667 H 53.60749"
       style="fill:#ffffff;fill-opacity:1;fill-rule:nonzero;stroke:none;stroke-width:0.0352778"
       id="path5063" />
    <path
       d="m 53.60749,104.78998 h 0.03528 v -2.08139 h 0.20133 v 2.04611 h -0.23661 v 0.0353 h 0.03528 -0.03528 v 0.0353 h 0.271886 0.03528 v -2.18722 h -0.307164 -0.03528 v 2.18722 h 0.03528 V 104.79"
       style="fill:#ffffff;fill-opacity:1;fill-rule:nonzero;stroke:none;stroke-width:0.0352778"
       id="path5065" />
  </g>
</svg>
