<?xml version="1.0" encoding="UTF-8" standalone="no"?>
<!-- Created with Inkscape (http://www.inkscape.org/) -->

<svg
   width="4096"
   height="2304"
   viewBox="0 0 1083.7333 609.6"
   version="1.1"
   id="svg22528"
   inkscape:version="1.2-alpha1 (b6a15bb, 2022-02-23)"
   sodipodi:docname="teavelopment_poster.svg"
   inkscape:export-filename="teavelopment_poster.png"
   inkscape:export-xdpi="96"
   inkscape:export-ydpi="96"
   xmlns:inkscape="http://www.inkscape.org/namespaces/inkscape"
   xmlns:sodipodi="http://sodipodi.sourceforge.net/DTD/sodipodi-0.dtd"
   xmlns="http://www.w3.org/2000/svg"
   xmlns:svg="http://www.w3.org/2000/svg">
  <sodipodi:namedview
     id="namedview22530"
     pagecolor="#505050"
     bordercolor="#eeeeee"
     borderopacity="1"
     inkscape:pageshadow="0"
     inkscape:pageopacity="0"
     inkscape:pagecheckerboard="0"
     inkscape:deskcolor="#505050"
     inkscape:document-units="mm"
     showgrid="false"
     inkscape:zoom="0.19487409"
     inkscape:cx="656.83437"
     inkscape:cy="1357.2866"
     inkscape:window-width="2486"
     inkscape:window-height="1016"
     inkscape:window-x="0"
     inkscape:window-y="0"
     inkscape:window-maximized="1"
     inkscape:current-layer="layer2" />
  <defs
     id="defs22525">
    <rect
       x="347.28078"
       y="379.79204"
       width="2406.4685"
       height="599.75265"
       id="rect25334" />
  </defs>
  <g
     inkscape:label="Background"
     inkscape:groupmode="layer"
     id="layer1"
     style="display:none;fill:#1a1a1a">
    <rect
       style="opacity:1;fill:#1a1a1a;stroke-width:0.264583"
       id="rect22584"
       width="1083.7333"
       height="609.59998"
       x="0"
       y="0" />
  </g>
  <g
     inkscape:groupmode="layer"
     id="layer8"
     inkscape:label="Text"
     style="fill:#ffffff"
     transform="translate(-1.4155781e-5,2.5965674e-5)">
    <g
       id="g3526"
       transform="translate(-0.62176265,-40.735653)">
      <g
         id="g3012"
         inkscape:label="Logo"
         style="fill:#ffffff"
         transform="matrix(49.041018,0,0,49.041018,-694.65014,-2137.4423)">
        <g
           inkscape:groupmode="layer"
           id="layer2"
           inkscape:label="Walls"
           style="display:inline;fill:#ffffff">
          <g
             id="g23789"
             inkscape:label="cup"
             style="fill:#ffffff">
            <g
               aria-label="{"
               id="text1406"
               style="font-size:4.56401px;opacity:1;stroke-width:0.380334"
               inkscape:label="[">
              <path
                 d="m 29.719033,47.131569 v 0.296661 h -0.06846 q -0.168868,0 -0.2282,0.0639 -0.05933,0.0639 -0.05933,0.241893 v 0.826085 q 0,0.314917 -0.08215,0.474657 -0.08215,0.159741 -0.292097,0.241893 0.374249,0.173432 0.374249,0.721114 v 0.826085 q 0,0.177997 0.05933,0.241893 0.05933,0.0639 0.2282,0.0639 h 0.06846 v 0.296661 h -0.209945 q -0.237328,0 -0.369685,-0.159741 -0.127792,-0.155176 -0.127792,-0.438145 v -0.762189 q 0,-0.314917 -0.07759,-0.451837 -0.07759,-0.136921 -0.278405,-0.177997 v -0.314916 q 0.200817,-0.04108 0.278405,-0.173433 0.07759,-0.13692 0.07759,-0.456401 v -0.762189 q 0,-0.282969 0.127792,-0.438145 0.132357,-0.159741 0.369685,-0.159741 z"
                 style="font-family:FreeSans;-inkscape-font-specification:FreeSans"
                 id="path1723" />
            </g>
            <g
               aria-label="}"
               id="text1406-5"
               style="font-size:4.56401px;stroke-width:0.380334"
               inkscape:label="]">
              <path
                 d="m 32.070959,51.426303 v -0.296661 h 0.07302 q 0.168868,0 0.2282,-0.0639 0.0639,-0.0639 0.0639,-0.241893 v -0.826085 q 0,-0.547682 0.374249,-0.71655 -0.374249,-0.173432 -0.374249,-0.721114 v -0.826085 q 0,-0.177997 -0.0639,-0.241893 -0.05933,-0.0639 -0.2282,-0.0639 h -0.07302 v -0.296661 h 0.214508 q 0.237329,0 0.369685,0.159741 0.132356,0.155176 0.132356,0.438145 v 0.762189 q 0,0.314917 0.07302,0.451837 0.07759,0.136921 0.273841,0.177997 v 0.314916 q -0.196252,0.04108 -0.273841,0.177997 -0.07302,0.13692 -0.07302,0.451837 v 0.762189 q 0,0.282969 -0.132356,0.438145 -0.132356,0.159741 -0.369685,0.159741 z"
                 style="font-family:FreeSans;-inkscape-font-specification:FreeSans"
                 id="path1720" />
            </g>
          </g>
          <g
             inkscape:groupmode="layer"
             id="layer9"
             inkscape:label="Bottom"
             style="display:none;fill:#ffffff">
            <text
               xml:space="preserve"
               style="font-style:normal;font-variant:normal;font-weight:normal;font-stretch:normal;font-size:2.92833px;font-family:FreeSans;-inkscape-font-specification:FreeSans;display:inline;opacity:1;fill:#ffffff;stroke-width:0.244026"
               x="30.022728"
               y="51.436375"
               id="text15365"
               inkscape:label=".1"><tspan
                 sodipodi:role="line"
                 id="tspan15363"
                 style="fill:#ffffff;stroke-width:0.244026"
                 x="30.022728"
                 y="51.436375">.</tspan></text>
            <text
               xml:space="preserve"
               style="font-style:normal;font-variant:normal;font-weight:normal;font-stretch:normal;font-size:2.92833px;font-family:FreeSans;-inkscape-font-specification:FreeSans;display:inline;fill:#ffffff;stroke-width:0.244026"
               x="30.508455"
               y="51.436375"
               id="text15365-3"
               inkscape:label=".2"><tspan
                 sodipodi:role="line"
                 id="tspan15363-7"
                 style="fill:#ffffff;stroke-width:0.244026"
                 x="30.508455"
                 y="51.436375">.</tspan></text>
            <text
               xml:space="preserve"
               style="font-style:normal;font-variant:normal;font-weight:normal;font-stretch:normal;font-size:2.92833px;font-family:FreeSans;-inkscape-font-specification:FreeSans;display:inline;fill:#ffffff;stroke-width:0.244026"
               x="30.994183"
               y="51.436375"
               id="text15365-0"
               inkscape:label=".3"><tspan
                 sodipodi:role="line"
                 id="tspan15363-2"
                 style="fill:#ffffff;stroke-width:0.244026"
                 x="30.994183"
                 y="51.436375">.</tspan></text>
          </g>
        </g>
        <g
           inkscape:groupmode="layer"
           id="layer3"
           inkscape:label="handle"
           style="display:inline;opacity:1;fill:#ffffff">
          <path
             id="path44466"
             style="display:none;opacity:1;fill:#ffffff;stroke-width:0.176318"
             d="m 32.57756,48.099163 v 0.311092 c 0,0 0.531536,-0.135505 0.719978,0.04899 0.263803,0.258279 0.329783,1.376516 0.07119,1.687854 -0.168502,0.20287 -0.791166,0 -0.791166,0 v 0.311609 c 0,0 0.839838,0.177028 1.03549,-0.138434 0.321924,-0.519058 0.206244,-1.6606 -0.118893,-2.066849 -0.23195,-0.289819 -0.916602,-0.154263 -0.916602,-0.154263 z"
             sodipodi:nodetypes="ccssccsscc" />
          <path
             id="rect443"
             style="display:inline;opacity:1;fill:#ffffff;stroke-width:0.440879"
             d="m 32.967921,48.058597 v 0.356051 l 0.05426,-0.0016 c 0.323282,-0.0091 0.583426,0.243997 0.583427,0.567407 v 0.550871 c 0,0.323408 -0.260145,0.590863 -0.583427,0.599963 l -0.05426,0.0016 v 0.366386 H 33.1214 c 0.459385,0 0.829407,-0.37002 0.829407,-0.829407 v -0.781864 c 0,-0.459386 -0.370022,-0.829407 -0.829407,-0.829407 z"
             sodipodi:nodetypes="cccsscccssssc" />
        </g>
        <g
           inkscape:groupmode="layer"
           id="layer4"
           inkscape:label="opening"
           style="fill:#ffffff">
          <ellipse
             style="opacity:1;fill:#ffffff;stroke-width:0.271992"
             id="path31756"
             ry="0.17955004"
             rx="1.1940284"
             cy="47.791847"
             cx="30.87693" />
        </g>
        <g
           inkscape:groupmode="layer"
           id="layer6"
           inkscape:label="Teabag"
           style="fill:#ffffff">
          <path
             id="rect11918"
             style="opacity:1;fill:#ffffff;stroke-width:0.202383"
             d="m 31.296281,48.654911 c -0.0091,2.5e-5 -0.01795,4.2e-4 -0.02635,5.17e-4 -0.03734,4.3e-4 -0.06611,0.0017 -0.07183,0.0041 -0.01798,0.0078 -0.11622,0.08814 -0.132809,0.121957 -0.01659,0.03381 -0.02768,0.476678 0,0.504362 0.01375,0.01375 0.145951,0.01884 0.278019,0.01809 0.132069,7.5e-4 0.26427,-0.0043 0.27802,-0.01809 0.02768,-0.02768 0.01659,-0.470552 0,-0.504362 -0.01659,-0.03382 -0.114829,-0.114157 -0.132809,-0.121957 -0.0092,-0.0039 -0.07719,-0.0048 -0.145211,-0.0041 -0.01594,-1.64e-4 -0.03185,-5.58e-4 -0.04702,-5.17e-4 z m 0.04702,0.06821 a 0.05,0.05 0 0 1 0.05013,0.04961 0.05,0.05 0 0 1 -0.05013,0.05013 0.05,0.05 0 0 1 -0.04961,-0.05013 0.05,0.05 0 0 1 0.04961,-0.04961 z" />
        </g>
        <g
           inkscape:groupmode="layer"
           id="layer7"
           inkscape:label="Teabag Line"
           style="fill:#ffffff">
          <path
             id="rect26666"
             style="opacity:1;fill:#ffffff;stroke-width:0.374178"
             d="m 31.309367,47.953154 v 0.717269 h 0.02274 0.02274 0.02274 v -0.717269 h -0.02274 -0.02274 z" />
        </g>
      </g>
      <g
         aria-label="Teavelopment"
         transform="matrix(0.74895769,0,0,0.74895769,-145.45413,63.7197)"
         id="text25332"
         style="font-size:192px;font-family:FreeSans;-inkscape-font-specification:FreeSans;white-space:pre;shape-inside:url(#rect25334);opacity:1">
        <path
           d="m 417.40625,558.89297 q -7.875,0 -11.625,-3.28125 -3.75,-3.28125 -3.75,-10.5 v -119.0625 q -3,0.28125 -7.5,1.125 -4.40625,0.75 -9.28125,2.25 -4.875,1.5 -9.75,3.65625 -4.875,2.0625 -8.71875,4.875 -3.84375,2.71875 -6.28125,6.1875 -2.4375,3.46875 -2.4375,7.6875 0,3 0.75,4.78125 0.84375,1.78125 1.875,2.71875 1.03125,0.84375 2.0625,1.125 1.125,0.1875 1.59375,0.1875 2.34375,0 3.84375,-0.75 1.5,-0.84375 2.71875,-1.6875 1.21875,-0.9375 2.25,-1.6875 1.125,-0.84375 2.53125,-0.84375 1.125,0 2.34375,0.5625 1.3125,0.46875 2.34375,1.59375 1.125,1.125 1.875,3 0.75,1.78125 0.75,4.40625 0,3.75 -1.5,6.46875 -1.40625,2.71875 -3.75,4.59375 -2.25,1.78125 -5.25,2.71875 -2.90625,0.84375 -5.8125,0.84375 -4.5,0 -8.15625,-1.5 -3.5625,-1.59375 -6.09375,-4.3125 -2.53125,-2.71875 -3.84375,-6.375 -1.3125,-3.65625 -1.3125,-7.78125 0,-10.96875 6,-18.9375 6.09375,-8.0625 16.59375,-13.3125 10.5,-5.34375 24.46875,-7.875 13.96875,-2.53125 29.90625,-2.53125 7.59375,0 14.8125,0.1875 7.21875,0.0937 13.125,0.375 6,0.28125 10.3125,0.65625 4.3125,0.375 6.28125,0.84375 1.875,0.46875 3,1.40625 1.125,0.84375 1.6875,1.96875 0.5625,1.125 0.75,2.4375 0.1875,1.21875 0.1875,2.53125 0,1.03125 -0.28125,2.4375 -0.28125,1.3125 -0.84375,2.53125 -0.5625,1.21875 -1.40625,2.0625 -0.84375,0.84375 -2.0625,0.84375 -0.75,0 -1.59375,-0.65625 -0.75,-0.65625 -2.15625,-1.59375 -1.40625,-0.9375 -3.84375,-2.15625 -2.34375,-1.21875 -6.28125,-2.25 -3.84375,-1.03125 -9.5625,-1.875 -5.625,-0.84375 -13.6875,-1.125 v 119.25 q 0,7.21875 -3.75,10.5 -3.75,3.28125 -11.53125,3.28125 z"
           style="font-family:'Berkshire Swash';-inkscape-font-specification:'Berkshire Swash'"
           id="path1541" />
        <path
           d="m 489.21875,514.36172 q 0,3 0.84375,6.5625 0.9375,3.46875 2.625,7.03125 1.6875,3.5625 4.125,6.84375 2.53125,3.1875 5.71875,5.71875 3.28125,2.53125 7.21875,4.03125 3.9375,1.5 8.625,1.5 3.28125,0 6.09375,-0.75 2.8125,-0.75 5.25,-2.0625 2.4375,-1.3125 4.6875,-3 2.25,-1.78125 4.5,-3.75 l 2.34375,2.25 q -2.15625,2.90625 -5.53125,6.375 -3.375,3.46875 -8.15625,6.5625 -4.78125,3 -11.15625,5.0625 -6.375,1.96875 -14.53125,1.96875 -8.15625,0 -15.9375,-2.90625 -7.6875,-3 -13.6875,-8.90625 -6,-5.90625 -9.65625,-14.71875 -3.5625,-8.8125 -3.5625,-20.625 0,-8.53125 2.15625,-15.65625 2.15625,-7.125 5.8125,-12.84375 3.75,-5.71875 8.625,-10.03125 4.96875,-4.3125 10.40625,-7.125 5.4375,-2.90625 11.0625,-4.3125 5.71875,-1.5 10.96875,-1.5 6.9375,0 12.09375,1.5 5.15625,1.5 8.53125,4.03125 3.46875,2.53125 5.15625,5.90625 1.6875,3.28125 1.6875,6.9375 0,4.40625 -2.53125,7.96875 -2.53125,3.46875 -6.75,6.09375 z m 18.84375,-19.03125 q 1.21875,-0.75 1.96875,-1.40625 0.84375,-0.75 1.3125,-1.6875 0.46875,-1.03125 0.65625,-2.4375 0.28125,-1.5 0.28125,-3.65625 0,-2.34375 -0.5625,-5.15625 -0.46875,-2.90625 -1.6875,-5.4375 -1.21875,-2.53125 -3.09375,-4.21875 -1.875,-1.6875 -4.5,-1.6875 -3.375,0 -5.8125,2.0625 -2.34375,1.96875 -3.9375,5.15625 -1.5,3.1875 -2.4375,7.3125 -0.84375,4.03125 -1.3125,8.15625 -0.46875,4.125 -0.5625,7.96875 -0.0937,3.75 -0.0937,6.375 z"
           style="font-family:'Berkshire Swash';-inkscape-font-specification:'Berkshire Swash'"
           id="path1543" />
        <path
           d="m 596.09375,508.83047 q 0,-2.34375 -1.5,-3.5625 -1.5,-1.21875 -3.84375,-1.21875 -3.28125,0 -6.28125,1.5 -2.90625,1.5 -5.15625,4.40625 -2.25,2.90625 -3.5625,7.21875 -1.3125,4.21875 -1.3125,9.84375 0,5.4375 0.75,9 0.84375,3.5625 2.15625,5.71875 1.40625,2.0625 3.1875,2.90625 1.78125,0.84375 3.75,0.84375 2.4375,0 4.59375,-1.21875 2.15625,-1.3125 3.75,-3.28125 1.59375,-1.96875 2.53125,-4.40625 0.9375,-2.4375 0.9375,-4.875 z m -14.90625,-41.0625 q -3.1875,0 -5.90625,0.75 -2.71875,0.75 -4.6875,1.875 -1.96875,1.125 -3.09375,2.53125 -1.125,1.3125 -1.125,2.53125 0,1.40625 1.40625,2.0625 1.5,0.5625 3.28125,1.40625 1.78125,0.75 3.1875,2.25 1.5,1.40625 1.5,4.40625 0,1.96875 -0.84375,3.65625 -0.75,1.59375 -2.15625,2.90625 -1.3125,1.21875 -3.1875,1.96875 -1.78125,0.65625 -3.75,0.65625 -5.25,0 -8.53125,-3.5625 -3.1875,-3.5625 -3.1875,-9.46875 0,-5.71875 3,-9.75 3,-4.125 7.78125,-6.75 4.875,-2.625 10.96875,-3.84375 6.09375,-1.3125 12.1875,-1.3125 7.3125,0 13.96875,1.59375 6.65625,1.59375 11.71875,5.0625 5.15625,3.46875 8.15625,8.8125 3.09375,5.34375 3.09375,12.9375 v 52.96875 q 0,0.84375 0.0937,1.875 0.0937,1.03125 0.46875,1.875 0.375,0.84375 1.125,1.40625 0.75,0.5625 2.15625,0.5625 1.6875,0 3.09375,-1.21875 1.5,-1.3125 2.625,-2.625 l 2.34375,1.96875 q -1.40625,1.96875 -3.375,4.3125 -1.96875,2.34375 -4.78125,4.40625 -2.8125,2.0625 -6.5625,3.46875 -3.75,1.40625 -8.53125,1.40625 -5.90625,0 -10.5,-3.46875 -4.59375,-3.5625 -6,-10.875 -3,4.03125 -6.28125,6.75 -3.1875,2.71875 -6.5625,4.40625 -3.375,1.6875 -6.84375,2.4375 -3.375,0.75 -6.84375,0.75 -4.5,0 -8.71875,-1.40625 -4.21875,-1.40625 -7.59375,-4.40625 -3.28125,-3.09375 -5.34375,-7.96875 -1.96875,-4.875 -1.96875,-11.90625 0,-8.53125 3.375,-13.96875 3.375,-5.4375 8.8125,-9.09375 5.53125,-3.75 12.46875,-6.375 7.03125,-2.625 14.34375,-5.53125 5.4375,-2.15625 7.875,-6.375 2.53125,-4.3125 2.53125,-8.8125 0,-6.9375 -4.125,-11.0625 -4.03125,-4.21875 -11.0625,-4.21875 z"
           style="font-family:'Berkshire Swash';-inkscape-font-specification:'Berkshire Swash'"
           id="path1545" />
        <path
           d="m 647,477.70547 q -0.5625,-3.75 -1.875,-5.8125 -1.21875,-2.0625 -4.21875,-2.0625 -1.59375,0 -2.8125,0.5625 -1.125,0.5625 -2.4375,1.59375 l -1.875,-2.34375 q 2.15625,-1.78125 4.78125,-3.46875 2.71875,-1.78125 5.8125,-3.09375 3.09375,-1.3125 6.65625,-2.15625 3.5625,-0.84375 7.5,-0.84375 5.625,0 9.09375,1.96875 3.46875,1.875 5.4375,4.78125 2.0625,2.8125 2.90625,6.09375 0.84375,3.28125 1.21875,5.90625 3.46875,28.40625 7.78125,43.03125 4.3125,14.625 10.21875,14.625 3.28125,0 6.28125,-3.5625 3.09375,-3.5625 5.34375,-9.75 2.34375,-6.1875 3.75,-14.4375 1.40625,-8.25 1.40625,-17.625 0,-6.1875 -0.84375,-10.40625 -0.84375,-4.3125 -1.875,-7.21875 -1.03125,-2.90625 -1.875,-4.78125 -0.84375,-1.96875 -0.84375,-3.46875 0,-1.40625 1.125,-2.34375 1.125,-0.9375 2.625,-1.59375 1.59375,-0.65625 3.1875,-0.9375 1.6875,-0.28125 2.71875,-0.28125 2.71875,0 3.9375,0.75 1.21875,0.75 1.96875,2.90625 0.84375,2.71875 1.125,7.21875 0.375,4.40625 0.375,9.46875 0,7.21875 -1.03125,15.84375 -0.9375,8.625 -3,17.34375 -1.96875,8.71875 -5.0625,16.875 -3.09375,8.15625 -7.40625,14.53125 -4.21875,6.28125 -9.65625,10.125 -5.34375,3.75 -12,3.75 -7.78125,0 -13.5,-4.5 -5.71875,-4.5 -9.75,-11.71875 -3.9375,-7.21875 -6.5625,-16.21875 -2.625,-9 -4.3125,-18 -1.59375,-9.09375 -2.625,-17.15625 Q 647.75,483.14297 647,477.70547 Z"
           style="font-family:'Berkshire Swash';-inkscape-font-specification:'Berkshire Swash'"
           id="path1547" />
        <path
           d="m 763.4375,514.36172 q 0,3 0.84375,6.5625 0.9375,3.46875 2.625,7.03125 1.6875,3.5625 4.125,6.84375 2.53125,3.1875 5.71875,5.71875 3.28125,2.53125 7.21875,4.03125 3.9375,1.5 8.625,1.5 3.28125,0 6.09375,-0.75 2.8125,-0.75 5.25,-2.0625 2.4375,-1.3125 4.6875,-3 2.25,-1.78125 4.5,-3.75 l 2.34375,2.25 q -2.15625,2.90625 -5.53125,6.375 -3.375,3.46875 -8.15625,6.5625 -4.78125,3 -11.15625,5.0625 -6.375,1.96875 -14.53125,1.96875 -8.15625,0 -15.9375,-2.90625 -7.6875,-3 -13.6875,-8.90625 -6,-5.90625 -9.65625,-14.71875 -3.5625,-8.8125 -3.5625,-20.625 0,-8.53125 2.15625,-15.65625 2.15625,-7.125 5.8125,-12.84375 3.75,-5.71875 8.625,-10.03125 4.96875,-4.3125 10.40625,-7.125 5.4375,-2.90625 11.0625,-4.3125 5.71875,-1.5 10.96875,-1.5 6.9375,0 12.09375,1.5 5.15625,1.5 8.53125,4.03125 3.46875,2.53125 5.15625,5.90625 1.6875,3.28125 1.6875,6.9375 0,4.40625 -2.53125,7.96875 -2.53125,3.46875 -6.75,6.09375 z m 18.84375,-19.03125 q 1.21875,-0.75 1.96875,-1.40625 0.84375,-0.75 1.3125,-1.6875 0.46875,-1.03125 0.65625,-2.4375 0.28125,-1.5 0.28125,-3.65625 0,-2.34375 -0.5625,-5.15625 -0.46875,-2.90625 -1.6875,-5.4375 -1.21875,-2.53125 -3.09375,-4.21875 -1.875,-1.6875 -4.5,-1.6875 -3.375,0 -5.8125,2.0625 -2.34375,1.96875 -3.9375,5.15625 -1.5,3.1875 -2.4375,7.3125 -0.84375,4.03125 -1.3125,8.15625 -0.46875,4.125 -0.5625,7.96875 -0.0937,3.75 -0.0937,6.375 z"
           style="font-family:'Berkshire Swash';-inkscape-font-specification:'Berkshire Swash'"
           id="path1549" />
        <path
           d="m 855.21875,549.14297 q 0,1.21875 -0.46875,2.90625 -0.375,1.6875 -1.96875,3.1875 -1.5,1.5 -4.5,2.53125 -2.90625,1.125 -7.875,1.125 -4.96875,0 -7.78125,-1.21875 -2.8125,-1.125 -4.21875,-2.71875 -1.3125,-1.59375 -1.6875,-3.28125 -0.28125,-1.6875 -0.28125,-2.71875 v -120.9375 q 0,-2.71875 -1.3125,-4.6875 -1.21875,-2.0625 -4.21875,-2.0625 -1.59375,0 -2.8125,0.5625 -1.125,0.46875 -2.4375,1.5 l -1.875,-2.25 q 2.15625,-1.78125 4.78125,-3.46875 2.625,-1.78125 5.71875,-3.09375 3.1875,-1.3125 6.75,-2.15625 3.5625,-0.84375 7.5,-0.84375 6.09375,0 9.46875,1.6875 3.375,1.59375 4.96875,4.03125 1.59375,2.34375 1.875,5.0625 0.375,2.625 0.375,4.6875 z"
           style="font-family:'Berkshire Swash';-inkscape-font-specification:'Berkshire Swash'"
           id="path1551" />
        <path
           d="m 872.84375,509.39297 q 0,-12.28125 3.5625,-21.46875 3.5625,-9.28125 9.46875,-15.46875 6,-6.1875 13.875,-9.28125 7.875,-3.09375 16.5,-3.09375 8.625,0 16.5,2.90625 7.875,2.8125 13.78125,8.71875 6,5.90625 9.5625,15 3.5625,9 3.5625,21.375 0,12.28125 -3.5625,21.75 -3.5625,9.46875 -9.5625,15.9375 -5.90625,6.46875 -13.78125,9.84375 -7.875,3.28125 -16.5,3.28125 -8.625,0 -16.5,-3.09375 -7.875,-3.1875 -13.875,-9.375 -5.90625,-6.1875 -9.46875,-15.46875 -3.5625,-9.28125 -3.5625,-21.5625 z M 930.5,508.45547 q 0,-7.5 -0.5625,-14.4375 -0.46875,-7.03125 -1.96875,-12.46875 -1.5,-5.4375 -4.3125,-8.625 -2.8125,-3.28125 -7.40625,-3.28125 -4.59375,0 -7.40625,3.46875 -2.8125,3.375 -4.3125,9 -1.5,5.53125 -1.96875,12.65625 -0.46875,7.125 -0.46875,14.625 0,7.5 0.46875,14.71875 0.46875,7.125 1.96875,12.75 1.5,5.625 4.3125,9.09375 2.8125,3.375 7.40625,3.375 4.59375,0 7.40625,-3.5625 2.8125,-3.5625 4.3125,-9.375 1.5,-5.8125 1.96875,-13.125 0.5625,-7.3125 0.5625,-14.8125 z"
           style="font-family:'Berkshire Swash';-inkscape-font-specification:'Berkshire Swash'"
           id="path1553" />
        <path
           d="m 978.3125,476.58047 q 0,-2.71875 -1.3125,-4.6875 -1.21875,-2.0625 -4.21875,-2.0625 -1.59375,0 -2.71875,0.5625 -1.125,0.5625 -2.4375,1.59375 l -1.96875,-2.34375 q 2.15625,-1.78125 4.78125,-3.46875 2.71875,-1.78125 5.8125,-3.09375 3.09375,-1.3125 6.65625,-2.15625 3.5625,-0.84375 7.5,-0.84375 4.21875,0 7.21875,1.3125 3,1.3125 4.9687,3.1875 2.0625,1.78125 3.0938,3.84375 1.0312,1.96875 1.2187,3.375 1.875,-2.625 4.4063,-4.78125 2.625,-2.15625 5.625,-3.65625 3.0937,-1.59375 6.4687,-2.4375 3.4688,-0.84375 7.1251,-0.84375 7.5,0 13.5937,3.09375 6.0938,3.09375 10.4063,9.1875 4.4062,6.09375 6.75,15.09375 2.3437,9 2.3437,20.8125 0,13.6875 -2.9062,23.34375 -2.8125,9.5625 -7.5,15.65625 -4.5938,6.09375 -10.5938,8.90625 -5.9062,2.71875 -12.0937,2.71875 -5.1563,0 -9.0938,-1.03125 -3.8438,-1.03125 -6.6563,-2.53125 -2.8125,-1.5 -4.6875,-3 -1.875,-1.59375 -3,-2.625 v 45.75 q 0,1.21875 -0.375,2.90625 -0.375,1.6875 -1.875,3.1875 -1.4062,1.59375 -4.3125,2.71875 -2.81245,1.125 -7.7812,1.125 -4.96875,0 -7.875,-1.21875 -2.8125,-1.125 -4.3125,-2.8125 -1.5,-1.59375 -1.875,-3.28125 -0.375,-1.59375 -0.375,-2.625 z m 28.7812,59.71875 q 0,0.75 0.6563,2.625 0.6562,1.875 2.0625,3.84375 1.4062,1.96875 3.5625,3.5625 2.25,1.5 5.4375,1.5 4.125,0 7.0313,-3.09375 2.9062,-3.1875 4.7812,-8.53125 1.875,-5.4375 2.7188,-12.5625 0.8437,-7.21875 0.8437,-15.375 0,-10.03125 -1.125,-16.96875 -1.0312,-6.9375 -3.0937,-11.15625 -2.0625,-4.3125 -4.9688,-6.1875 -2.8125,-1.96875 -6.375,-1.96875 -2.0625,0 -4.125,1.21875 -2.0625,1.125 -3.75,2.90625 -1.5938,1.6875 -2.625,3.84375 -1.0313,2.15625 -1.0313,4.125 z"
           style="font-family:'Berkshire Swash';-inkscape-font-specification:'Berkshire Swash'"
           id="path1555" />
        <path
           d="m 1161.5,549.14297 q 0,1.21875 -0.375,2.90625 -0.375,1.6875 -1.875,3.1875 -1.4062,1.5 -4.3125,2.53125 -2.9062,1.125 -7.875,1.125 -4.9687,0 -7.875,-1.21875 -2.8125,-1.125 -4.3125,-2.71875 -1.4062,-1.59375 -1.7812,-3.28125 -0.375,-1.6875 -0.375,-2.71875 v -66.28125 q 0,-1.3125 -0.375,-2.625 -0.375,-1.40625 -1.125,-2.53125 -0.75,-1.125 -1.875,-1.78125 -1.125,-0.75 -2.625,-0.75 -2.5313,0 -4.9688,1.5 -2.4375,1.40625 -4.5937,3.28125 -2.0625,1.875 -3.6563,3.75 -1.5,1.875 -2.1562,2.8125 v 62.8125 q 0,1.21875 -0.375,2.90625 -0.375,1.6875 -1.875,3.1875 -1.4063,1.5 -4.3125,2.53125 -2.8125,1.125 -7.7813,1.125 -4.9687,0 -7.875,-1.21875 -2.8125,-1.125 -4.3125,-2.71875 -1.5,-1.59375 -1.875,-3.28125 -0.375,-1.6875 -0.375,-2.71875 v -72.375 q 0,-2.71875 -1.3125,-4.6875 -1.2187,-2.0625 -4.2187,-2.0625 -1.5938,0 -2.7188,0.5625 -1.125,0.5625 -2.4375,1.59375 l -1.9687,-2.34375 q 2.1562,-1.78125 4.7812,-3.46875 2.7188,-1.78125 5.8125,-3.09375 3.0938,-1.3125 6.6563,-2.15625 3.5625,-0.84375 7.5,-0.84375 6.0937,0 9.4687,2.0625 3.375,1.96875 4.9688,4.78125 1.5937,2.8125 1.875,5.90625 0.375,3 0.375,5.0625 4.4062,-4.96875 9.4687,-8.90625 2.0625,-1.6875 4.5,-3.28125 2.5313,-1.59375 5.1563,-2.8125 2.625,-1.3125 5.4375,-2.0625 2.8125,-0.75 5.625,-0.75 5.4375,0 9.2812,1.96875 3.8438,1.96875 6.1875,4.78125 2.3438,2.71875 3.375,5.8125 1.125,3 1.125,5.25 4.5,-4.96875 9.4688,-8.90625 2.0625,-1.6875 4.5,-3.28125 2.4375,-1.59375 5.0625,-2.8125 2.7187,-1.3125 5.4375,-2.0625 2.8125,-0.75 5.625,-0.75 5.4375,0 9.2812,2.0625 3.8438,1.96875 6.1875,5.25 2.3438,3.28125 3.375,7.40625 1.125,4.125 1.125,8.25 v 58.03125 q 0,0.84375 0.094,1.875 0.094,0.9375 0.4687,1.875 0.375,0.84375 1.125,1.40625 0.8438,0.5625 2.1563,0.5625 1.7812,0 3.1875,-1.21875 1.4062,-1.3125 2.625,-2.625 l 2.25,1.96875 q -1.3125,1.96875 -3.4688,4.40625 -2.1562,2.34375 -5.1562,4.5 -2.9063,2.15625 -6.8438,3.5625 -3.8437,1.5 -8.7187,1.5 -4.125,0 -7.2188,-1.125 -3,-1.03125 -5.1562,-2.8125 -2.0625,-1.875 -3.0938,-4.3125 -1.0312,-2.53125 -1.0312,-5.34375 v -62.625 q 0,-1.3125 -0.375,-2.625 -0.375,-1.40625 -1.125,-2.53125 -0.6563,-1.125 -1.7813,-1.78125 -1.125,-0.75 -2.625,-0.75 -2.5312,0 -5.0625,1.5 -2.4375,1.40625 -4.5937,3.28125 -2.0625,1.875 -3.5625,3.75 -1.5,1.875 -2.1563,2.8125 z"
           style="font-family:'Berkshire Swash';-inkscape-font-specification:'Berkshire Swash'"
           id="path1557" />
        <path
           d="m 1260.4063,514.36172 q 0,3 0.8437,6.5625 0.9375,3.46875 2.625,7.03125 1.6875,3.5625 4.125,6.84375 2.5313,3.1875 5.7188,5.71875 3.2812,2.53125 7.2187,4.03125 3.9375,1.5 8.625,1.5 3.2813,0 6.0938,-0.75 2.8125,-0.75 5.25,-2.0625 2.4375,-1.3125 4.6875,-3 2.25,-1.78125 4.5,-3.75 l 2.3437,2.25 q -2.1562,2.90625 -5.5312,6.375 -3.375,3.46875 -8.1563,6.5625 -4.7812,3 -11.1562,5.0625 -6.375,1.96875 -14.5313,1.96875 -8.1562,0 -15.9375,-2.90625 -7.6875,-3 -13.6875,-8.90625 -6,-5.90625 -9.6562,-14.71875 -3.5625,-8.8125 -3.5625,-20.625 0,-8.53125 2.1562,-15.65625 2.1563,-7.125 5.8125,-12.84375 3.75,-5.71875 8.625,-10.03125 4.9688,-4.3125 10.4063,-7.125 5.4375,-2.90625 11.0625,-4.3125 5.7187,-1.5 10.9687,-1.5 6.9375,0 12.0938,1.5 5.1562,1.5 8.5312,4.03125 3.4688,2.53125 5.1563,5.90625 1.6875,3.28125 1.6875,6.9375 0,4.40625 -2.5313,7.96875 -2.5312,3.46875 -6.75,6.09375 z m 18.8437,-19.03125 q 1.2188,-0.75 1.9688,-1.40625 0.8437,-0.75 1.3125,-1.6875 0.4687,-1.03125 0.6562,-2.4375 0.2813,-1.5 0.2813,-3.65625 0,-2.34375 -0.5625,-5.15625 -0.4688,-2.90625 -1.6875,-5.4375 -1.2188,-2.53125 -3.0938,-4.21875 -1.875,-1.6875 -4.5,-1.6875 -3.375,0 -5.8125,2.0625 -2.3437,1.96875 -3.9375,5.15625 -1.5,3.1875 -2.4375,7.3125 -0.8437,4.03125 -1.3125,8.15625 -0.4687,4.125 -0.5625,7.96875 -0.094,3.75 -0.094,6.375 z"
           style="font-family:'Berkshire Swash';-inkscape-font-specification:'Berkshire Swash'"
           id="path1559" />
        <path
           d="m 1380.2188,510.70547 q 0,-11.8125 -1.125,-18.84375 -1.0313,-7.125 -2.8125,-10.78125 -1.7813,-3.75 -3.9375,-4.875 -2.1563,-1.21875 -4.4063,-1.21875 -2.7187,0 -4.875,1.5 -2.0625,1.40625 -3.6562,3.28125 -1.5,1.875 -2.625,3.75 -1.0313,1.875 -1.7813,2.8125 v 62.625 q 0,1.21875 -0.375,3 -0.375,1.6875 -1.875,3.28125 -1.4062,1.5 -4.3125,2.53125 -2.8125,1.125 -7.7812,1.125 -4.9688,0 -7.875,-1.21875 -2.8125,-1.125 -4.3125,-2.71875 -1.5,-1.59375 -1.875,-3.28125 -0.375,-1.6875 -0.375,-2.71875 v -72.375 q 0,-2.71875 -1.3125,-4.6875 -1.2188,-2.0625 -4.2188,-2.0625 -1.5937,0 -2.7187,0.5625 -1.125,0.5625 -2.4375,1.59375 l -1.9688,-2.34375 q 2.1563,-1.78125 4.7813,-3.46875 2.7187,-1.78125 5.8125,-3.09375 3.0937,-1.3125 6.6562,-2.15625 3.5625,-0.84375 7.5,-0.84375 6.0938,0 9.4688,2.0625 3.375,1.96875 4.9687,4.78125 1.5938,2.8125 1.875,5.90625 0.375,3 0.375,5.0625 3.4688,-4.96875 7.875,-8.90625 1.7813,-1.6875 3.9375,-3.28125 2.25,-1.59375 4.6875,-2.8125 2.5313,-1.3125 5.25,-2.0625 2.8125,-0.75 5.7188,-0.75 6.375,0 11.25,2.4375 4.9687,2.4375 8.3437,8.15625 3.375,5.71875 5.1563,15.1875 1.7812,9.375 1.7812,23.34375 0,13.59375 -2.4375,23.625 -2.4375,10.03125 -6.375,17.0625 -3.9375,7.03125 -8.9062,11.4375 -4.9688,4.5 -10.0313,7.03125 -5.0625,2.53125 -9.75,3.46875 -4.5937,1.03125 -7.9687,1.125 l -1.0313,-3.84375 q 2.8125,-0.65625 5.1563,-2.0625 2.4375,-1.40625 4.4062,-4.125 1.9688,-2.71875 3.4688,-6.84375 1.5,-4.21875 2.5312,-10.5 1.125,-6.28125 1.5938,-14.8125 0.5625,-8.625 0.5625,-20.0625 z"
           style="font-family:'Berkshire Swash';-inkscape-font-specification:'Berkshire Swash'"
           id="path1561" />
        <path
           d="m 1458.7813,468.14297 v 69.28125 q 0,4.96875 1.875,6.9375 1.875,1.875 5.1562,1.875 2.5313,0 4.5,-1.40625 1.9688,-1.40625 3.375,-3.1875 1.6875,-1.96875 2.9063,-4.59375 l 2.9062,1.3125 q -1.4062,3 -3.375,6.5625 -1.875,3.5625 -5.0625,6.65625 -3.1875,3 -8.0625,5.0625 -4.7812,2.0625 -12.0937,2.0625 -4.125,0 -7.9688,-1.21875 -3.75,-1.21875 -6.75,-3.84375 -2.9062,-2.625 -4.6875,-6.5625 -1.7812,-3.9375 -1.7812,-9.46875 v -69.46875 h -10.5 v -6.75 q 2.625,0 7.3125,-1.3125 4.6875,-1.40625 9.5625,-4.59375 4.9687,-3.1875 9.1875,-8.53125 4.2187,-5.34375 6,-13.21875 h 7.5 v 27.65625 h 15.2812 q 7.5,0 7.5,-2.53125 0,-0.9375 -0.9375,-1.21875 -0.9375,-0.375 -2.1562,-0.84375 -1.125,-0.5625 -2.0625,-1.5 -0.9375,-0.9375 -0.9375,-3.09375 0,-2.625 1.5937,-4.125 1.6875,-1.5 4.3125,-1.5 1.6875,0 2.9063,0.75 1.3125,0.65625 2.1562,1.875 0.8438,1.125 1.2188,2.625 0.4687,1.5 0.4687,3 0,6.09375 -3.5625,9.75 -3.4687,3.5625 -11.25,3.5625 z"
           style="font-family:'Berkshire Swash';-inkscape-font-specification:'Berkshire Swash'"
           id="path1563" />
      </g>
    </g>
  </g>
</svg>
