<?xml version="1.0" encoding="UTF-8" standalone="no"?>
<!-- Created with Inkscape (http://www.inkscape.org/) -->

<svg
   width="47.625008mm"
   height="14.11111mm"
   viewBox="0 0 47.625008 14.11111"
   version="1.1"
   id="svg3488"
   inkscape:version="1.2-alpha1 (b6a15bb, 2022-02-23)"
   sodipodi:docname="en.svg"
   xmlns:inkscape="http://www.inkscape.org/namespaces/inkscape"
   xmlns:sodipodi="http://sodipodi.sourceforge.net/DTD/sodipodi-0.dtd"
   xmlns="http://www.w3.org/2000/svg"
   xmlns:svg="http://www.w3.org/2000/svg">
  <sodipodi:namedview
     id="namedview3490"
     pagecolor="#505050"
     bordercolor="#eeeeee"
     borderopacity="1"
     inkscape:pageshadow="0"
     inkscape:pageopacity="0"
     inkscape:pagecheckerboard="0"
     inkscape:deskcolor="#505050"
     inkscape:document-units="mm"
     showgrid="false"
     inkscape:zoom="3.1179854"
     inkscape:cx="129.7312"
     inkscape:cy="29.826952"
     inkscape:window-width="2560"
     inkscape:window-height="1043"
     inkscape:window-x="0"
     inkscape:window-y="0"
     inkscape:window-maximized="1"
     inkscape:current-layer="layer1" />
  <defs
     id="defs3485">
    <clipPath
       clipPathUnits="userSpaceOnUse"
       id="clipPath95">
      <path
         d="m 205.098,176.105 -0.743,0.711 c -2.91,3.079 -4.628,7.86 -4.628,14.051 v -1.457 0 221.16 c 0,0.02 0,0.035 0,0.051 0,-0.019 0,-0.035 0,-0.055 v -1.461 c 0,6.704 2.003,11.754 5.359,14.782 L 328.984,299.992 205.098,176.105 m -5.371,234.528 c 0,0.551 0.015,1.086 0.043,1.613 -0.028,-0.523 -0.043,-1.062 -0.043,-1.613 m 0.043,1.637 c 0,0.007 0,0.015 0.003,0.023 -0.003,-0.008 -0.003,-0.016 -0.003,-0.023 m 0.003,0.07 c 0,0.004 0,0.008 0,0.012 0,-0.004 0,-0.008 0,-0.012"
         id="path93" />
    </clipPath>
    <linearGradient
       x1="0"
       y1="0"
       x2="1"
       y2="0"
       gradientUnits="userSpaceOnUse"
       gradientTransform="matrix(-167.825,-167.825,167.825,-167.825,317.998,412.903)"
       spreadMethod="pad"
       id="linearGradient109">
      <stop
         style="stop-opacity:1;stop-color:#00a0ff"
         offset="0"
         id="stop97" />
      <stop
         style="stop-opacity:1;stop-color:#00a1ff"
         offset="0.00657445"
         id="stop99" />
      <stop
         style="stop-opacity:1;stop-color:#00beff"
         offset="0.2601"
         id="stop101" />
      <stop
         style="stop-opacity:1;stop-color:#00d2ff"
         offset="0.5122"
         id="stop103" />
      <stop
         style="stop-opacity:1;stop-color:#00dfff"
         offset="0.7604"
         id="stop105" />
      <stop
         style="stop-opacity:1;stop-color:#00e3ff"
         offset="1"
         id="stop107" />
    </linearGradient>
    <clipPath
       clipPathUnits="userSpaceOnUse"
       id="clipPath119">
      <path
         d="m 370.277,257.215 v 0 l 0.942,0.535 48.929,27.801 c 4.665,2.652 7.774,5.867 9.325,9.269 -1.547,-3.402 -4.657,-6.621 -9.325,-9.273 l -48.929,-27.801 -0.942,-0.531 m 0.012,1.465 -41.305,41.312 41.301,41.305 49.863,-28.328 c 6.332,-3.598 9.887,-8.235 10.481,-12.973 0,-0.004 0,-0.012 0,-0.019 -0.594,-4.727 -4.149,-9.368 -10.481,-12.965 L 370.289,258.68"
         id="path117" />
    </clipPath>
    <linearGradient
       x1="0"
       y1="0"
       x2="1"
       y2="0"
       gradientUnits="userSpaceOnUse"
       gradientTransform="matrix(-241.97,0,0,-241.97,438.344,299.986)"
       spreadMethod="pad"
       id="linearGradient129">
      <stop
         style="stop-opacity:1;stop-color:#ffe000"
         offset="0"
         id="stop121" />
      <stop
         style="stop-opacity:1;stop-color:#ffbd00"
         offset="0.4087"
         id="stop123" />
      <stop
         style="stop-opacity:1;stop-color:#ffa500"
         offset="0.7754"
         id="stop125" />
      <stop
         style="stop-opacity:1;stop-color:#ff9c00"
         offset="1"
         id="stop127" />
    </linearGradient>
    <clipPath
       clipPathUnits="userSpaceOnUse"
       id="clipPath139">
      <path
         d="m 213.93,171.387 c -3.461,0 -6.481,1.125 -8.836,3.25 l 0.004,0.004 c 2.355,-2.125 5.379,-3.254 8.84,-3.254 0.3,0 0.605,0.008 0.914,0.023 -0.313,-0.015 -0.622,-0.023 -0.922,-0.023 m 0.004,1.465 c -3.461,-0.004 -6.481,1.125 -8.836,3.25 v 0 0.003 l 123.886,123.887 41.305,-41.312 v 0 L 225.137,176.207 c -4.016,-2.277 -7.821,-3.355 -11.203,-3.355 m -8.871,1.812 c -0.219,0.199 -0.434,0.41 -0.645,0.629 l 0.645,-0.629"
         id="path137" />
    </clipPath>
    <linearGradient
       x1="0"
       y1="0"
       x2="1"
       y2="0"
       gradientUnits="userSpaceOnUse"
       gradientTransform="matrix(-227.583,-227.583,227.583,-227.583,348.27,277.039)"
       spreadMethod="pad"
       id="linearGradient145">
      <stop
         style="stop-opacity:1;stop-color:#ff3a44"
         offset="0"
         id="stop141" />
      <stop
         style="stop-opacity:1;stop-color:#c31162"
         offset="1"
         id="stop143" />
    </linearGradient>
    <clipPath
       clipPathUnits="userSpaceOnUse"
       id="clipPath155">
      <path
         d="m 328.984,299.992 v 0 L 205.086,423.887 c 2.355,2.121 5.371,3.246 8.828,3.246 3.391,0 7.199,-1.082 11.223,-3.363 l 145.148,-82.473 -41.301,-41.305 m 42.235,42.238 -146.082,83 c -4.024,2.282 -7.832,3.364 -11.223,3.364 -0.016,0 -0.027,0 -0.043,0 0.02,0 0.035,0 0.059,0 3.383,0 7.187,-1.078 11.207,-3.36 L 371.219,342.23 M 213.84,428.594 v 0 0"
         id="path153" />
    </clipPath>
    <linearGradient
       x1="0"
       y1="0"
       x2="1"
       y2="0"
       gradientUnits="userSpaceOnUse"
       gradientTransform="matrix(101.625,-101.625,101.625,101.625,172.973,498.238)"
       spreadMethod="pad"
       id="linearGradient167">
      <stop
         style="stop-opacity:1;stop-color:#32a071"
         offset="0"
         id="stop157" />
      <stop
         style="stop-opacity:1;stop-color:#2da771"
         offset="0.0685"
         id="stop159" />
      <stop
         style="stop-opacity:1;stop-color:#15cf74"
         offset="0.4762"
         id="stop161" />
      <stop
         style="stop-opacity:1;stop-color:#06e775"
         offset="0.8009"
         id="stop163" />
      <stop
         style="stop-opacity:1;stop-color:#00f076"
         offset="1"
         id="stop165" />
    </linearGradient>
    <clipPath
       clipPathUnits="userSpaceOnUse"
       id="clipPath179">
      <path
         d="m 370.277,257.215 v 0 l 0.942,0.535 -0.942,-0.535"
         id="path177" />
    </clipPath>
    <linearGradient
       x1="0"
       y1="0"
       x2="1"
       y2="0"
       gradientUnits="userSpaceOnUse"
       gradientTransform="matrix(-241.97,0,0,-241.97,438.344,299.986)"
       spreadMethod="pad"
       id="linearGradient189">
      <stop
         style="stop-opacity:1;stop-color:#ccb300"
         offset="0"
         id="stop181" />
      <stop
         style="stop-opacity:1;stop-color:#cc9700"
         offset="0.4087"
         id="stop183" />
      <stop
         style="stop-opacity:1;stop-color:#cc8400"
         offset="0.7754"
         id="stop185" />
      <stop
         style="stop-opacity:1;stop-color:#cc7d00"
         offset="1"
         id="stop187" />
    </linearGradient>
    <clipPath
       clipPathUnits="userSpaceOnUse"
       id="clipPath199">
      <path
         d="m 213.938,171.387 c -3.461,0 -6.485,1.129 -8.84,3.254 l -0.004,-0.004 c -0.008,0.008 -0.02,0.019 -0.031,0.027 l -0.645,0.629 c -0.02,0.02 -0.039,0.043 -0.063,0.066 l 0.743,0.743 c 2.355,-2.125 5.375,-3.254 8.836,-3.25 3.382,0 7.187,1.078 11.203,3.355 l 145.152,82.473 0.93,-0.93 -0.942,-0.535 -145.14,-82.469 c -3.66,-2.074 -7.141,-3.156 -10.285,-3.336 -0.309,-0.015 -0.614,-0.023 -0.914,-0.023"
         id="path197" />
    </clipPath>
    <linearGradient
       x1="0"
       y1="0"
       x2="1"
       y2="0"
       gradientUnits="userSpaceOnUse"
       gradientTransform="matrix(-227.583,-227.583,227.583,-227.583,348.27,277.039)"
       spreadMethod="pad"
       id="linearGradient205">
      <stop
         style="stop-opacity:1;stop-color:#cc2e36"
         offset="0"
         id="stop201" />
      <stop
         style="stop-opacity:1;stop-color:#9c0e4e"
         offset="1"
         id="stop203" />
    </linearGradient>
    <clipPath
       clipPathUnits="userSpaceOnUse"
       id="clipPath217">
      <path
         d="m 204.355,175.359 v 0 c -2.91,3.079 -4.628,7.856 -4.628,14.051 v 1.457 c 0,-6.191 1.718,-10.972 4.628,-14.051 l 0.743,-0.711 -0.743,-0.746"
         id="path215" />
    </clipPath>
    <linearGradient
       x1="0"
       y1="0"
       x2="1"
       y2="0"
       gradientUnits="userSpaceOnUse"
       gradientTransform="matrix(-167.825,-167.825,167.825,-167.825,317.998,412.903)"
       spreadMethod="pad"
       id="linearGradient231">
      <stop
         style="stop-opacity:1;stop-color:#008de0"
         offset="0"
         id="stop219" />
      <stop
         style="stop-opacity:1;stop-color:#008de0"
         offset="0.00657445"
         id="stop221" />
      <stop
         style="stop-opacity:1;stop-color:#00a7e0"
         offset="0.2601"
         id="stop223" />
      <stop
         style="stop-opacity:1;stop-color:#00b8e0"
         offset="0.5122"
         id="stop225" />
      <stop
         style="stop-opacity:1;stop-color:#00c4e0"
         offset="0.7604"
         id="stop227" />
      <stop
         style="stop-opacity:1;stop-color:#00c7e0"
         offset="1"
         id="stop229" />
    </linearGradient>
    <clipPath
       clipPathUnits="userSpaceOnUse"
       id="clipPath241">
      <path
         d="m 204.355,175.359 v 0 0 l 0.743,0.746 v -0.003 l -0.743,-0.743"
         id="path239" />
    </clipPath>
    <linearGradient
       x1="0"
       y1="0"
       x2="1"
       y2="0"
       gradientUnits="userSpaceOnUse"
       gradientTransform="matrix(-227.583,-227.583,227.583,-227.583,348.27,277.039)"
       spreadMethod="pad"
       id="linearGradient247">
      <stop
         style="stop-opacity:1;stop-color:#e0333c"
         offset="0"
         id="stop243" />
      <stop
         style="stop-opacity:1;stop-color:#ab0f56"
         offset="1"
         id="stop245" />
    </linearGradient>
    <clipPath
       clipPathUnits="userSpaceOnUse"
       id="clipPath259">
      <path
         d="m 371.219,257.75 v 0 l -0.93,0.93 49.859,28.332 c 6.332,3.597 9.887,8.238 10.481,12.965 0,-1.735 -0.387,-3.469 -1.156,-5.157 -1.551,-3.402 -4.66,-6.617 -9.325,-9.269 L 371.219,257.75"
         id="path257" />
    </clipPath>
    <linearGradient
       x1="0"
       y1="0"
       x2="1"
       y2="0"
       gradientUnits="userSpaceOnUse"
       gradientTransform="matrix(-241.97,0,0,-241.97,438.344,299.986)"
       spreadMethod="pad"
       id="linearGradient269">
      <stop
         style="stop-opacity:1;stop-color:#e0c500"
         offset="0"
         id="stop261" />
      <stop
         style="stop-opacity:1;stop-color:#e0a600"
         offset="0.4087"
         id="stop263" />
      <stop
         style="stop-opacity:1;stop-color:#e09100"
         offset="0.7754"
         id="stop265" />
      <stop
         style="stop-opacity:1;stop-color:#e08900"
         offset="1"
         id="stop267" />
    </linearGradient>
    <clipPath
       clipPathUnits="userSpaceOnUse"
       id="clipPath281">
      <path
         d="m 430.629,299.996 c -0.594,4.738 -4.149,9.375 -10.481,12.973 l -49.863,28.328 0.93,0.93 h 0.004 l 48.929,-27.801 c 6.981,-3.969 10.477,-9.199 10.481,-14.43"
         id="path279" />
    </clipPath>
    <linearGradient
       x1="0"
       y1="0"
       x2="1"
       y2="0"
       gradientUnits="userSpaceOnUse"
       gradientTransform="matrix(-241.97,0,0,-241.97,438.344,299.986)"
       spreadMethod="pad"
       id="linearGradient291">
      <stop
         style="stop-opacity:1;stop-color:#ffe840"
         offset="0"
         id="stop283" />
      <stop
         style="stop-opacity:1;stop-color:#ffce40"
         offset="0.4087"
         id="stop285" />
      <stop
         style="stop-opacity:1;stop-color:#ffbc40"
         offset="0.7754"
         id="stop287" />
      <stop
         style="stop-opacity:1;stop-color:#ffb540"
         offset="1"
         id="stop289" />
    </linearGradient>
    <clipPath
       clipPathUnits="userSpaceOnUse"
       id="clipPath303">
      <path
         d="m 199.727,409.105 v 1.461 c 0,0.02 0,0.036 0,0.055 0,0.004 0,0.008 0,0.012 0,0.551 0.015,1.09 0.043,1.613 0,0.008 0,0.016 0,0.024 0,0.007 0,0.015 0.003,0.023 0,0.016 0,0.031 0,0.047 0,0.004 0,0.008 0,0.012 0.301,5.332 1.957,9.492 4.582,12.269 v 0 0 l 0.731,-0.734 c -3.356,-3.028 -5.359,-8.078 -5.359,-14.782 m 5.339,16.215 0.028,0.028 c -0.008,-0.012 -0.02,-0.02 -0.028,-0.028"
         id="path301" />
    </clipPath>
    <linearGradient
       x1="0"
       y1="0"
       x2="1"
       y2="0"
       gradientUnits="userSpaceOnUse"
       gradientTransform="matrix(-167.825,-167.825,167.825,-167.825,317.998,412.903)"
       spreadMethod="pad"
       id="linearGradient317">
      <stop
         style="stop-opacity:1;stop-color:#40b8ff"
         offset="0"
         id="stop305" />
      <stop
         style="stop-opacity:1;stop-color:#40b9ff"
         offset="0.00657445"
         id="stop307" />
      <stop
         style="stop-opacity:1;stop-color:#40ceff"
         offset="0.2601"
         id="stop309" />
      <stop
         style="stop-opacity:1;stop-color:#40ddff"
         offset="0.5122"
         id="stop311" />
      <stop
         style="stop-opacity:1;stop-color:#40e7ff"
         offset="0.7604"
         id="stop313" />
      <stop
         style="stop-opacity:1;stop-color:#40eaff"
         offset="1"
         id="stop315" />
    </linearGradient>
    <clipPath
       clipPathUnits="userSpaceOnUse"
       id="clipPath329">
      <path
         d="M 370.285,341.297 225.137,423.77 c -4.024,2.281 -7.832,3.363 -11.223,3.363 -3.457,0 -6.473,-1.125 -8.828,-3.246 l -0.731,0.734 v 0 c 0.231,0.242 0.465,0.477 0.711,0.699 0.008,0.008 0.02,0.016 0.028,0.024 2.336,2.105 5.32,3.23 8.746,3.25 v 0 c 0.008,0 0.019,0 0.031,0 0.016,0 0.027,0 0.043,0 3.391,0 7.199,-1.082 11.223,-3.364 l 146.082,-83 -0.004,-0.003 -0.93,-0.93"
         id="path327" />
    </clipPath>
    <linearGradient
       x1="0"
       y1="0"
       x2="1"
       y2="0"
       gradientUnits="userSpaceOnUse"
       gradientTransform="matrix(101.625,-101.625,101.625,101.625,172.973,498.238)"
       spreadMethod="pad"
       id="linearGradient341">
      <stop
         style="stop-opacity:1;stop-color:#65b895"
         offset="0"
         id="stop331" />
      <stop
         style="stop-opacity:1;stop-color:#62bd95"
         offset="0.0685"
         id="stop333" />
      <stop
         style="stop-opacity:1;stop-color:#50db97"
         offset="0.4762"
         id="stop335" />
      <stop
         style="stop-opacity:1;stop-color:#44ed98"
         offset="0.8009"
         id="stop337" />
      <stop
         style="stop-opacity:1;stop-color:#40f498"
         offset="1"
         id="stop339" />
    </linearGradient>
  </defs>
  <g
     inkscape:label="Layer 1"
     inkscape:groupmode="layer"
     id="layer1"
     transform="translate(-69.869784,-143.65073)">
    <path
       d="M 115.7309,157.76184 H 71.633673 c -0.970139,0 -1.763889,-0.79375 -1.763889,-1.76389 v -10.58333 c 0,-0.97014 0.79375,-1.76389 1.763889,-1.76389 H 115.7309 c 0.97014,0 1.76389,0.79375 1.76389,1.76389 v 10.58333 c 0,0.97014 -0.79375,1.76389 -1.76389,1.76389"
       style="fill:#000000;fill-opacity:1;fill-rule:nonzero;stroke:none;stroke-width:0.0352778"
       id="path55" />
    <path
       d="M 115.7309,143.65073 H 71.633673 c -0.970139,0 -1.763889,0.79375 -1.763889,1.76389 v 10.58333 c 0,0.97014 0.79375,1.76389 1.763889,1.76389 H 115.7309 c 0.97014,0 1.76389,-0.79375 1.76389,-1.76389 v -10.58333 c 0,-0.97014 -0.79375,-1.76389 -1.76389,-1.76389 m 0,0.28222 c 0.81703,0 1.48166,0.66478 1.48166,1.48167 v 10.58333 c 0,0.81704 -0.66463,1.48181 -1.48166,1.48181 H 71.633673 c -0.816892,0 -1.481667,-0.66477 -1.481667,-1.48181 v -10.58333 c 0,-0.81689 0.664775,-1.48167 1.481667,-1.48167 H 115.7309"
       style="fill:#a6a6a6;fill-opacity:1;fill-rule:nonzero;stroke:none;stroke-width:0.0352778"
       id="path57" />
    <path
       d="m 86.597943,147.26437 c 0,0.29556 -0.08752,0.53093 -0.26282,0.70651 -0.199107,0.20878 -0.458611,0.31323 -0.777628,0.31323 -0.305505,0 -0.565256,-0.10583 -0.778863,-0.31778 -0.213995,-0.21181 -0.32078,-0.47445 -0.32078,-0.78782 0,-0.31352 0.106785,-0.57602 0.32078,-0.78797 0.213607,-0.2118 0.473358,-0.31778 0.778863,-0.31778 0.151589,0 0.296722,0.0296 0.434517,0.0888 0.137795,0.0593 0.24832,0.13794 0.331011,0.23647 l -0.186055,0.18616 c -0.140123,-0.16743 -0.333057,-0.25107 -0.579473,-0.25107 -0.222814,0 -0.415466,0.0783 -0.578061,0.23495 -0.162631,0.15684 -0.243911,0.36022 -0.243911,0.61048 0,0.25026 0.08128,0.45363 0.243911,0.61048 0.162595,0.15667 0.355247,0.23495 0.578061,0.23495 0.236361,0 0.433423,-0.0787 0.591185,-0.23633 0.102412,-0.10269 0.161643,-0.24542 0.177483,-0.42873 h -0.768668 v -0.25424 h 1.025702 c 0.0099,0.0553 0.01475,0.10833 0.01475,0.15973"
       style="fill:#ffffff;fill-opacity:1;fill-rule:nonzero;stroke:none;stroke-width:0.0352778"
       id="path59" />
    <path
       d="m 86.597943,147.26437 h -0.03528 c -2.82e-4,0.28882 -0.08463,0.51315 -0.252483,0.68157 l -3.88e-4,2.8e-4 -1.41e-4,2.9e-4 c -0.192793,0.20157 -0.440584,0.3019 -0.752158,0.30233 -0.297356,-4.3e-4 -0.546241,-0.10185 -0.754062,-0.30745 -0.207363,-0.20602 -0.309916,-0.45752 -0.310304,-0.76288 3.88e-4,-0.30551 0.102941,-0.55686 0.310304,-0.76274 0.207821,-0.20574 0.456706,-0.30731 0.754062,-0.30773 0.147038,0 0.287056,0.0287 0.420582,0.0859 0.133667,0.0576 0.239254,0.1331 0.317923,0.22683 l 0.02702,-0.0228 -0.02494,-0.0249 -0.186055,0.1863 0.02494,0.0248 0.02716,-0.0226 c -0.14665,-0.17572 -0.352496,-0.2643 -0.606637,-0.26377 -0.231069,-2.8e-4 -0.43434,0.0823 -0.602474,0.2449 -0.169756,0.16316 -0.255058,0.37796 -0.254776,0.63581 -2.82e-4,0.25784 0.08502,0.47265 0.254776,0.63581 0.168134,0.16263 0.371405,0.24518 0.602474,0.2449 0.244193,4.2e-4 0.452297,-0.0824 0.616127,-0.24666 v 0 c 0.109431,-0.10972 0.17145,-0.2617 0.187713,-0.45064 l 0.0033,-0.0383 h -0.771843 v -0.1837 h 0.990424 v -0.0353 l -0.03475,0.006 c 0.0097,0.0535 0.01422,0.10431 0.01422,0.15352 h 0.03528 0.03528 c 0,-0.0536 -0.005,-0.10872 -0.01531,-0.16605 l -0.0052,-0.029 h -1.090472 v 0.28952 0.0353 h 0.803946 v -0.0353 l -0.03514,-0.003 c -0.01556,0.17752 -0.07207,0.31118 -0.167287,0.40682 v 0 c -0.151589,0.15103 -0.337608,0.22557 -0.566244,0.22599 -0.214559,-2.8e-4 -0.396593,-0.0742 -0.553543,-0.22503 -0.155434,-0.15036 -0.232763,-0.34231 -0.233151,-0.58512 3.88e-4,-0.24282 0.07772,-0.43477 0.233151,-0.58512 0.15695,-0.15088 0.338984,-0.22475 0.553543,-0.22504 0.238549,5.7e-4 0.418677,0.0794 0.552486,0.23855 l 0.0248,0.0295 0.213183,-0.21346 0.02286,-0.0229 -0.02081,-0.0247 c -0.08668,-0.10332 -0.202142,-0.18535 -0.3441,-0.24623 -0.142205,-0.0611 -0.292276,-0.0917 -0.448416,-0.0917 -0.313619,-2.8e-4 -0.58427,0.10996 -0.803804,0.32812 -0.220345,0.21774 -0.331399,0.49142 -0.331117,0.81291 -2.82e-4,0.32134 0.110772,0.59517 0.331258,0.81304 0.219393,0.21802 0.490044,0.32812 0.803663,0.32784 0.326602,2.8e-4 0.597535,-0.1082 0.803134,-0.32413 l -0.02551,-0.0244 0.02494,0.0249 c 0.182739,-0.18259 0.273403,-0.42926 0.273156,-0.73145 h -0.03528"
       style="fill:#ffffff;fill-opacity:1;fill-rule:nonzero;stroke:none;stroke-width:0.0352778"
       id="path61" />
    <path
       d="m 88.224002,146.38021 h -0.963931 v 0.67112 h 0.86928 v 0.25435 h -0.86928 v 0.67113 h 0.963931 v 0.26003 h -1.235675 v -2.11667 h 1.235675 v 0.26004"
       style="fill:#ffffff;fill-opacity:1;fill-rule:nonzero;stroke:none;stroke-width:0.0352778"
       id="path63" />
    <path
       d="m 88.224002,146.38021 v -0.0353 h -0.999208 v 0.74168 h 0.869279 v 0.18369 l -0.869279,1.1e-4 v 0.74168 h 0.96393 v 0.18947 h -1.165119 v -2.04611 h 1.165119 v 0.22476 h 0.03528 v -0.0353 0.0353 h 0.03528 v -0.26004 -0.0353 h -1.30623 v 2.18722 h 1.30623 v -0.29531 -0.0353 h -0.96393 v -0.60057 h 0.86928 v -0.28963 -0.0353 h -0.86928 v -0.60057 h 0.96393 v -0.0353 h -0.03528"
       style="fill:#ffffff;fill-opacity:1;fill-rule:nonzero;stroke:none;stroke-width:0.0352778"
       id="path65" />
    <path
       d="m 89.370953,148.23684 h -0.272168 v -1.85663 H 88.5076 v -0.26004 h 1.454538 v 0.26004 h -0.591185 v 1.85663"
       style="fill:#ffffff;fill-opacity:1;fill-rule:nonzero;stroke:none;stroke-width:0.0352778"
       id="path67" />
    <path
       d="m 89.370953,148.23684 v -0.0353 h -0.236891 v -1.85663 h -0.591185 v -0.18948 h 1.383983 v 0.18948 h -0.591185 v 1.89191 h 0.03528 v -0.0353 0.0353 h 0.03528 v -1.82136 h 0.591185 v -0.29531 -0.0353 h -1.525094 v 0.29531 0.0353 h 0.591185 v 1.85664 h 0.307446 0.03528 v -0.0353 h -0.03528"
       style="fill:#ffffff;fill-opacity:1;fill-rule:nonzero;stroke:none;stroke-width:0.0352778"
       id="path69" />
    <path
       d="m 91.014544,148.23684 v -2.11667 h 0.271886 v 2.11667 h -0.271886"
       style="fill:#ffffff;fill-opacity:1;fill-rule:nonzero;stroke:none;stroke-width:0.0352778"
       id="path71" />
    <path
       d="m 91.014544,148.23684 h 0.03528 v -2.08139 h 0.201331 v 2.04611 h -0.236609 v 0.0353 h 0.03528 -0.03528 v 0.0353 h 0.271886 0.03528 v -2.18722 h -0.307164 -0.03528 v 2.18722 h 0.03528 v -0.0353"
       style="fill:#ffffff;fill-opacity:1;fill-rule:nonzero;stroke:none;stroke-width:0.0352778"
       id="path73" />
    <path
       d="m 92.492895,148.23684 h -0.272168 v -1.85663 h -0.59115 v -0.26004 h 1.454503 v 0.26004 h -0.591185 v 1.85663"
       style="fill:#ffffff;fill-opacity:1;fill-rule:nonzero;stroke:none;stroke-width:0.0352778"
       id="path75" />
    <path
       d="m 92.492895,148.23684 v -0.0353 h -0.23689 v -1.85663 h -0.59115 v -0.18948 h 1.383947 v 0.18948 h -0.591185 v 1.89191 h 0.03528 v -0.0353 0.0353 h 0.03528 v -1.82136 h 0.591185 v -0.29531 -0.0353 H 91.5943 v 0.29531 0.0353 h 0.591149 v 1.85664 h 0.307446 0.03528 v -0.0353 h -0.03528"
       style="fill:#ffffff;fill-opacity:1;fill-rule:nonzero;stroke:none;stroke-width:0.0352778"
       id="path77" />
    <path
       d="m 94.486372,147.7861 c 0.156669,0.15861 0.348368,0.23784 0.575063,0.23784 0.226695,0 0.4185,-0.0792 0.574922,-0.23784 0.15681,-0.15861 0.235373,-0.36135 0.235373,-0.60759 0,-0.24624 -0.07856,-0.44898 -0.235373,-0.60759 -0.156422,-0.15861 -0.348227,-0.23784 -0.574922,-0.23784 -0.226695,0 -0.418394,0.0792 -0.575063,0.23784 -0.156422,0.15861 -0.23495,0.36135 -0.23495,0.60759 0,0.24624 0.07853,0.44898 0.23495,0.60759 z m 1.351174,0.1772 c -0.208103,0.21399 -0.466901,0.32081 -0.776111,0.32081 -0.309527,0 -0.568184,-0.10682 -0.775829,-0.32081 -0.208245,-0.21375 -0.311855,-0.47541 -0.311855,-0.78479 0,-0.30939 0.10361,-0.57108 0.311855,-0.78479 0.207645,-0.21403 0.466302,-0.32096 0.775829,-0.32096 0.307587,0 0.565679,0.10749 0.774735,0.32233 0.208774,0.21485 0.313232,0.47597 0.313232,0.78342 0,0.30938 -0.104211,0.57104 -0.311856,0.78479"
       style="fill:#ffffff;fill-opacity:1;fill-rule:nonzero;stroke:none;stroke-width:0.0352778"
       id="path79" />
    <path
       d="m 94.486372,147.7861 -0.02508,0.0248 c 0.16249,0.16496 0.365196,0.24874 0.600146,0.24832 0.234809,4.2e-4 0.437797,-0.0834 0.600005,-0.24832 0.163547,-0.1651 0.245815,-0.37871 0.245568,-0.63239 2.47e-4,-0.25368 -0.08202,-0.46729 -0.245568,-0.63239 v 0 c -0.162208,-0.16496 -0.365196,-0.24875 -0.600005,-0.24832 -0.23495,-4.3e-4 -0.437656,0.0834 -0.600146,0.24832 v 0 c -0.163159,0.1651 -0.245568,0.37871 -0.245145,0.63239 -4.23e-4,0.25368 0.08199,0.46729 0.245145,0.63239 l 0.02508,-0.0248 0.02508,-0.0248 c -0.149648,-0.1523 -0.224472,-0.34386 -0.224754,-0.58279 2.82e-4,-0.23894 0.07511,-0.4305 0.224754,-0.58279 v 0 c 0.151025,-0.15226 0.3314,-0.22694 0.549981,-0.22737 0.218405,4.3e-4 0.399203,0.0751 0.54984,0.22737 v 0 c 0.14993,0.15229 0.224754,0.34385 0.225036,0.58279 -2.82e-4,0.23893 -0.07511,0.43049 -0.225036,0.58279 -0.150637,0.15226 -0.331435,0.22694 -0.54984,0.22736 -0.218581,-4.2e-4 -0.398956,-0.0751 -0.549981,-0.22736 z m 1.351174,0.1772 -0.02522,-0.0245 c -0.202283,0.20726 -0.449651,0.30963 -0.750888,0.31006 -0.301378,-4.3e-4 -0.548746,-0.1028 -0.750641,-0.31006 l -9.52e-4,-10e-4 9.52e-4,10e-4 c -0.201859,-0.20796 -0.301483,-0.45875 -0.301766,-0.76027 2.83e-4,-0.30152 0.09991,-0.55231 0.301766,-0.76027 v 0 c 0.201895,-0.20726 0.449263,-0.30978 0.750641,-0.3102 0.299297,4.2e-4 0.5461,0.10336 0.749512,0.31171 0.202565,0.20892 0.302754,0.45932 0.303177,0.75876 -4.23e-4,0.30152 -0.10033,0.55231 -0.301801,0.76027 l 0.02522,0.0245 0.02536,0.0245 c 0.213854,-0.21964 0.322015,-0.49209 0.321769,-0.80931 2.46e-4,-0.31542 -0.108339,-0.58731 -0.32318,-0.80793 -0.214948,-0.22148 -0.484223,-0.33348 -0.800065,-0.3331 -0.3175,-3.8e-4 -0.587587,0.11109 -0.801194,0.33172 v -1.4e-4 c -0.214277,0.21978 -0.32205,0.49223 -0.321768,0.80945 -2.82e-4,0.31722 0.107491,0.58967 0.321768,0.80945 l 9.53e-4,9.8e-4 -9.53e-4,-0.001 c 0.213607,0.22062 0.483694,0.33185 0.801194,0.33157 0.317359,2.8e-4 0.587446,-0.11095 0.801476,-0.33157 l -0.02536,-0.0245"
       style="fill:#ffffff;fill-opacity:1;fill-rule:nonzero;stroke:none;stroke-width:0.0352778"
       id="path81" />
    <path
       d="m 96.531107,148.23684 v -2.11667 h 0.331012 l 1.0287,1.64663 h 0.01171 l -0.01171,-0.40792 v -1.23871 h 0.272168 v 2.11667 h -0.28388 l -1.076255,-1.72642 h -0.01171 l 0.01171,0.40806 v 1.31836 h -0.271745"
       style="fill:#ffffff;fill-opacity:1;fill-rule:nonzero;stroke:none;stroke-width:0.0352778"
       id="path83" />
    <path
       d="m 96.531107,148.23684 h 0.03528 v -2.08139 h 0.276155 l 1.0287,1.64663 h 0.03129 0.03623 l -0.01266,-0.44373 v -1.2029 h 0.201612 v 2.04611 h -0.229023 l -1.076255,-1.72642 h -0.03129 -0.03623 l 0.01266,0.4439 v 1.28252 h -0.236467 v 0.0353 h 0.03528 -0.03528 v 0.0353 h 0.271745 0.03528 v -1.35421 l -0.01171,-0.40845 -0.03528,9.6e-4 v 0.0353 h 0.01171 v -0.0353 l -0.02992,0.0188 1.08659,1.74293 h 0.30346 0.03528 v -2.18722 h -0.307446 -0.03528 v 1.27441 l 0.01171,0.40844 0.03528,-9.5e-4 v -0.0353 h -0.01171 v 0.0353 l 0.02992,-0.0187 -1.039071,-1.66317 h -0.350556 -0.03528 v 2.18722 h 0.03528 v -0.0353"
       style="fill:#ffffff;fill-opacity:1;fill-rule:nonzero;stroke:none;stroke-width:0.0352778"
       id="path85" />
    <path
       d="m 107.59443,154.23406 h 0.65828 v -4.41014 h -0.65828 z m 5.92914,-2.82151 -0.75459,1.91202 h -0.0226 l -0.78317,-1.91202 h -0.70908 l 1.1744,2.67239 -0.66958,1.4865 h 0.68686 l 1.80975,-4.15889 z m -3.7331,2.3206 c -0.2159,0 -0.51646,-0.10777 -0.51646,-0.37454 0,-0.34039 0.37465,-0.47089 0.69779,-0.47089 0.28963,0 0.42545,0.0624 0.60149,0.14761 -0.0512,0.40844 -0.40288,0.69782 -0.78282,0.69782 z m 0.0794,-2.41709 c -0.47661,0 -0.97014,0.21001 -1.1744,0.67525 l 0.5842,0.24391 c 0.12488,-0.24391 0.35736,-0.32342 0.60149,-0.32342 0.34043,0 0.6865,0.20436 0.69215,0.56748 v 0.0453 c -0.11924,-0.0681 -0.3743,-0.17018 -0.68651,-0.17018 -0.62971,0 -1.27106,0.346 -1.27106,0.99286 0,0.59009 0.51647,0.97028 1.09502,0.97028 0.44274,0 0.68651,-0.19858 0.83997,-0.43117 h 0.0226 v 0.34036 h 0.63535 v -1.69086 c 0,-0.78285 -0.5842,-1.21984 -1.33879,-1.21984 z m -4.06824,0.63334 h -0.93627 v -1.51168 h 0.93627 c 0.49213,0 0.77153,0.40745 0.77153,0.75582 0,0.34177 -0.2794,0.75586 -0.77153,0.75586 z m -0.0169,-2.12548 h -1.57727 v 4.41014 h 0.65793 v -1.67086 h 0.91934 c 0.72955,0 1.44674,-0.52821 1.44674,-1.36966 0,-0.84141 -0.71719,-1.36962 -1.44674,-1.36962 z m -8.601075,3.91005 c -0.454766,0 -0.835519,-0.38076 -0.835519,-0.90371 0,-0.52847 0.380753,-0.915 0.835519,-0.915 0.44898,0 0.801335,0.38653 0.801335,0.915 0,0.52295 -0.352355,0.90371 -0.801335,0.90371 z m 0.755862,-2.07448 h -0.02275 c -0.147708,-0.17614 -0.432012,-0.33528 -0.790011,-0.33528 -0.750217,0 -1.437852,0.65924 -1.437852,1.50605 0,0.84116 0.687635,1.49475 1.437852,1.49475 0.357999,0 0.642303,-0.15917 0.790011,-0.34092 h 0.02275 v 0.21593 c 0,0.57411 -0.306882,0.88099 -0.801335,0.88099 -0.403507,0 -0.653591,-0.28995 -0.756003,-0.53428 l -0.573934,0.23869 c 0.164818,0.39783 0.602474,0.88664 1.329937,0.88664 0.772936,0 1.426528,-0.45477 1.426528,-1.56299 v -2.69391 h -0.625193 z m 1.079817,2.57457 h 0.659272 v -4.41028 h -0.659272 z m 1.631176,-1.45492 c -0.0171,-0.57976 0.44898,-0.87521 0.78426,-0.87521 0.26162,0 0.48316,0.13063 0.55689,0.31835 z m 2.046,-0.5001 c -0.12488,-0.33542 -0.50588,-0.95483 -1.2845,-0.95483 -0.77293,0 -1.415093,0.60812 -1.415093,1.5004 0,0.84116 0.636513,1.5004 1.488973,1.5004 0.68781,0 1.08574,-0.42058 1.25049,-0.66492 l -0.51153,-0.34106 c -0.17039,0.25012 -0.40358,0.41494 -0.73896,0.41494 -0.33528,0 -0.57394,-0.1535 -0.72747,-0.45463 l 2.00618,-0.82984 z m -15.983723,-0.49445 v 0.63651 h 1.523118 c -0.04547,0.35804 -0.164818,0.61945 -0.34671,0.80134 -0.22158,0.22172 -0.56829,0.46605 -1.176408,0.46605 -0.937789,0 -1.670897,-0.75586 -1.670897,-1.69361 0,-0.93776 0.733108,-1.69372 1.670897,-1.69372 0.505848,0 0.875171,0.19896 1.148009,0.45473 l 0.448981,-0.44895 c -0.380754,-0.36382 -0.886637,-0.6423 -1.59699,-0.6423 -1.2845,0 -2.364317,1.04577 -2.364317,2.33024 0,1.28446 1.079817,2.33013 2.364317,2.33013 0.69342,0 1.216236,-0.22722 1.625388,-0.65359 0.420582,-0.42058 0.551357,-1.01163 0.551357,-1.48897 0,-0.14789 -0.01132,-0.28416 -0.03419,-0.39786 z m 3.90839,1.94938 c -0.454766,0 -0.846949,-0.37511 -0.846949,-0.90936 0,-0.53993 0.392183,-0.90935 0.846949,-0.90935 0.454589,0 0.846772,0.36942 0.846772,0.90935 0,0.53425 -0.392183,0.90936 -0.846772,0.90936 z m 0,-2.40976 c -0.829875,0 -1.50622,0.63084 -1.50622,1.5004 0,0.86388 0.676345,1.5004 1.50622,1.5004 0.829698,0 1.506043,-0.63652 1.506043,-1.5004 0,-0.86956 -0.676345,-1.5004 -1.506043,-1.5004 z m 3.28549,2.40976 c -0.45459,0 -0.846808,-0.37511 -0.846808,-0.90936 0,-0.53993 0.392218,-0.90935 0.846808,-0.90935 0.454625,0 0.846808,0.36942 0.846808,0.90935 0,0.53425 -0.392183,0.90936 -0.846808,0.90936 z m 0,-2.40976 c -0.829839,0 -1.506044,0.63084 -1.506044,1.5004 0,0.86388 0.676205,1.5004 1.506044,1.5004 0.829733,0 1.506079,-0.63652 1.506079,-1.5004 0,-0.86956 -0.676346,-1.5004 -1.506079,-1.5004"
       style="fill:#ffffff;fill-opacity:1;fill-rule:nonzero;stroke:none;stroke-width:0.0352778"
       id="path87" />
    <g
       id="g89"
       transform="matrix(0.03527778,0,0,-0.03527778,66.342006,161.28962)">
      <g
         id="g91"
         clip-path="url(#clipPath95)">
        <path
           d="m 205.098,176.105 -0.743,0.711 c -2.91,3.079 -4.628,7.86 -4.628,14.051 v -1.457 0 221.16 c 0,0.02 0,0.035 0,0.051 0,-0.019 0,-0.035 0,-0.055 v -1.461 c 0,6.704 2.003,11.754 5.359,14.782 L 328.984,299.992 205.098,176.105 m -5.371,234.528 c 0,0.551 0.015,1.086 0.043,1.613 -0.028,-0.523 -0.043,-1.062 -0.043,-1.613 m 0.043,1.637 c 0,0.007 0,0.015 0.003,0.023 -0.003,-0.008 -0.003,-0.016 -0.003,-0.023 m 0.003,0.07 c 0,0.004 0,0.008 0,0.012 0,-0.004 0,-0.008 0,-0.012"
           style="fill:url(#linearGradient109);fill-opacity:1;fill-rule:nonzero;stroke:none"
           id="path111" />
      </g>
    </g>
    <g
       id="g113"
       transform="matrix(0.03527778,0,0,-0.03527778,66.342006,161.28962)">
      <g
         id="g115"
         clip-path="url(#clipPath119)">
        <path
           d="m 370.277,257.215 v 0 l 0.942,0.535 48.929,27.801 c 4.665,2.652 7.774,5.867 9.325,9.269 -1.547,-3.402 -4.657,-6.621 -9.325,-9.273 l -48.929,-27.801 -0.942,-0.531 m 0.012,1.465 -41.305,41.312 41.301,41.305 49.863,-28.328 c 6.332,-3.598 9.887,-8.235 10.481,-12.973 0,-0.004 0,-0.012 0,-0.019 -0.594,-4.727 -4.149,-9.368 -10.481,-12.965 L 370.289,258.68"
           style="fill:url(#linearGradient129);fill-opacity:1;fill-rule:nonzero;stroke:none"
           id="path131" />
      </g>
    </g>
    <g
       id="g133"
       transform="matrix(0.03527778,0,0,-0.03527778,66.342006,161.28962)">
      <g
         id="g135"
         clip-path="url(#clipPath139)">
        <path
           d="m 213.93,171.387 c -3.461,0 -6.481,1.125 -8.836,3.25 l 0.004,0.004 c 2.355,-2.125 5.379,-3.254 8.84,-3.254 0.3,0 0.605,0.008 0.914,0.023 -0.313,-0.015 -0.622,-0.023 -0.922,-0.023 m 0.004,1.465 c -3.461,-0.004 -6.481,1.125 -8.836,3.25 v 0 0.003 l 123.886,123.887 41.305,-41.312 v 0 L 225.137,176.207 c -4.016,-2.277 -7.821,-3.355 -11.203,-3.355 m -8.871,1.812 c -0.219,0.199 -0.434,0.41 -0.645,0.629 l 0.645,-0.629"
           style="fill:url(#linearGradient145);fill-opacity:1;fill-rule:nonzero;stroke:none"
           id="path147" />
      </g>
    </g>
    <g
       id="g149"
       transform="matrix(0.03527778,0,0,-0.03527778,66.342006,161.28962)">
      <g
         id="g151"
         clip-path="url(#clipPath155)">
        <path
           d="m 328.984,299.992 v 0 L 205.086,423.887 c 2.355,2.121 5.371,3.246 8.828,3.246 3.391,0 7.199,-1.082 11.223,-3.363 l 145.148,-82.473 -41.301,-41.305 m 42.235,42.238 -146.082,83 c -4.024,2.282 -7.832,3.364 -11.223,3.364 -0.016,0 -0.027,0 -0.043,0 0.02,0 0.035,0 0.059,0 3.383,0 7.187,-1.078 11.207,-3.36 L 371.219,342.23 M 213.84,428.594 v 0 0"
           style="fill:url(#linearGradient167);fill-opacity:1;fill-rule:nonzero;stroke:none"
           id="path169" />
      </g>
    </g>
    <path
       d="m 73.921508,155.24266 c 0.110913,-0.006 0.233715,-0.0445 0.362832,-0.11769 l 5.120217,-2.90932 v 0 l -5.120217,2.90932 c -0.129011,0.0733 -0.251919,0.11134 -0.362832,0.11769 m -0.344241,-0.11385 -0.0011,-9.5e-4 c 3.88e-4,2.8e-4 8.12e-4,6.7e-4 0.0011,9.5e-4 v 0 m -0.02385,-0.0231 -0.0022,-0.002 v -1.4e-4 c 8.46e-4,8.2e-4 0.0015,0.002 0.0022,0.002"
       style="fill:#000000;fill-opacity:1;fill-rule:nonzero;stroke:none;stroke-width:0.0352778"
       id="path171" />
    <g
       id="g173"
       transform="matrix(0.03527778,0,0,-0.03527778,66.342006,161.28962)">
      <g
         id="g175"
         clip-path="url(#clipPath179)">
        <path
           d="m 370.277,257.215 v 0 l 0.942,0.535 -0.942,-0.535"
           style="fill:url(#linearGradient189);fill-opacity:1;fill-rule:nonzero;stroke:none"
           id="path191" />
      </g>
    </g>
    <g
       id="g193"
       transform="matrix(0.03527778,0,0,-0.03527778,66.342006,161.28962)">
      <g
         id="g195"
         clip-path="url(#clipPath199)">
        <path
           d="m 213.938,171.387 c -3.461,0 -6.485,1.129 -8.84,3.254 l -0.004,-0.004 c -0.008,0.008 -0.02,0.019 -0.031,0.027 l -0.645,0.629 c -0.02,0.02 -0.039,0.043 -0.063,0.066 l 0.743,0.743 c 2.355,-2.125 5.375,-3.254 8.836,-3.25 3.382,0 7.187,1.078 11.203,3.355 l 145.152,82.473 0.93,-0.93 -0.942,-0.535 -145.14,-82.469 c -3.66,-2.074 -7.141,-3.156 -10.285,-3.336 -0.309,-0.015 -0.614,-0.023 -0.914,-0.023"
           style="fill:url(#linearGradient205);fill-opacity:1;fill-rule:nonzero;stroke:none"
           id="path207" />
      </g>
    </g>
    <path
       d="m 73.551197,155.10348 c -0.102659,-0.10862 -0.163266,-0.27728 -0.163266,-0.49568 v -1.4e-4 c 0,0.21854 0.06061,0.38706 0.163266,0.49568 v 0 0 1.4e-4"
       style="fill:#000000;fill-opacity:1;fill-rule:nonzero;stroke:none;stroke-width:0.0352778"
       id="path209" />
    <g
       id="g211"
       transform="matrix(0.03527778,0,0,-0.03527778,66.342006,161.28962)">
      <g
         id="g213"
         clip-path="url(#clipPath217)">
        <path
           d="m 204.355,175.359 v 0 c -2.91,3.079 -4.628,7.856 -4.628,14.051 v 1.457 c 0,-6.191 1.718,-10.972 4.628,-14.051 l 0.743,-0.711 -0.743,-0.746"
           style="fill:url(#linearGradient231);fill-opacity:1;fill-rule:nonzero;stroke:none"
           id="path233" />
      </g>
    </g>
    <g
       id="g235"
       transform="matrix(0.03527778,0,0,-0.03527778,66.342006,161.28962)">
      <g
         id="g237"
         clip-path="url(#clipPath241)">
        <path
           d="m 204.355,175.359 v 0 0 l 0.743,0.746 v -0.003 l -0.743,-0.743"
           style="fill:url(#linearGradient247);fill-opacity:1;fill-rule:nonzero;stroke:none"
           id="path249" />
      </g>
    </g>
    <path
       d="m 81.49286,150.88902 c 0.02713,-0.0595 0.04078,-0.12072 0.04078,-0.18192 0,-1.1e-4 0,-2.5e-4 0,-2.5e-4 0,0.0613 -0.01365,0.12248 -0.04078,0.18217"
       style="fill:#000000;fill-opacity:1;fill-rule:nonzero;stroke:none;stroke-width:0.0352778"
       id="path251" />
    <g
       id="g253"
       transform="matrix(0.03527778,0,0,-0.03527778,66.342006,161.28962)">
      <g
         id="g255"
         clip-path="url(#clipPath259)">
        <path
           d="m 371.219,257.75 v 0 l -0.93,0.93 49.859,28.332 c 6.332,3.597 9.887,8.238 10.481,12.965 0,-1.735 -0.387,-3.469 -1.156,-5.157 -1.551,-3.402 -4.66,-6.617 -9.325,-9.269 L 371.219,257.75"
           style="fill:url(#linearGradient269);fill-opacity:1;fill-rule:nonzero;stroke:none"
           id="path271" />
      </g>
    </g>
    <path
       d="m 81.533641,150.70657 v -1.4e-4 c -1.41e-4,-0.18454 -0.123472,-0.36904 -0.369746,-0.50906 l -1.726107,-0.98076 h -1.41e-4 l 1.41e-4,-1e-4 1.726107,0.98072 c 0.246556,0.14002 0.370028,0.3248 0.369746,0.50934"
       style="fill:#404040;fill-opacity:1;fill-rule:nonzero;stroke:none;stroke-width:0.0352778"
       id="path273" />
    <g
       id="g275"
       transform="matrix(0.03527778,0,0,-0.03527778,66.342006,161.28962)">
      <g
         id="g277"
         clip-path="url(#clipPath281)">
        <path
           d="m 430.629,299.996 c -0.594,4.738 -4.149,9.375 -10.481,12.973 l -49.863,28.328 0.93,0.93 h 0.004 l 48.929,-27.801 c 6.981,-3.969 10.477,-9.199 10.481,-14.43"
           style="fill:url(#linearGradient291);fill-opacity:1;fill-rule:nonzero;stroke:none"
           id="path293" />
      </g>
    </g>
    <path
       d="m 73.387931,146.80382 c 0,-1.4e-4 0,-2.8e-4 0,-4.2e-4 0,1.4e-4 0,2.8e-4 0,4.2e-4 m 0.0015,-0.0573 c 0,-2.9e-4 0,-5.7e-4 0,-8.5e-4 0,2.8e-4 0,5.6e-4 0,8.5e-4 m 1.06e-4,-0.002 c 0,-5.7e-4 0,-0.001 0,-0.002 0,5.6e-4 0,10e-4 0,0.002 m 0,-0.002 c 0.02043,-0.36241 0.217487,-0.57175 0.496252,-0.57298 -0.120861,7e-4 -0.22613,0.0404 -0.308539,0.11465 v -1.4e-4 l -9.88e-4,9.8e-4 c -0.0087,0.008 -0.01693,0.0161 -0.02508,0.0247 v 0 c -0.0926,0.098 -0.151024,0.24473 -0.161643,0.43283"
       style="fill:#404040;fill-opacity:1;fill-rule:nonzero;stroke:none;stroke-width:0.0352778"
       id="path295" />
    <g
       id="g297"
       transform="matrix(0.03527778,0,0,-0.03527778,66.342006,161.28962)">
      <g
         id="g299"
         clip-path="url(#clipPath303)">
        <path
           d="m 199.727,409.105 v 1.461 c 0,0.02 0,0.036 0,0.055 0,0.004 0,0.008 0,0.012 0,0.551 0.015,1.09 0.043,1.613 0,0.008 0,0.016 0,0.024 0,0.007 0,0.015 0.003,0.023 0,0.016 0,0.031 0,0.047 0,0.004 0,0.008 0,0.012 0.301,5.332 1.957,9.492 4.582,12.269 v 0 0 l 0.731,-0.734 c -3.356,-3.028 -5.359,-8.078 -5.359,-14.782 m 5.339,16.215 0.028,0.028 c -0.008,-0.012 -0.02,-0.02 -0.028,-0.028"
           style="fill:url(#linearGradient317);fill-opacity:1;fill-rule:nonzero;stroke:none"
           id="path319" />
      </g>
    </g>
    <path
       d="m 73.885806,146.16978 c 2.83e-4,0 6.71e-4,0 0.0011,0 -4.23e-4,0 -8.11e-4,0 -0.0011,0"
       style="fill:#404040;fill-opacity:1;fill-rule:nonzero;stroke:none;stroke-width:0.0352778"
       id="path321" />
    <g
       id="g323"
       transform="matrix(0.03527778,0,0,-0.03527778,66.342006,161.28962)">
      <g
         id="g325"
         clip-path="url(#clipPath329)">
        <path
           d="M 370.285,341.297 225.137,423.77 c -4.024,2.281 -7.832,3.363 -11.223,3.363 -3.457,0 -6.473,-1.125 -8.828,-3.246 l -0.731,0.734 v 0 c 0.231,0.242 0.465,0.477 0.711,0.699 0.008,0.008 0.02,0.016 0.028,0.024 2.336,2.105 5.32,3.23 8.746,3.25 v 0 c 0.008,0 0.019,0 0.031,0 0.016,0 0.027,0 0.043,0 3.391,0 7.199,-1.082 11.223,-3.364 l 146.082,-83 -0.004,-0.003 -0.93,-0.93"
           style="fill:url(#linearGradient341);fill-opacity:1;fill-rule:nonzero;stroke:none"
           id="path343" />
      </g>
    </g>
  </g>
</svg>
